<?xml version="1.0" encoding="UTF-8" standalone="no"?>
<svg
   xmlns:dc="http://purl.org/dc/elements/1.1/"
   xmlns:cc="http://creativecommons.org/ns#"
   xmlns:rdf="http://www.w3.org/1999/02/22-rdf-syntax-ns#"
   xmlns:svg="http://www.w3.org/2000/svg"
   xmlns="http://www.w3.org/2000/svg"
   xmlns:xlink="http://www.w3.org/1999/xlink"
   xmlns:sodipodi="http://sodipodi.sourceforge.net/DTD/sodipodi-0.dtd"
   xmlns:inkscape="http://www.inkscape.org/namespaces/inkscape"
   width="20mm"
   height="20mm"
   viewBox="0 0 20 20"
   version="1.1"
   id="svg11418"
   inkscape:version="1.0.2 (e86c8708, 2021-01-15)"
   sodipodi:docname="formulation_blank.svg">
  <defs
     id="defs11412">
    <clipPath
       id="SVGID_4_">
      <use
         xlink:href="#SVGID_3_"
         style="overflow:visible"
         id="use8928"
         x="0"
         y="0"
         width="100%"
         height="100%" />
    </clipPath>
    <clipPath
       id="clipPath13054">
      <use
         xlink:href="#SVGID_3_"
         style="overflow:visible"
         id="use13052"
         x="0"
         y="0"
         width="100%"
         height="100%" />
    </clipPath>
    <clipPath
       id="clipPath13058">
      <use
         xlink:href="#SVGID_3_"
         style="overflow:visible"
         id="use13056"
         x="0"
         y="0"
         width="100%"
         height="100%" />
    </clipPath>
    <path
       id="SVGID_3_"
       d="m -1690.02,379.55 c -0.01,-2.6 -1.74,-5.21 -5.19,-7.2 -6.88,-3.97 -18,-3.97 -24.84,0 -3.42,1.99 -5.12,4.59 -5.11,7.19 v 49.54 c 0.01,2.6 1.74,5.21 5.18,7.2 6.89,3.97 18.01,3.97 24.85,0 3.42,-1.99 5.12,-4.59 5.11,-7.2 z" />
  </defs>
  <sodipodi:namedview
     id="base"
     pagecolor="#ffffff"
     bordercolor="#666666"
     borderopacity="1.0"
     inkscape:pageopacity="0.0"
     inkscape:pageshadow="2"
     inkscape:zoom="4.0151028"
     inkscape:cx="44.150878"
     inkscape:cy="59.816882"
     inkscape:document-units="mm"
     inkscape:current-layer="layer1"
     inkscape:document-rotation="0"
     showgrid="false"
     inkscape:window-width="1252"
     inkscape:window-height="847"
     inkscape:window-x="0"
     inkscape:window-y="25"
     inkscape:window-maximized="0"
     inkscape:snap-page="true" />
  <metadata
     id="metadata11415">
    <rdf:RDF>
      <cc:Work
         rdf:about="">
        <dc:format>image/svg+xml</dc:format>
        <dc:type
           rdf:resource="http://purl.org/dc/dcmitype/StillImage" />
        <dc:title></dc:title>
      </cc:Work>
    </rdf:RDF>
  </metadata>
  <g
     inkscape:label="Layer 1"
     inkscape:groupmode="layer"
     id="layer1">
    <g
       inkscape:label="Layer 1"
       id="layer1-0"
       transform="translate(-0.23586496,0.26231498)">
      <path
         class="st35"
         d="m 17.079239,9.4194114 -4.15131,1.7197996 v 0 l -2.44739,-5.9054992 4.15131,-1.7198 c 1.62983,-0.6746799 3.50044,0.0979 4.17512,1.73038 v 0 c 0.67734,1.62983 -0.0979,3.5004396 -1.72773,4.1751196 z"
         id="path8749"
         style="fill:#66a6a4;stroke-width:0.264583" />
      <path
         class="st13"
         d="m 12.927929,11.139211 -0.65617,-1.5874996 c 4.59582,-0.87578 6.14098,-3.5903996 5.78115,-5.4107296 0.3175,0.29898 0.57944,0.66939 0.75935,1.10066 v 0 c 0.67469,1.62984 -0.0979,3.5004396 -1.73037,4.1751296 z"
         id="path8751"
         style="fill:#24858c;stroke-width:0.264583" />
      <ellipse
         transform="rotate(-22.500428)"
         class="st11"
         cx="7.6709704"
         cy="12.046525"
         rx="0.87579292"
         ry="3.1962473"
         id="ellipse8753"
         style="fill:#1a6066;stroke-width:0.26459" />
      <path
         class="st32"
         d="m 3.0272183,9.4194114 4.1513198,1.7197996 v 0 l 2.44739,-5.9054992 -4.15131,-1.7198 c -1.6298298,-0.6746799 -3.5004398,0.0979 -4.1751298,1.73038 v 0 c -0.67732999,1.62983 0.0979,3.5004396 1.72773,4.1751196 z"
         id="path8755"
         style="fill:#e6ad3d;stroke-width:0.264583" />
      <path
         class="st30"
         d="m 7.1785381,11.139211 0.65616,-1.5874996 C 3.2388883,8.6759314 1.6937183,5.9613118 2.0535583,4.1409818 c -0.3175,0.29898 -0.57944,0.66939 -0.75936,1.10066 v 0 c -0.67468999,1.62984 0.0979,3.5004396 1.73038,4.1751296 z"
         id="path8757"
         style="fill:#d9a13f;stroke-width:0.264583" />
      <ellipse
         transform="rotate(-67.499572)"
         class="st31"
         cx="-4.3588381"
         cy="10.894982"
         rx="3.1962473"
         ry="0.87579292"
         id="ellipse8759"
         style="fill:#b2711e;stroke-width:0.26459" />
      <circle
         class="st35"
         cx="7.9431858"
         cy="12.888103"
         r="0.76993752"
         id="circle8761"
         style="fill:#66a6a4;stroke-width:0.264583" />
      <circle
         class="st35"
         cx="11.171075"
         cy="13.774455"
         r="0.73289579"
         id="circle8763"
         style="fill:#66a6a4;stroke-width:0.264583" />
      <circle
         class="st66"
         cx="8.636385"
         cy="9.5252485"
         r="0.73289579"
         id="circle8765"
         style="fill:#6bbf51;stroke-width:0.264583" />
      <circle
         class="st35"
         cx="11.507103"
         cy="10.991038"
         r="0.92339581"
         id="circle8767"
         style="fill:#66a6a4;stroke-width:0.264583" />
      <circle
         class="st66"
         cx="8.898325"
         cy="16.039288"
         r="0.98954165"
         id="circle8769"
         style="fill:#6bbf51;stroke-width:0.264583" />
      <path
         class="st34"
         d="m 8.7131181,12.888101 c 0,-0.27781 -0.14817,-0.51858 -0.36777,-0.65352 0.0741,0.11906 0.11641,0.25665 0.11641,0.40481 0,0.42598 -0.34395,0.76994 -0.76993,0.76994 -0.14817,0 -0.28575,-0.045 -0.40482,-0.11642 0.13494,0.21961 0.37571,0.36777 0.65353,0.36777 0.42862,0 0.77258,-0.3466 0.77258,-0.77258 z"
         id="path8771"
         style="fill:#509499;stroke-width:0.264583" />
      <path
         class="st20"
         d="m 9.1205781,9.2765414 c 0,0.40481 -0.32809,0.7328896 -0.7329,0.7328896 -0.13758,0 -0.26723,-0.0397 -0.37571,-0.1058296 0.12965,0.2143096 0.35984,0.3571896 0.62707,0.3571896 0.40481,0 0.73289,-0.3280796 0.73289,-0.7328996 0,-0.26723 -0.14287,-0.49741 -0.35719,-0.62706 0.0635,0.10848 0.10584,0.23813 0.10584,0.37571 z"
         id="path8773"
         style="fill:#508f3d;stroke-width:0.264583" />
      <path
         class="st34"
         d="m 12.025699,10.223751 c 0.10054,0.14816 0.15875,0.32543 0.15875,0.51593 0,0.51065 -0.41275,0.9234 -0.92339,0.9234 -0.1905,0 -0.37042,-0.0582 -0.51594,-0.15875 0.16669,0.24606 0.44714,0.40746 0.76729,0.40746 0.51065,0 0.9234,-0.41275 0.9234,-0.9234 -0.003,-0.3175 -0.16405,-0.59796 -0.41011,-0.76464 z"
         id="path8775"
         style="fill:#509499;stroke-width:0.264583" />
      <path
         class="st20"
         d="m 9.4618881,15.227021 c 0.11112,0.16139 0.17727,0.35454 0.17727,0.56356 0,0.54769 -0.4445,0.98954 -0.98954,0.98954 -0.20902,0 -0.40217,-0.0661 -0.56356,-0.17727 0.17991,0.25665 0.47625,0.42598 0.81227,0.42598 0.54768,0 0.98954,-0.4445 0.98954,-0.98954 0,-0.33867 -0.16933,-0.635 -0.42598,-0.81227 z"
         id="path8777"
         style="fill:#508f3d;stroke-width:0.264583" />
      <path
         class="st34"
         d="m 11.549449,13.147391 c 0.0661,0.11113 0.10584,0.23813 0.10584,0.37571 0,0.40481 -0.32809,0.7329 -0.7329,0.7329 -0.13758,0 -0.26723,-0.0397 -0.37571,-0.10584 0.12965,0.21432 0.35983,0.35719 0.62706,0.35719 0.40482,0 0.7329,-0.32808 0.7329,-0.73289 0,-0.26723 -0.14552,-0.50007 -0.35719,-0.62707 z"
         id="path8779"
         style="fill:#509499;stroke-width:0.264583" />
    </g>
  </g>
</svg>
