<?xml version="1.0" encoding="UTF-8" standalone="no"?>
<svg
   xmlns:dc="http://purl.org/dc/elements/1.1/"
   xmlns:cc="http://creativecommons.org/ns#"
   xmlns:rdf="http://www.w3.org/1999/02/22-rdf-syntax-ns#"
   xmlns:svg="http://www.w3.org/2000/svg"
   xmlns="http://www.w3.org/2000/svg"
   xmlns:xlink="http://www.w3.org/1999/xlink"
   xmlns:sodipodi="http://sodipodi.sourceforge.net/DTD/sodipodi-0.dtd"
   xmlns:inkscape="http://www.inkscape.org/namespaces/inkscape"
   width="7mm"
   height="7mm"
   viewBox="0 0 7 7"
   version="1.1"
   id="svg11418"
   inkscape:version="1.0.2 (e86c8708, 2021-01-15)"
   sodipodi:docname="strain_backup.svg">
  <defs
     id="defs11412">
    <clipPath
       id="SVGID_4_">
      <use
         xlink:href="#SVGID_3_"
         style="overflow:visible"
         id="use8928"
         x="0"
         y="0"
         width="100%"
         height="100%" />
    </clipPath>
    <clipPath
       id="clipPath13054">
      <use
         xlink:href="#SVGID_3_"
         style="overflow:visible"
         id="use13052"
         x="0"
         y="0"
         width="100%"
         height="100%" />
    </clipPath>
    <clipPath
       id="clipPath13058">
      <use
         xlink:href="#SVGID_3_"
         style="overflow:visible"
         id="use13056"
         x="0"
         y="0"
         width="100%"
         height="100%" />
    </clipPath>
    <path
       id="SVGID_3_"
       d="m -1690.02,379.55 c -0.01,-2.6 -1.74,-5.21 -5.19,-7.2 -6.88,-3.97 -18,-3.97 -24.84,0 -3.42,1.99 -5.12,4.59 -5.11,7.19 v 49.54 c 0.01,2.6 1.74,5.21 5.18,7.2 6.89,3.97 18.01,3.97 24.85,0 3.42,-1.99 5.12,-4.59 5.11,-7.2 z" />
  </defs>
  <sodipodi:namedview
     id="base"
     pagecolor="#ffffff"
     bordercolor="#666666"
     borderopacity="1.0"
     inkscape:pageopacity="0.0"
     inkscape:pageshadow="2"
     inkscape:zoom="4.8571292"
     inkscape:cx="13.802286"
     inkscape:cy="40.87651"
     inkscape:document-units="mm"
     inkscape:current-layer="layer1"
     inkscape:document-rotation="0"
     showgrid="false"
     inkscape:window-width="1252"
     inkscape:window-height="847"
     inkscape:window-x="0"
     inkscape:window-y="25"
     inkscape:window-maximized="0" />
  <metadata
     id="metadata11415">
    <rdf:RDF>
      <cc:Work
         rdf:about="">
        <dc:format>image/svg+xml</dc:format>
        <dc:type
           rdf:resource="http://purl.org/dc/dcmitype/StillImage" />
        <dc:title></dc:title>
      </cc:Work>
    </rdf:RDF>
  </metadata>
  <g
     inkscape:label="Layer 1"
     inkscape:groupmode="layer"
     id="layer1">
    <circle
       class="st9"
       cx="3.4972308"
       cy="3.5043147"
       r="3.1882291"
       id="circle5769"
       style="fill:#ffffff;stroke:#cfd8dc;stroke-width:0.264583;stroke-miterlimit:10" />
    <circle
       class="st15"
       cx="3.4972308"
       cy="3.5043147"
       r="2.4791458"
       id="circle5819"
       style="clip-rule:evenodd;fill:#cac6e5;fill-rule:evenodd;stroke-width:0.264583" />
    <path
       class="st16"
       d="m 4.37565,1.5278779 c 0.0344,-0.0344 0.08202,-0.0397 0.121709,-0.0212 l 0.201083,0.10054 c 0.01058,0.005 0.01852,0.0106 0.02646,0.0212 0.04233,0.0423 0.04233,0.10848 0,0.15081 -0.0344,0.0344 -0.08202,0.0397 -0.121708,0.0212 l -0.201083,-0.10055 c -0.01058,-0.005 -0.01852,-0.0106 -0.02646,-0.0212 -0.03969,-0.0423 -0.03969,-0.10848 0,-0.15082 z"
       id="path5821"
       style="clip-rule:evenodd;fill:#433166;fill-rule:evenodd;stroke-width:0.264583" />
    <path
       class="st16"
       d="m 1.88063,4.7716779 c -0.04762,0 -0.08731,-0.0317 -0.100542,-0.0714 l -0.07144,-0.21167 c -0.0026,-0.0106 -0.0053,-0.0212 -0.0053,-0.0344 0,-0.0582 0.04763,-0.10584 0.105833,-0.10584 0.04762,0 0.08731,0.0317 0.100542,0.0714 l 0.07144,0.21167 c 0.0026,0.0106 0.0053,0.0212 0.0053,0.0344 0.0026,0.0582 -0.04498,0.10584 -0.105833,0.10584 z"
       id="path5823"
       style="clip-rule:evenodd;fill:#433166;fill-rule:evenodd;stroke-width:0.264583" />
    <path
       class="st16"
       d="m 4.063442,4.1948779 c 0,-0.0476 -0.03175,-0.0873 -0.07144,-0.10054 l -0.211666,-0.0714 c -0.01058,-0.003 -0.02117,-0.005 -0.0344,-0.005 -0.05821,0 -0.105833,0.0476 -0.105833,0.10584 0,0.0476 0.03175,0.0873 0.07144,0.10054 l 0.211667,0.0714 c 0.01058,0.003 0.02117,0.005 0.0344,0.005 0.05821,0 0.105833,-0.0476 0.105832,-0.10584 z"
       id="path5825"
       style="clip-rule:evenodd;fill:#433166;fill-rule:evenodd;stroke-width:0.264583" />
    <path
       class="st16"
       d="m 3.624234,1.6284279 c 0.0344,0.0344 0.08202,0.0397 0.121708,0.0212 l 0.201083,-0.10054 c 0.01058,-0.005 0.01852,-0.0106 0.02646,-0.0212 0.04233,-0.0423 0.04233,-0.10847 0,-0.15081 -0.0344,-0.0344 -0.08202,-0.0397 -0.121709,-0.0212 l -0.201083,0.10054 c -0.01058,0.005 -0.01852,0.0106 -0.02646,0.0212 -0.03969,0.0423 -0.03969,0.10848 0,0.15082 z"
       id="path5827"
       style="clip-rule:evenodd;fill:#433166;fill-rule:evenodd;stroke-width:0.264583" />
    <path
       class="st16"
       d="m 2.372755,2.5809279 c 0.0344,0.0344 0.03969,0.082 0.02117,0.1217 l -0.100541,0.20109 c -0.0053,0.0106 -0.01058,0.0185 -0.02117,0.0265 -0.04233,0.0423 -0.108479,0.0423 -0.150813,0 -0.03439,-0.0344 -0.03969,-0.082 -0.02117,-0.12171 l 0.100541,-0.20109 c 0.0053,-0.0106 0.01058,-0.0185 0.02117,-0.0265 0.04233,-0.0423 0.108479,-0.0423 0.150813,0 z"
       id="path5829"
       style="clip-rule:evenodd;fill:#433166;fill-rule:evenodd;stroke-width:0.264583" />
    <path
       class="st16"
       d="m 3.095067,3.8800279 -0.05027,-0.25135 c -0.0079,-0.0344 0.0026,-0.0688 0.0291,-0.0952 0.04233,-0.0423 0.108479,-0.0423 0.150813,0 0.01588,0.0159 0.02381,0.0344 0.0291,0.0529 l 0.05027,0.25136 c 0.0079,0.0344 -0.0026,0.0688 -0.0291,0.0952 -0.04233,0.0423 -0.10848,0.0423 -0.150813,0 -0.01588,-0.0159 -0.02646,-0.0344 -0.0291,-0.0529 z"
       id="path5831"
       style="clip-rule:evenodd;fill:#433166;fill-rule:evenodd;stroke-width:0.264583" />
    <path
       class="st16"
       d="m 2.322484,4.1842979 c 0.02646,-0.0265 0.0635,-0.037 0.09525,-0.0291 l 0.251354,0.0503 c 0.02117,0.005 0.03969,0.0132 0.05292,0.0291 0.04233,0.0423 0.04233,0.10848 0,0.15081 -0.02646,0.0265 -0.0635,0.037 -0.09525,0.0291 l -0.251355,-0.0503 c -0.02117,-0.005 -0.03969,-0.0132 -0.05292,-0.0291 -0.04233,-0.0423 -0.04233,-0.11112 1e-6,-0.15081 z"
       id="path5833"
       style="clip-rule:evenodd;fill:#433166;fill-rule:evenodd;stroke-width:0.264583" />
    <path
       class="st16"
       d="m 5.349317,3.8879679 0.05027,-0.25136 c 0.0053,-0.0212 0.01323,-0.0397 0.0291,-0.0529 0.04233,-0.0423 0.108479,-0.0423 0.150812,0 0.02646,0.0265 0.03704,0.0635 0.02911,0.0953 l -0.05027,0.25135 c -0.0053,0.0212 -0.01323,0.0397 -0.0291,0.0529 -0.04233,0.0423 -0.10848,0.0423 -0.150813,0 -0.02646,-0.0265 -0.0344,-0.0635 -0.0291,-0.0952 z"
       id="path5835"
       style="clip-rule:evenodd;fill:#433166;fill-rule:evenodd;stroke-width:0.264583" />
    <path
       class="st17"
       d="m 3.925859,3.0624679 c -0.0026,-0.10848 -0.07408,-0.19844 -0.17198,-0.24342 -0.07144,-0.0344 -0.137583,-0.0873 -0.187854,-0.16139 -0.103187,-0.15082 -0.105833,-0.35719 -0.0026,-0.51065 0.169334,-0.24871 0.508,-0.27252 0.709084,-0.0714 0.03969,0.0397 0.07144,0.0873 0.09525,0.13759 0.04233,0.0953 0.132291,0.16668 0.238125,0.16668 0.187854,0.003 0.378354,0.082 0.510646,0.24342 0.201083,0.24077 0.206375,0.60325 0.0079,0.84931 -0.256646,0.32015 -0.722312,0.33867 -1.002771,0.0582 -0.127,-0.13229 -0.193146,-0.29898 -0.195791,-0.46831 z M 3.0739,1.7289679 c 0.01852,-0.0185 0.02911,-0.0423 0.03175,-0.0714 0.0026,-0.0582 -0.04498,-0.10848 -0.103187,-0.10848 -0.214313,-0.008 -0.423333,0.0767 -0.576792,0.22754 -0.06085,0.0609 -0.111125,0.12965 -0.148166,0.20638 -0.02646,0.0556 -0.0635,0.10583 -0.10848,0.15081 -0.111125,0.11113 -0.261937,0.17198 -0.418041,0.16669 -0.05821,-0.003 -0.108479,0.045 -0.108479,0.10319 -0.0026,0.0582 0.04498,0.10847 0.103187,0.10847 0.214313,0.008 0.425979,-0.0767 0.576792,-0.22754 0.06085,-0.0609 0.111125,-0.12964 0.148166,-0.20637 0.02646,-0.0556 0.0635,-0.10584 0.10848,-0.14817 0.111125,-0.11112 0.261937,-0.17198 0.418041,-0.16669 0.02646,-0.003 0.05556,-0.0132 0.07673,-0.0344 z m 0.5715,3.72798 c 0.09525,0.0952 0.243417,0.10848 0.351896,0.0397 l 0.550333,-0.35189 c 0.01587,-0.0106 0.0344,-0.0238 0.04762,-0.0397 0.111125,-0.11112 0.111125,-0.29104 0,-0.40217 -0.09525,-0.0952 -0.243416,-0.10847 -0.351895,-0.0397 l -0.550334,0.35189 c -0.01587,0.0106 -0.0344,0.0238 -0.04762,0.0397 -0.108479,0.11377 -0.108479,0.29104 0,0.40217 z m -2.153708,-1.85473 c 0.06085,0.0609 0.142875,0.0873 0.22225,0.082 l 0.650875,-0.0503 c 0.06615,-0.005 0.129646,-0.0318 0.177271,-0.082 0.111125,-0.11113 0.111125,-0.29104 0,-0.40217 -0.06085,-0.0608 -0.142875,-0.0873 -0.22225,-0.082 l -0.650875,0.0503 c -0.06615,0.005 -0.129646,0.0317 -0.177271,0.082 -0.111125,0.11377 -0.111125,0.29369 0,0.40217 z"
       id="path5837"
       style="clip-rule:evenodd;fill:#ffffff;fill-rule:evenodd;stroke-width:0.264583" />
    <path
       class="st18"
       d="m 2.563255,4.8775079 c 0.07408,-0.0741 0.193145,-0.0741 0.269875,0 0.07408,0.0741 0.07408,0.19315 0,0.26987 -0.07408,0.0741 -0.193146,0.0741 -0.269875,0 -0.07673,-0.0741 -0.07408,-0.19579 0,-0.26987 z m 2.30452,-0.23283 c 0.07408,0.0741 0.193146,0.0741 0.269875,0 0.07408,-0.0741 0.07408,-0.19315 0,-0.26988 -0.07408,-0.0767 -0.193146,-0.0741 -0.269875,0 -0.07408,0.0741 -0.07408,0.19579 0,0.26988 z m -2.053166,-2.05582 c 0.07408,0.0741 0.193146,0.0741 0.269875,0 0.07408,-0.0741 0.07408,-0.19314 0,-0.26987 -0.07408,-0.0741 -0.193146,-0.0741 -0.269875,0 -0.07408,0.0767 -0.07408,0.19579 0,0.26987 z"
       id="path5839"
       style="clip-rule:evenodd;fill:#554080;fill-rule:evenodd;stroke-width:0.264583" />
  </g>
</svg>
