<?xml version="1.0" encoding="UTF-8" standalone="no"?>
<svg
   xmlns:dc="http://purl.org/dc/elements/1.1/"
   xmlns:cc="http://creativecommons.org/ns#"
   xmlns:rdf="http://www.w3.org/1999/02/22-rdf-syntax-ns#"
   xmlns:svg="http://www.w3.org/2000/svg"
   xmlns="http://www.w3.org/2000/svg"
   xmlns:sodipodi="http://sodipodi.sourceforge.net/DTD/sodipodi-0.dtd"
   xmlns:inkscape="http://www.inkscape.org/namespaces/inkscape"
   width="24mm"
   height="24mm"
   viewBox="0 0 24 24"
   version="1.1"
   id="svg11418"
   inkscape:version="1.0.2 (e86c8708, 2021-01-15)"
   sodipodi:docname="application.svg">
  <defs
     id="defs11412" />
  <sodipodi:namedview
     id="base"
     pagecolor="#ffffff"
     bordercolor="#666666"
     borderopacity="1.0"
     inkscape:pageopacity="0.0"
     inkscape:pageshadow="2"
     inkscape:zoom="3.5746263"
     inkscape:cx="60.139328"
     inkscape:cy="75.887136"
     inkscape:document-units="mm"
     inkscape:current-layer="layer1"
     inkscape:document-rotation="0"
     showgrid="false"
     inkscape:window-width="1252"
     inkscape:window-height="847"
     inkscape:window-x="0"
     inkscape:window-y="25"
     inkscape:window-maximized="0" />
  <metadata
     id="metadata11415">
    <rdf:RDF>
      <cc:Work
         rdf:about="">
        <dc:format>image/svg+xml</dc:format>
        <dc:type
           rdf:resource="http://purl.org/dc/dcmitype/StillImage" />
        <dc:title></dc:title>
      </cc:Work>
    </rdf:RDF>
  </metadata>
  <g
     inkscape:label="Layer 1"
     inkscape:groupmode="layer"
     id="layer1">
    <polygon
       class="st27"
       points="-1549.78,403.49 -1560.25,409.54 -1560.25,410.43 -1549.78,404.38 -1549.39,403.72 "
       id="polygon7972"
       style="fill:#a3a9ab"
       transform="matrix(0.26458333,0,0,0.26458333,415.66991,-93.648309)" />
    <polygon
       class="st28"
       points="-1549.22,403.72 -1560.08,409.99 -1560.08,410.88 -1549.22,404.61 "
       id="polygon7974"
       style="fill:#848d8f"
       transform="matrix(0.26458333,0,0,0.26458333,415.66991,-93.648309)" />
    <polygon
       class="st28"
       points="-1526.89,406.5 -1527.67,406.05 -1527.28,419.19 -1526.89,418.96 "
       id="polygon7976"
       style="fill:#848d8f"
       transform="matrix(0.26458333,0,0,0.26458333,415.66991,-93.648309)" />
    <polygon
       class="st28"
       points="-1548.61,393.96 -1549.39,393.51 -1549,406.64 -1548.61,406.42 "
       id="polygon7978"
       style="fill:#848d8f"
       transform="matrix(0.26458333,0,0,0.26458333,415.66991,-93.648309)" />
    <polygon
       class="st27"
       points="-1548.61,404.61 -1527.67,416.7 -1527.67,415.81 -1548.61,403.72 -1549,403.94 "
       id="polygon7980"
       style="fill:#a3a9ab"
       transform="matrix(0.26458333,0,0,0.26458333,415.66991,-93.648309)" />
    <polygon
       class="st29"
       points="-1527.28,406.72 -1528.05,406.27 -1528.05,418.74 -1527.28,419.19 "
       id="polygon7982"
       style="fill:#4c5456"
       transform="matrix(0.26458333,0,0,0.26458333,415.66991,-93.648309)" />
    <polygon
       class="st27"
       points="-1551.72,392.17 -1524.95,407.46 -1524.56,406.95 -1551.72,391.28 -1552.1,391.5 "
       id="polygon7984"
       style="fill:#a3a9ab"
       transform="matrix(0.26458333,0,0,0.26458333,415.66991,-93.648309)" />
    <polygon
       class="st28"
       points="-1524.56,406.95 -1524.95,407.18 -1524.95,408.07 -1524.56,407.84 "
       id="polygon7986"
       style="fill:#848d8f"
       transform="matrix(0.26458333,0,0,0.26458333,415.66991,-93.648309)" />
    <polygon
       class="st29"
       points="-1552.1,391.5 -1552.1,392.39 -1524.95,408.07 -1524.95,407.18 "
       id="polygon7988"
       style="fill:#4c5456"
       transform="matrix(0.26458333,0,0,0.26458333,415.66991,-93.648309)" />
    <polygon
       class="st29"
       points="-1549,403.94 -1549,404.83 -1528.05,416.93 -1528.05,416.04 "
       id="polygon7990"
       style="fill:#4c5456"
       transform="matrix(0.26458333,0,0,0.26458333,415.66991,-93.648309)" />
    <polygon
       class="st23"
       points="-1549,394.18 -1549.78,393.73 -1549.78,406.2 -1549,406.64 "
       id="polygon7992"
       style="fill:#33383a"
       transform="matrix(0.26458333,0,0,0.26458333,415.66991,-93.648309)" />
    <path
       class="st30"
       d="m 5.7271411,10.115981 c -0.08467,-0.05027 -0.161396,-0.05292 -0.219604,-0.02117 l -2.873375,1.658937 0.436563,0.751417 2.873375,-1.658938 c 0.05556,-0.03175 0.08996,-0.100541 0.08996,-0.198437 0,-0.195792 -0.137583,-0.433917 -0.306917,-0.531813 z"
       id="path7994"
       style="fill:#d9a13f;stroke-width:0.264583" />
    <path
       class="st31"
       d="m 3.1606831,12.304086 c 0,0.09789 -0.0344,0.166687 -0.08996,0.198437 -0.05556,0.03175 -0.132292,0.02646 -0.219604,-0.02117 -0.169334,-0.09789 -0.306917,-0.33602 -0.306917,-0.531812 0,-0.0979 0.0344,-0.166688 0.08996,-0.198438 0.05556,-0.03175 0.132292,-0.02646 0.219604,0.02117 0.169334,0.100542 0.306917,0.338667 0.306917,0.531813 z"
       id="path7996"
       style="fill:#b2711e;stroke-width:0.264583" />
    <path
       class="st32"
       d="m 6.5473498,10.589586 c -0.08467,-0.05027 -0.161396,-0.05292 -0.219605,-0.02117 l -2.8733737,1.658937 0.436562,0.751417 2.8733747,-1.658937 c 0.05556,-0.03175 0.08996,-0.100542 0.08996,-0.198438 0.0026,-0.195792 -0.134937,-0.433917 -0.306916,-0.531812 z"
       id="path7998"
       style="fill:#e6ad3d;stroke-width:0.264583" />
    <path
       class="st31"
       d="m 3.9835371,12.780336 c 0,0.0979 -0.0344,0.166687 -0.08996,0.198437 -0.05556,0.03175 -0.132292,0.02646 -0.219604,-0.02117 -0.169334,-0.0979 -0.306917,-0.33602 -0.306917,-0.531812 0,-0.0979 0.0344,-0.166688 0.08996,-0.198438 0.05556,-0.03175 0.132292,-0.02646 0.219605,0.02117 0.169333,0.0979 0.306916,0.336021 0.306916,0.531813 z"
       id="path8000"
       style="fill:#b2711e;stroke-width:0.264583" />
    <path
       class="st30"
       d="m 7.3702038,11.06319 c -0.08467,-0.05027 -0.161396,-0.05292 -0.219604,-0.02117 l -2.8733747,1.658938 0.436562,0.751416 2.8733747,-1.658937 c 0.05556,-0.03175 0.08996,-0.100542 0.08996,-0.198438 0,-0.195791 -0.137583,-0.433916 -0.306916,-0.531812 z"
       id="path8002"
       style="fill:#d9a13f;stroke-width:0.264583" />
    <path
       class="st31"
       d="m 4.8037461,13.25394 c 0,0.0979 -0.0344,0.166687 -0.08996,0.198437 -0.05556,0.03175 -0.132291,0.02646 -0.219604,-0.02117 -0.169333,-0.0979 -0.306917,-0.336021 -0.306917,-0.531813 0,-0.0979 0.0344,-0.166687 0.08996,-0.198437 0.05556,-0.03175 0.132291,-0.02646 0.219604,0.02117 0.169333,0.0979 0.306917,0.336021 0.306917,0.531813 z"
       id="path8004"
       style="fill:#b2711e;stroke-width:0.264583" />
    <path
       class="st32"
       d="m 8.1904118,11.536794 c -0.08467,-0.05027 -0.161396,-0.05292 -0.219604,-0.02117 l -2.8733747,1.658938 0.436563,0.751416 2.8733737,-1.658937 c 0.05556,-0.03175 0.08996,-0.100542 0.08996,-0.198438 0,-0.195791 -0.137584,-0.433916 -0.306917,-0.531812 z"
       id="path8006"
       style="fill:#e6ad3d;stroke-width:0.264583" />
    <path
       class="st31"
       d="m 5.6239541,13.727544 c 0,0.0979 -0.0344,0.166687 -0.08996,0.198437 -0.05556,0.03175 -0.132292,0.02646 -0.219605,-0.02117 -0.169333,-0.0979 -0.306916,-0.336021 -0.306916,-0.531813 0,-0.0979 0.0344,-0.166687 0.08996,-0.198437 0.05556,-0.03175 0.132292,-0.02646 0.219604,0.02117 0.169334,0.0979 0.306917,0.336021 0.306917,0.531813 z"
       id="path8008"
       style="fill:#b2711e;stroke-width:0.264583" />
    <path
       class="st30"
       d="m 9.0106198,12.010398 c -0.08467,-0.05027 -0.161395,-0.05292 -0.219604,-0.02117 l -2.8733747,1.658938 0.4365627,0.751417 2.873375,-1.658938 c 0.05556,-0.03175 0.08996,-0.100542 0.08996,-0.198437 0.0026,-0.195792 -0.134937,-0.433917 -0.306917,-0.531813 z"
       id="path8010"
       style="fill:#d9a13f;stroke-width:0.264583" />
    <path
       class="st31"
       d="m 6.4468078,14.201148 c 0,0.0979 -0.0344,0.166688 -0.08996,0.198438 -0.05556,0.03175 -0.132292,0.02646 -0.2196047,-0.02117 -0.169333,-0.0979 -0.306916,-0.336021 -0.306916,-0.531813 0,-0.09789 0.0344,-0.166687 0.08996,-0.198437 0.05556,-0.03175 0.132292,-0.02646 0.219604,0.02117 0.1693337,0.100541 0.3069167,0.33602 0.3069167,0.531812 z"
       id="path8012"
       style="fill:#b2711e;stroke-width:0.264583" />
    <path
       class="st32"
       d="m 9.8334748,12.484002 c -0.08467,-0.05027 -0.161396,-0.05292 -0.219605,-0.02117 l -2.873375,1.658937 0.436563,0.751417 2.8733752,-1.658938 c 0.05556,-0.03175 0.08996,-0.100541 0.08996,-0.198437 0,-0.195792 -0.137583,-0.431271 -0.3069162,-0.531813 z"
       id="path8014"
       style="fill:#e6ad3d;stroke-width:0.264583" />
    <path
       class="st31"
       d="m 7.2670158,14.674752 c 0,0.0979 -0.0344,0.166688 -0.08996,0.198438 -0.05556,0.03175 -0.132292,0.02646 -0.219604,-0.02117 -0.169334,-0.0979 -0.306917,-0.336021 -0.306917,-0.531812 0,-0.0979 0.0344,-0.166688 0.08996,-0.198438 0.05556,-0.03175 0.132292,-0.02646 0.219605,0.02117 0.169333,0.100541 0.306916,0.338666 0.306916,0.531812 z"
       id="path8016"
       style="fill:#b2711e;stroke-width:0.264583" />
    <path
       class="st30"
       d="m 10.653683,12.960252 c -0.08467,-0.05027 -0.161396,-0.05292 -0.219604,-0.02117 l -2.8733752,1.658937 0.436562,0.751421 2.8733752,-1.658942 c 0.05556,-0.03175 0.08996,-0.100541 0.08996,-0.198437 0,-0.195792 -0.137584,-0.433917 -0.306917,-0.531813 z"
       id="path8018"
       style="fill:#d9a13f;stroke-width:0.264583" />
    <path
       class="st31"
       d="m 8.0872248,15.148356 c 0,0.09789 -0.0344,0.166684 -0.08996,0.198434 -0.05556,0.0318 -0.132291,0.0265 -0.219604,-0.0212 -0.169333,-0.0979 -0.306917,-0.336024 -0.306917,-0.531815 0,-0.0979 0.0344,-0.166688 0.08996,-0.198438 0.05556,-0.03175 0.132291,-0.02646 0.219604,0.02117 0.169333,0.100542 0.306917,0.338667 0.306917,0.531812 z"
       id="path8020"
       style="fill:#b2711e;stroke-width:0.264583" />
    <path
       class="st32"
       d="m 11.473891,13.433856 c -0.08467,-0.05027 -0.161396,-0.05292 -0.219604,-0.02117 l -2.8733752,1.658937 0.436563,0.751417 2.8733752,-1.658938 c 0.05556,-0.03175 0.08996,-0.100541 0.08996,-0.198437 0.0026,-0.195792 -0.134938,-0.433917 -0.306917,-0.531813 z"
       id="path8022"
       style="fill:#e6ad3d;stroke-width:0.264583" />
    <path
       class="st31"
       d="m 8.9100788,15.62461 c 0,0.0979 -0.0344,0.16668 -0.08996,0.19843 -0.05556,0.0318 -0.132291,0.0265 -0.219604,-0.0212 -0.169333,-0.0979 -0.306916,-0.33602 -0.306916,-0.53182 0,-0.09789 0.03439,-0.166683 0.08996,-0.198433 0.05556,-0.03175 0.132292,-0.02646 0.219604,0.02117 0.166688,0.0979 0.306917,0.336013 0.306917,0.531813 z"
       id="path8024"
       style="fill:#b2711e;stroke-width:0.264583" />
    <polygon
       class="st28"
       points="-1538.14,412.99 -1538.92,412.55 -1538.53,425.68 -1538.14,425.46 "
       id="polygon8026"
       style="fill:#848d8f"
       transform="matrix(0.26458333,0,0,0.26458333,415.66991,-93.648309)" />
    <polygon
       class="st28"
       points="-1559.86,400.45 -1560.64,400 -1560.25,413.14 -1559.86,412.91 "
       id="polygon8028"
       style="fill:#848d8f"
       transform="matrix(0.26458333,0,0,0.26458333,415.66991,-93.648309)" />
    <polygon
       class="st27"
       points="-1559.86,411.1 -1538.92,423.2 -1538.92,422.31 -1559.86,410.21 -1560.25,410.44 "
       id="polygon8030"
       style="fill:#a3a9ab"
       transform="matrix(0.26458333,0,0,0.26458333,415.66991,-93.648309)" />
    <polygon
       class="st29"
       points="-1538.53,413.22 -1539.3,412.77 -1539.3,425.23 -1538.53,425.68 "
       id="polygon8032"
       style="fill:#4c5456"
       transform="matrix(0.26458333,0,0,0.26458333,415.66991,-93.648309)" />
    <polygon
       class="st27"
       points="-1562.97,398.66 -1536.2,413.95 -1535.81,413.45 -1562.97,397.77 -1563.35,397.99 "
       id="polygon8034"
       style="fill:#a3a9ab"
       transform="matrix(0.26458333,0,0,0.26458333,415.66991,-93.648309)" />
    <polygon
       class="st28"
       points="-1535.81,413.45 -1536.2,413.67 -1536.2,414.56 -1535.81,414.34 "
       id="polygon8036"
       style="fill:#848d8f"
       transform="matrix(0.26458333,0,0,0.26458333,415.66991,-93.648309)" />
    <polygon
       class="st29"
       points="-1563.35,397.99 -1563.35,398.88 -1536.2,414.56 -1536.2,413.67 "
       id="polygon8038"
       style="fill:#4c5456"
       transform="matrix(0.26458333,0,0,0.26458333,415.66991,-93.648309)" />
    <polygon
       class="st29"
       points="-1560.25,410.44 -1560.25,411.33 -1539.3,423.42 -1539.3,422.53 "
       id="polygon8040"
       style="fill:#4c5456"
       transform="matrix(0.26458333,0,0,0.26458333,415.66991,-93.648309)" />
    <polygon
       class="st29"
       points="-1560.25,400.68 -1561.03,400.23 -1561.03,412.69 -1560.25,413.14 "
       id="polygon8042"
       style="fill:#4c5456"
       transform="matrix(0.26458333,0,0,0.26458333,415.66991,-93.648309)" />
    <polygon
       class="st11"
       points="-1542.41,403.8 -1549.66,399.49 -1545.51,397.1 -1538.08,401.39 "
       id="polygon8044"
       style="fill:#1a6066"
       transform="matrix(0.26458333,0,0,0.26458333,415.66991,-93.648309)" />
    <polygon
       class="st33"
       points="-1554.04,394 -1553.27,397.11 -1545.51,392.63 -1546.28,389.52 "
       id="polygon8046"
       style="fill:#bfd8d9"
       transform="matrix(0.26458333,0,0,0.26458333,415.66991,-93.648309)" />
    <polygon
       class="st10"
       points="-1533.88,395.8 -1544.74,389.53 -1545.51,392.65 -1534.65,398.92 "
       id="polygon8048"
       style="fill:#afd0d4"
       transform="matrix(0.26458333,0,0,0.26458333,415.66991,-93.648309)" />
    <polygon
       class="st13"
       points="-1553.27,397.13 -1553.27,401.58 -1545.51,397.1 -1545.51,392.65 "
       id="polygon8050"
       style="fill:#24858c"
       transform="matrix(0.26458333,0,0,0.26458333,415.66991,-93.648309)" />
    <polygon
       class="st34"
       points="-1534.65,398.92 -1539.86,400.36 -1545.51,397.1 -1545.51,392.65 "
       id="polygon8052"
       style="fill:#509499"
       transform="matrix(0.26458333,0,0,0.26458333,415.66991,-93.648309)" />
    <polygon
       class="st34"
       points="-1542.41,403.4 -1542.41,407.85 -1553.27,401.58 -1553.27,397.13 "
       id="polygon8054"
       style="fill:#509499"
       transform="matrix(0.26458333,0,0,0.26458333,415.66991,-93.648309)" />
    <polygon
       class="st35"
       points="-1543.18,401.17 -1542.41,403.4 -1553.27,397.13 -1554.04,394.9 "
       id="polygon8056"
       style="fill:#66a6a4"
       transform="matrix(0.26458333,0,0,0.26458333,415.66991,-93.648309)" />
    <polygon
       class="st13"
       points="-1542.41,403.4 -1542.41,407.85 -1534.65,403.37 -1534.65,398.92 "
       id="polygon8058"
       style="fill:#24858c"
       transform="matrix(0.26458333,0,0,0.26458333,415.66991,-93.648309)" />
    <polygon
       class="st35"
       points="-1541.63,401.17 -1542.41,403.4 -1534.65,398.92 -1533.87,396.69 "
       id="polygon8060"
       style="fill:#66a6a4"
       transform="matrix(0.26458333,0,0,0.26458333,415.66991,-93.648309)" />
    <polygon
       class="st27"
       points="-1527.67,416.26 -1538.14,422.31 -1538.14,423.2 -1527.67,417.15 -1527.28,416.48 "
       id="polygon8062"
       style="fill:#a3a9ab"
       transform="matrix(0.26458333,0,0,0.26458333,415.66991,-93.648309)" />
    <polygon
       class="st28"
       points="-1527.28,416.48 -1538.14,422.75 -1538.14,423.64 -1527.28,417.37 "
       id="polygon8064"
       style="fill:#848d8f"
       transform="matrix(0.26458333,0,0,0.26458333,415.66991,-93.648309)" />
    <polygon
       class="st27"
       points="-1536.39,365.5 -1531.74,362.81 -1542.6,356.54 -1547.26,359.23 "
       id="polygon8066"
       style="fill:#a3a9ab"
       transform="matrix(0.26458333,0,0,0.26458333,415.66991,-93.648309)" />
    <polygon
       class="st36"
       points="-1531.74,362.81 -1536.39,365.5 -1536.39,377.96 -1531.74,375.28 "
       id="polygon8068"
       style="fill:#657073"
       transform="matrix(0.26458333,0,0,0.26458333,415.66991,-93.648309)" />
    <polygon
       class="st29"
       points="-1547.26,359.23 -1547.26,371.69 -1536.39,377.96 -1536.39,365.5 "
       id="polygon8070"
       style="fill:#4c5456"
       transform="matrix(0.26458333,0,0,0.26458333,415.66991,-93.648309)" />
    <polygon
       class="st37"
       points="-1537.95,366.38 -1537.95,370.84 -1545.7,366.36 -1545.7,361.91 "
       id="polygon8072"
       style="fill:#1a601a"
       transform="matrix(0.26458333,0,0,0.26458333,415.66991,-93.648309)" />
    <polygon
       class="st8"
       points="-1538.33,366.61 -1538.33,370.17 -1545.32,366.14 -1545.32,362.57 "
       id="polygon8074"
       style="fill:#238223"
       transform="matrix(0.26458333,0,0,0.26458333,415.66991,-93.648309)" />
    <polygon
       class="st37"
       points="-1539.11,367.05 -1539.11,368.83 -1544.54,365.69 -1544.54,363.91 "
       id="polygon8076"
       style="fill:#1a601a"
       transform="matrix(0.26458333,0,0,0.26458333,415.66991,-93.648309)" />
    <polygon
       class="st36"
       points="-1516.22,374.74 -1531.74,365.78 -1532.13,366 -1516.61,374.96 "
       id="polygon8078"
       style="fill:#657073"
       transform="matrix(0.26458333,0,0,0.26458333,415.66991,-93.648309)" />
    <polygon
       class="st23"
       points="-1516.61,374.96 -1532.13,366 -1532.13,367.78 -1516.61,376.74 "
       id="polygon8080"
       style="fill:#33383a"
       transform="matrix(0.26458333,0,0,0.26458333,415.66991,-93.648309)" />
    <polygon
       class="st36"
       points="-1516.22,379.49 -1531.74,370.53 -1532.13,370.75 -1516.61,379.71 "
       id="polygon8082"
       style="fill:#657073"
       transform="matrix(0.26458333,0,0,0.26458333,415.66991,-93.648309)" />
    <polygon
       class="st23"
       points="-1516.61,379.71 -1532.13,370.75 -1532.13,372.53 -1516.61,381.49 "
       id="polygon8084"
       style="fill:#33383a"
       transform="matrix(0.26458333,0,0,0.26458333,415.66991,-93.648309)" />
    <path
       class="st38"
       d="m 18.196954,4.4300853 c -0.341313,0.195791 -0.616479,0.672041 -0.616479,1.060979 V 18.453 l 1.230312,-0.71173 V 4.7793353 c 0.0026,-0.388938 -0.272521,-0.545042 -0.613833,-0.34925 z"
       id="path8086"
       style="fill:#5a6466;stroke-width:0.264583" />
    <polygon
       class="st23"
       points="-1497.6,376.05 -1502.26,373.36 -1502.26,422.36 -1497.6,425.04 "
       id="polygon8088"
       style="fill:#33383a"
       transform="matrix(0.26458333,0,0,0.26458333,415.66991,-93.648309)" />
    <path
       class="st38"
       d="m 19.429912,5.1418143 c -0.341313,0.195792 -0.616479,0.672042 -0.616479,1.060979 V 19.16473 L 20.043745,18.453 V 5.4910643 c 0,-0.388938 -0.275166,-0.545042 -0.613833,-0.34925 z"
       id="path8090"
       style="fill:#5a6466;stroke-width:0.264583" />
    <polygon
       class="st27"
       points="-1522.24,419.39 -1532.71,425.44 -1532.71,426.33 -1522.24,420.29 -1521.85,419.62 "
       id="polygon8092"
       style="fill:#a3a9ab"
       transform="matrix(0.26458333,0,0,0.26458333,415.66991,-93.648309)" />
    <polygon
       class="st28"
       points="-1521.68,419.62 -1532.54,425.89 -1532.54,426.78 -1521.68,420.51 "
       id="polygon8094"
       style="fill:#848d8f"
       transform="matrix(0.26458333,0,0,0.26458333,415.66991,-93.648309)" />
    <polygon
       class="st28"
       points="-1499.35,422.4 -1500.13,421.95 -1499.74,435.09 -1499.35,434.86 "
       id="polygon8096"
       style="fill:#848d8f"
       transform="matrix(0.26458333,0,0,0.26458333,415.66991,-93.648309)" />
    <polygon
       class="st28"
       points="-1521.07,409.86 -1521.85,409.41 -1521.46,422.55 -1521.07,422.32 "
       id="polygon8098"
       style="fill:#848d8f"
       transform="matrix(0.26458333,0,0,0.26458333,415.66991,-93.648309)" />
    <polygon
       class="st27"
       points="-1521.07,420.51 -1500.13,432.6 -1500.13,431.71 -1521.07,419.62 -1521.46,419.84 "
       id="polygon8100"
       style="fill:#a3a9ab"
       transform="matrix(0.26458333,0,0,0.26458333,415.66991,-93.648309)" />
    <polygon
       class="st29"
       points="-1499.74,422.62 -1500.51,422.18 -1500.51,434.64 -1499.74,435.09 "
       id="polygon8102"
       style="fill:#4c5456"
       transform="matrix(0.26458333,0,0,0.26458333,415.66991,-93.648309)" />
    <polygon
       class="st27"
       points="-1524.18,408.07 -1497.41,423.36 -1497.02,422.85 -1524.18,407.18 -1524.56,407.4 "
       id="polygon8104"
       style="fill:#a3a9ab"
       transform="matrix(0.26458333,0,0,0.26458333,415.66991,-93.648309)" />
    <polygon
       class="st28"
       points="-1497.02,422.85 -1497.41,423.08 -1497.41,423.97 -1497.02,423.74 "
       id="polygon8106"
       style="fill:#848d8f"
       transform="matrix(0.26458333,0,0,0.26458333,415.66991,-93.648309)" />
    <polygon
       class="st29"
       points="-1524.56,407.4 -1524.56,408.29 -1497.41,423.97 -1497.41,423.08 "
       id="polygon8108"
       style="fill:#4c5456"
       transform="matrix(0.26458333,0,0,0.26458333,415.66991,-93.648309)" />
    <polygon
       class="st29"
       points="-1521.46,419.84 -1521.46,420.73 -1500.51,432.83 -1500.51,431.94 "
       id="polygon8110"
       style="fill:#4c5456"
       transform="matrix(0.26458333,0,0,0.26458333,415.66991,-93.648309)" />
    <polygon
       class="st23"
       points="-1521.46,410.08 -1522.24,409.63 -1522.24,422.1 -1521.46,422.55 "
       id="polygon8112"
       style="fill:#33383a"
       transform="matrix(0.26458333,0,0,0.26458333,415.66991,-93.648309)" />
    <path
       class="st30"
       d="m 13.013766,14.322856 c -0.08467,-0.05027 -0.161396,-0.05292 -0.219604,-0.02117 l -2.8733752,1.658944 0.4365632,0.75141 2.873375,-1.658938 c 0.05556,-0.03175 0.08996,-0.100541 0.08996,-0.198437 0.0026,-0.195792 -0.137583,-0.433917 -0.306917,-0.531813 z"
       id="path8114"
       style="fill:#d9a13f;stroke-width:0.264583" />
    <path
       class="st31"
       d="m 10.447308,16.51361 c 0,0.0979 -0.0344,0.16668 -0.08996,0.19843 -0.05556,0.0318 -0.132292,0.0265 -0.219605,-0.0212 -0.1693332,-0.0979 -0.3069162,-0.33602 -0.3069162,-0.53182 0,-0.0979 0.0344,-0.16668 0.08996,-0.19843 0.05556,-0.0318 0.1322922,-0.0265 0.2196042,0.0212 0.169334,0.0979 0.306917,0.33602 0.306917,0.53182 z"
       id="path8116"
       style="fill:#b2711e;stroke-width:0.264583" />
    <path
       class="st32"
       d="m 13.83662,14.796461 c -0.08467,-0.05027 -0.161395,-0.05292 -0.219604,-0.02117 l -2.873375,1.658939 0.436563,0.75142 2.873375,-1.65894 c 0.05556,-0.0318 0.08996,-0.10054 0.08996,-0.19844 0,-0.195792 -0.137583,-0.433917 -0.306917,-0.531812 z"
       id="path8118"
       style="fill:#e6ad3d;stroke-width:0.264583" />
    <path
       class="st31"
       d="m 11.270162,16.98721 c 0,0.0979 -0.0344,0.16669 -0.08996,0.19844 -0.05556,0.0318 -0.132292,0.0265 -0.219604,-0.0212 -0.169334,-0.0979 -0.306917,-0.33602 -0.306917,-0.53181 0,-0.0979 0.0344,-0.16669 0.08996,-0.19844 0.05556,-0.0318 0.132292,-0.0265 0.219604,0.0212 0.169334,0.0979 0.306917,0.33602 0.306917,0.53181 z"
       id="path8120"
       style="fill:#b2711e;stroke-width:0.264583" />
    <path
       class="st30"
       d="m 14.656829,15.27006 c -0.08467,-0.0503 -0.161396,-0.0529 -0.219604,-0.0212 l -2.873375,1.65894 0.436562,0.75141 2.873375,-1.65894 c 0.05556,-0.0318 0.08996,-0.10054 0.08996,-0.19843 0,-0.19579 -0.137583,-0.43392 -0.306916,-0.53182 z"
       id="path8122"
       style="fill:#d9a13f;stroke-width:0.264583" />
    <path
       class="st31"
       d="m 12.09037,17.46081 c 0,0.0979 -0.0344,0.16669 -0.08996,0.19844 -0.05556,0.0317 -0.132292,0.0265 -0.219604,-0.0212 -0.169333,-0.0979 -0.306917,-0.33603 -0.306917,-0.53182 0,-0.0979 0.0344,-0.16668 0.08996,-0.19843 0.05556,-0.0318 0.132291,-0.0265 0.219604,0.0212 0.169333,0.0979 0.306916,0.33602 0.306917,0.53181 z"
       id="path8124"
       style="fill:#b2711e;stroke-width:0.264583" />
    <path
       class="st32"
       d="m 15.477037,15.74367 c -0.08467,-0.0503 -0.161396,-0.0529 -0.219604,-0.0212 l -2.873375,1.65894 0.436562,0.75142 2.873375,-1.65894 c 0.05556,-0.0318 0.08996,-0.10054 0.08996,-0.19844 0.0026,-0.19579 -0.137584,-0.43392 -0.306917,-0.53181 z"
       id="path8126"
       style="fill:#e6ad3d;stroke-width:0.264583" />
    <path
       class="st31"
       d="m 12.910579,17.93442 c 0,0.0979 -0.0344,0.16669 -0.08996,0.19844 -0.05556,0.0318 -0.132291,0.0264 -0.219604,-0.0212 -0.169333,-0.0979 -0.306916,-0.33602 -0.306916,-0.53181 0,-0.0979 0.03439,-0.16669 0.08996,-0.19844 0.05556,-0.0318 0.132292,-0.0265 0.219604,0.0212 0.169333,0.0979 0.306917,0.33602 0.306916,0.53181 z"
       id="path8128"
       style="fill:#b2711e;stroke-width:0.264583" />
    <path
       class="st30"
       d="m 16.297245,16.21727 c -0.08467,-0.0503 -0.161395,-0.0529 -0.219604,-0.0212 l -2.873375,1.65893 0.436563,0.75142 2.873375,-1.65894 c 0.05556,-0.0318 0.08996,-0.10054 0.08996,-0.19843 0.0026,-0.1958 -0.134937,-0.43128 -0.306917,-0.53182 z"
       id="path8130"
       style="fill:#d9a13f;stroke-width:0.264583" />
    <path
       class="st31"
       d="m 13.733433,18.40802 c 0,0.0979 -0.0344,0.16669 -0.08996,0.19844 -0.05556,0.0318 -0.132292,0.0265 -0.219605,-0.0212 -0.169333,-0.0979 -0.306916,-0.33602 -0.306916,-0.53181 0,-0.0979 0.0344,-0.16669 0.08996,-0.19844 0.05556,-0.0317 0.132292,-0.0264 0.219604,0.0212 0.169334,0.10054 0.306917,0.33602 0.306917,0.53181 z"
       id="path8132"
       style="fill:#b2711e;stroke-width:0.264583" />
    <path
       class="st32"
       d="m 17.1201,16.69352 c -0.08467,-0.0503 -0.161396,-0.0529 -0.219605,-0.0212 l -2.873375,1.65893 0.436563,0.75142 2.873375,-1.65894 c 0.05556,-0.0318 0.08996,-0.10054 0.08996,-0.19843 0,-0.1958 -0.137583,-0.43392 -0.306916,-0.53182 z"
       id="path8134"
       style="fill:#e6ad3d;stroke-width:0.264583" />
    <path
       class="st31"
       d="m 14.553641,18.88163 c 0,0.0979 -0.0344,0.16668 -0.08996,0.19843 -0.05556,0.0318 -0.132292,0.0265 -0.219604,-0.0212 -0.169334,-0.0979 -0.306917,-0.33602 -0.306917,-0.53181 0,-0.0979 0.0344,-0.16669 0.08996,-0.19844 0.05556,-0.0318 0.132292,-0.0265 0.219605,0.0212 0.169333,0.10055 0.306916,0.33867 0.306916,0.53182 z"
       id="path8136"
       style="fill:#b2711e;stroke-width:0.264583" />
    <path
       class="st30"
       d="m 17.940308,17.16713 c -0.08467,-0.0503 -0.161396,-0.0529 -0.219604,-0.0212 l -2.873375,1.65894 0.436562,0.75141 2.873375,-1.65893 c 0.05556,-0.0318 0.08996,-0.10054 0.08996,-0.19844 0,-0.19579 -0.137584,-0.43392 -0.306917,-0.53181 z"
       id="path8138"
       style="fill:#d9a13f;stroke-width:0.264583" />
    <path
       class="st31"
       d="m 15.37385,19.35788 c 0,0.0979 -0.0344,0.16668 -0.08996,0.19843 -0.05556,0.0318 -0.132291,0.0265 -0.219604,-0.0212 -0.169333,-0.0979 -0.306917,-0.33602 -0.306917,-0.53181 0,-0.0979 0.0344,-0.16669 0.08996,-0.19844 0.05556,-0.0317 0.132291,-0.0265 0.219604,0.0212 0.169333,0.0979 0.306917,0.33603 0.306917,0.53182 z"
       id="path8140"
       style="fill:#b2711e;stroke-width:0.264583" />
    <path
       class="st32"
       d="m 18.760516,17.64073 c -0.08467,-0.0503 -0.161396,-0.0529 -0.219604,-0.0212 l -2.873375,1.65894 0.436563,0.75142 2.873374,-1.65894 c 0.05556,-0.0317 0.08996,-0.10054 0.08996,-0.19844 0.0026,-0.19579 -0.134938,-0.43391 -0.306917,-0.53181 z"
       id="path8142"
       style="fill:#e6ad3d;stroke-width:0.264583" />
    <path
       class="st31"
       d="m 16.196704,19.83148 c 0,0.0979 -0.0344,0.16669 -0.08996,0.19844 -0.05556,0.0318 -0.132291,0.0265 -0.219604,-0.0212 -0.169333,-0.0979 -0.306916,-0.33602 -0.306916,-0.53181 0,-0.0979 0.03439,-0.16669 0.08996,-0.19844 0.05556,-0.0318 0.132292,-0.0265 0.219604,0.0212 0.169333,0.0979 0.306917,0.33602 0.306916,0.53181 z"
       id="path8144"
       style="fill:#b2711e;stroke-width:0.264583" />
    <polygon
       class="st28"
       points="-1510.6,428.89 -1511.37,428.45 -1510.99,441.58 -1510.6,441.36 "
       id="polygon8146"
       style="fill:#848d8f"
       transform="matrix(0.26458333,0,0,0.26458333,415.66991,-93.648309)" />
    <polygon
       class="st28"
       points="-1532.32,416.35 -1533.1,415.9 -1532.71,429.04 -1532.32,428.82 "
       id="polygon8148"
       style="fill:#848d8f"
       transform="matrix(0.26458333,0,0,0.26458333,415.66991,-93.648309)" />
    <polygon
       class="st27"
       points="-1532.32,427 -1511.37,439.1 -1511.37,438.21 -1532.32,426.11 -1532.71,426.34 "
       id="polygon8150"
       style="fill:#a3a9ab"
       transform="matrix(0.26458333,0,0,0.26458333,415.66991,-93.648309)" />
    <polygon
       class="st29"
       points="-1510.99,429.12 -1511.76,428.67 -1511.76,441.13 -1510.99,441.58 "
       id="polygon8152"
       style="fill:#4c5456"
       transform="matrix(0.26458333,0,0,0.26458333,415.66991,-93.648309)" />
    <polygon
       class="st27"
       points="-1535.42,414.56 -1508.66,429.85 -1508.27,429.35 -1535.42,413.67 -1535.81,413.89 "
       id="polygon8154"
       style="fill:#a3a9ab"
       transform="matrix(0.26458333,0,0,0.26458333,415.66991,-93.648309)" />
    <polygon
       class="st28"
       points="-1508.27,429.35 -1508.66,429.57 -1508.66,430.46 -1508.27,430.24 "
       id="polygon8156"
       style="fill:#848d8f"
       transform="matrix(0.26458333,0,0,0.26458333,415.66991,-93.648309)" />
    <polygon
       class="st29"
       points="-1535.81,413.89 -1535.81,414.78 -1508.66,430.46 -1508.66,429.57 "
       id="polygon8158"
       style="fill:#4c5456"
       transform="matrix(0.26458333,0,0,0.26458333,415.66991,-93.648309)" />
    <polygon
       class="st29"
       points="-1532.71,426.34 -1532.71,427.23 -1511.76,439.32 -1511.76,438.43 "
       id="polygon8160"
       style="fill:#4c5456"
       transform="matrix(0.26458333,0,0,0.26458333,415.66991,-93.648309)" />
    <polygon
       class="st29"
       points="-1532.71,416.58 -1533.49,416.13 -1533.49,428.59 -1532.71,429.04 "
       id="polygon8162"
       style="fill:#4c5456"
       transform="matrix(0.26458333,0,0,0.26458333,415.66991,-93.648309)" />
    <polygon
       class="st11"
       points="-1514.87,419.7 -1522.11,415.39 -1517.97,413 -1510.54,417.29 "
       id="polygon8164"
       style="fill:#1a6066"
       transform="matrix(0.26458333,0,0,0.26458333,415.66991,-93.648309)" />
    <polygon
       class="st33"
       points="-1526.5,409.9 -1525.73,413.01 -1517.97,408.53 -1518.74,405.42 "
       id="polygon8166"
       style="fill:#bfd8d9"
       transform="matrix(0.26458333,0,0,0.26458333,415.66991,-93.648309)" />
    <polygon
       class="st10"
       points="-1506.34,411.7 -1517.2,405.43 -1517.97,408.55 -1507.11,414.82 "
       id="polygon8168"
       style="fill:#afd0d4"
       transform="matrix(0.26458333,0,0,0.26458333,415.66991,-93.648309)" />
    <polygon
       class="st13"
       points="-1525.73,413.03 -1525.73,417.48 -1517.97,413 -1517.97,408.55 "
       id="polygon8170"
       style="fill:#24858c"
       transform="matrix(0.26458333,0,0,0.26458333,415.66991,-93.648309)" />
    <polygon
       class="st34"
       points="-1507.11,414.82 -1512.32,416.26 -1517.97,413 -1517.97,408.55 "
       id="polygon8172"
       style="fill:#509499"
       transform="matrix(0.26458333,0,0,0.26458333,415.66991,-93.648309)" />
    <polygon
       class="st34"
       points="-1514.87,419.3 -1514.87,423.75 -1525.73,417.48 -1525.73,413.03 "
       id="polygon8174"
       style="fill:#509499"
       transform="matrix(0.26458333,0,0,0.26458333,415.66991,-93.648309)" />
    <polygon
       class="st35"
       points="-1515.64,417.07 -1514.87,419.3 -1525.73,413.03 -1526.5,410.8 "
       id="polygon8176"
       style="fill:#66a6a4"
       transform="matrix(0.26458333,0,0,0.26458333,415.66991,-93.648309)" />
    <polygon
       class="st13"
       points="-1514.87,419.3 -1514.87,423.75 -1507.11,419.27 -1507.11,414.82 "
       id="polygon8178"
       style="fill:#24858c"
       transform="matrix(0.26458333,0,0,0.26458333,415.66991,-93.648309)" />
    <polygon
       class="st35"
       points="-1514.09,417.07 -1514.87,419.3 -1507.11,414.82 -1506.33,412.6 "
       id="polygon8180"
       style="fill:#66a6a4"
       transform="matrix(0.26458333,0,0,0.26458333,415.66991,-93.648309)" />
    <polygon
       class="st27"
       points="-1500.13,432.16 -1510.6,438.21 -1510.6,439.1 -1500.13,433.05 -1499.74,432.38 "
       id="polygon8182"
       style="fill:#a3a9ab"
       transform="matrix(0.26458333,0,0,0.26458333,415.66991,-93.648309)" />
    <polygon
       class="st28"
       points="-1499.74,432.38 -1510.6,438.65 -1510.6,439.55 -1499.74,433.27 "
       id="polygon8184"
       style="fill:#848d8f"
       transform="matrix(0.26458333,0,0,0.26458333,415.66991,-93.648309)" />
    <polygon
       class="st36"
       points="-1511.76,411.32 -1511.76,413.1 -1516.42,415.78 -1516.42,414 "
       id="polygon8186"
       style="fill:#657073"
       transform="matrix(0.26458333,0,0,0.26458333,415.66991,-93.648309)" />
    <polygon
       class="st36"
       points="-1506.33,401.95 -1510.99,404.64 -1516.42,414 -1511.76,411.32 -1510.99,409.98 -1499.93,403.59 -1499.93,398.25 "
       id="polygon8188"
       style="fill:#657073"
       transform="matrix(0.26458333,0,0,0.26458333,415.66991,-93.648309)" />
    <polygon
       class="st39"
       points="-1516.42,414 -1516.42,415.78 -1521.07,413.1 -1521.07,411.32 "
       id="polygon8190"
       style="fill:#424b4c"
       transform="matrix(0.26458333,0,0,0.26458333,415.66991,-93.648309)" />
    <polygon
       class="st27"
       points="-1499.93,398.25 -1504.59,395.57 -1515.64,401.95 -1510.99,404.64 "
       id="polygon8192"
       style="fill:#a3a9ab"
       transform="matrix(0.26458333,0,0,0.26458333,415.66991,-93.648309)" />
    <polygon
       class="st29"
       points="-1510.99,404.64 -1515.64,401.95 -1521.07,411.32 -1516.42,414 "
       id="polygon8194"
       style="fill:#4c5456"
       transform="matrix(0.26458333,0,0,0.26458333,415.66991,-93.648309)" />
    <path
       class="st23"
       d="m 15.543183,11.518273 v 0.944563 c 0,0.08731 0.05821,0.171979 0.171979,0.238125 0.227542,0.132291 0.595313,0.132291 0.820208,0.0026 0.113771,-0.06615 0.169334,-0.150812 0.169334,-0.235479 V 11.52352 Z"
       id="path8196"
       style="fill:#33383a;stroke-width:0.264583" />
    <polygon
       class="st27"
       points="-1510.99,393.04 -1517.19,396.62 -1514.09,398.41 -1507.88,394.83 "
       id="polygon8198"
       style="fill:#a3a9ab"
       transform="matrix(0.26458333,0,0,0.26458333,415.66991,-93.648309)" />
    <polygon
       class="st36"
       points="-1510.99,401.96 -1510.99,400.18 -1507.88,398.39 -1507.88,394.83 -1514.09,398.41 -1514.09,403.75 "
       id="polygon8200"
       style="fill:#657073"
       transform="matrix(0.26458333,0,0,0.26458333,415.66991,-93.648309)" />
    <polygon
       class="st39"
       points="-1514.09,398.41 -1514.09,403.74 -1517.19,401.95 -1517.19,396.62 "
       id="polygon8202"
       style="fill:#424b4c"
       transform="matrix(0.26458333,0,0,0.26458333,415.66991,-93.648309)" />
    <polygon
       class="st36"
       points="-1510.99,371.01 -1510.99,373.68 -1528.44,383.76 -1528.44,381.09 "
       id="polygon8204"
       style="fill:#657073"
       transform="matrix(0.26458333,0,0,0.26458333,415.66991,-93.648309)" />
    <path
       class="st23"
       d="m 13.492662,8.4835014 1.862667,2.4632716 c 0.0291,0.03704 0.06879,0.07408 0.121708,0.103188 0.227542,0.132291 0.595313,0.132291 0.820208,0.0026 0.05292,-0.0291 0.09261,-0.0635 0.119063,-0.100541 l 1.862667,-2.4500426 z"
       id="path8206"
       style="fill:#33383a;stroke-width:0.264583" />
    <polygon
       class="st36"
       points="-1493.53,381.09 -1493.53,383.76 -1510.99,393.84 -1510.99,391.17 "
       id="polygon8208"
       style="fill:#657073"
       transform="matrix(0.26458333,0,0,0.26458333,415.66991,-93.648309)" />
    <polygon
       class="st27"
       points="-1493.53,381.09 -1510.99,371.01 -1528.44,381.09 -1510.99,391.17 "
       id="polygon8210"
       style="fill:#a3a9ab"
       transform="matrix(0.26458333,0,0,0.26458333,415.66991,-93.648309)" />
    <ellipse
       transform="rotate(-89.689343)"
       class="st36"
       cx="-7.1018362"
       cy="15.928436"
       rx="1.5081471"
       ry="2.6114757"
       id="ellipse8212"
       style="fill:#657073;stroke-width:0.264587" />
    <path
       class="st23"
       d="m 14.045641,8.2453764 c 1.023938,0.590021 2.677584,0.592667 3.693584,0.0079 0.351895,-0.203729 0.576791,-0.449792 0.68527,-0.709084 -0.108479,-0.261937 -0.341312,-0.510645 -0.695854,-0.71702 -1.023937,-0.5900211 -2.677583,-0.5926671 -3.693583,-0.0079 -0.34925,0.201083 -0.576792,0.447146 -0.685271,0.703792 0.108479,0.264583 0.338667,0.515937 0.695854,0.722312 z"
       id="path8214"
       style="fill:#33383a;stroke-width:0.264583" />
  </g>
</svg>
