<?xml version="1.0" encoding="UTF-8" standalone="no"?>
<svg
   xmlns:dc="http://purl.org/dc/elements/1.1/"
   xmlns:cc="http://creativecommons.org/ns#"
   xmlns:rdf="http://www.w3.org/1999/02/22-rdf-syntax-ns#"
   xmlns:svg="http://www.w3.org/2000/svg"
   xmlns="http://www.w3.org/2000/svg"
   xmlns:sodipodi="http://sodipodi.sourceforge.net/DTD/sodipodi-0.dtd"
   xmlns:inkscape="http://www.inkscape.org/namespaces/inkscape"
   width="23mm"
   height="23mm"
   viewBox="0 0 23 23"
   version="1.1"
   id="svg11418"
   inkscape:version="1.0.2 (e86c8708, 2021-01-15)"
   sodipodi:docname="distribution.svg">
  <defs
     id="defs11412" />
  <sodipodi:namedview
     id="base"
     pagecolor="#ffffff"
     bordercolor="#666666"
     borderopacity="1.0"
     inkscape:pageopacity="0.0"
     inkscape:pageshadow="2"
     inkscape:zoom="3.3063423"
     inkscape:cx="44.624683"
     inkscape:cy="77.408894"
     inkscape:document-units="mm"
     inkscape:current-layer="layer1"
     inkscape:document-rotation="0"
     showgrid="false"
     inkscape:window-width="1252"
     inkscape:window-height="847"
     inkscape:window-x="0"
     inkscape:window-y="25"
     inkscape:window-maximized="0" />
  <metadata
     id="metadata11415">
    <rdf:RDF>
      <cc:Work
         rdf:about="">
        <dc:format>image/svg+xml</dc:format>
        <dc:type
           rdf:resource="http://purl.org/dc/dcmitype/StillImage" />
        <dc:title></dc:title>
      </cc:Work>
    </rdf:RDF>
  </metadata>
  <g
     inkscape:label="Layer 1"
     inkscape:groupmode="layer"
     id="layer1">
    <polygon
       class="st40"
       points="-1435.36,440.94 -1437.58,439.66 -1406.89,421.93 -1404.67,423.22 "
       id="polygon8451"
       style="fill:#3f2223"
       transform="matrix(0.26458333,0,0,0.26458333,392.609,-93.933882)" />
    <polygon
       class="st41"
       points="-1437.58,440.3 -1435.36,441.58 -1435.36,440.94 -1437.58,439.66 "
       id="polygon8453"
       style="fill:#6c4a49"
       transform="matrix(0.26458333,0,0,0.26458333,392.609,-93.933882)" />
    <polygon
       class="st42"
       points="-1404.67,423.86 -1404.67,423.22 -1435.36,440.94 -1435.36,441.58 "
       id="polygon8455"
       style="fill:#563939"
       transform="matrix(0.26458333,0,0,0.26458333,392.609,-93.933882)" />
    <polygon
       class="st40"
       points="-1439.8,438.38 -1442.02,437.09 -1411.32,419.37 -1409.11,420.65 "
       id="polygon8457"
       style="fill:#3f2223"
       transform="matrix(0.26458333,0,0,0.26458333,392.609,-93.933882)" />
    <polygon
       class="st41"
       points="-1442.02,437.74 -1439.8,439.02 -1439.8,438.38 -1442.02,437.09 "
       id="polygon8459"
       style="fill:#6c4a49"
       transform="matrix(0.26458333,0,0,0.26458333,392.609,-93.933882)" />
    <polygon
       class="st42"
       points="-1409.11,421.3 -1409.11,420.65 -1439.8,438.38 -1439.8,439.02 "
       id="polygon8461"
       style="fill:#563939"
       transform="matrix(0.26458333,0,0,0.26458333,392.609,-93.933882)" />
    <polygon
       class="st40"
       points="-1444.24,435.81 -1446.45,434.53 -1415.76,416.81 -1413.54,418.09 "
       id="polygon8463"
       style="fill:#3f2223"
       transform="matrix(0.26458333,0,0,0.26458333,392.609,-93.933882)" />
    <polygon
       class="st41"
       points="-1446.45,435.18 -1444.24,436.46 -1444.24,435.81 -1446.45,434.53 "
       id="polygon8465"
       style="fill:#6c4a49"
       transform="matrix(0.26458333,0,0,0.26458333,392.609,-93.933882)" />
    <polygon
       class="st42"
       points="-1413.54,418.74 -1413.54,418.09 -1444.24,435.81 -1444.24,436.46 "
       id="polygon8467"
       style="fill:#563939"
       transform="matrix(0.26458333,0,0,0.26458333,392.609,-93.933882)" />
    <polygon
       class="st40"
       points="-1448.67,433.25 -1450.89,431.97 -1420.2,414.25 -1417.98,415.53 "
       id="polygon8469"
       style="fill:#3f2223"
       transform="matrix(0.26458333,0,0,0.26458333,392.609,-93.933882)" />
    <polygon
       class="st41"
       points="-1450.89,432.62 -1448.67,433.9 -1448.67,433.25 -1450.89,431.97 "
       id="polygon8471"
       style="fill:#6c4a49"
       transform="matrix(0.26458333,0,0,0.26458333,392.609,-93.933882)" />
    <polygon
       class="st42"
       points="-1417.98,416.18 -1417.98,415.53 -1448.67,433.25 -1448.67,433.9 "
       id="polygon8473"
       style="fill:#563939"
       transform="matrix(0.26458333,0,0,0.26458333,392.609,-93.933882)" />
    <polygon
       class="st40"
       points="-1453.11,430.69 -1455.33,429.41 -1424.63,411.69 -1422.41,412.97 "
       id="polygon8475"
       style="fill:#3f2223"
       transform="matrix(0.26458333,0,0,0.26458333,392.609,-93.933882)" />
    <polygon
       class="st41"
       points="-1455.33,430.06 -1453.11,431.34 -1453.11,430.69 -1455.33,429.41 "
       id="polygon8477"
       style="fill:#6c4a49"
       transform="matrix(0.26458333,0,0,0.26458333,392.609,-93.933882)" />
    <polygon
       class="st42"
       points="-1422.41,413.61 -1422.41,412.97 -1453.11,430.69 -1453.11,431.34 "
       id="polygon8479"
       style="fill:#563939"
       transform="matrix(0.26458333,0,0,0.26458333,392.609,-93.933882)" />
    <polygon
       class="st40"
       points="-1457.55,428.13 -1459.76,426.85 -1429.07,409.13 -1426.85,410.41 "
       id="polygon8481"
       style="fill:#3f2223"
       transform="matrix(0.26458333,0,0,0.26458333,392.609,-93.933882)" />
    <polygon
       class="st41"
       points="-1459.76,427.49 -1457.55,428.77 -1457.55,428.13 -1459.76,426.85 "
       id="polygon8483"
       style="fill:#6c4a49"
       transform="matrix(0.26458333,0,0,0.26458333,392.609,-93.933882)" />
    <polygon
       class="st42"
       points="-1426.85,411.05 -1426.85,410.41 -1457.55,428.13 -1457.55,428.77 "
       id="polygon8485"
       style="fill:#563939"
       transform="matrix(0.26458333,0,0,0.26458333,392.609,-93.933882)" />
    <polygon
       class="st40"
       points="-1461.98,425.57 -1464.2,424.29 -1433.51,406.57 -1431.29,407.85 "
       id="polygon8487"
       style="fill:#3f2223"
       transform="matrix(0.26458333,0,0,0.26458333,392.609,-93.933882)" />
    <polygon
       class="st41"
       points="-1464.2,424.93 -1461.98,426.21 -1461.98,425.57 -1464.2,424.29 "
       id="polygon8489"
       style="fill:#6c4a49"
       transform="matrix(0.26458333,0,0,0.26458333,392.609,-93.933882)" />
    <polygon
       class="st42"
       points="-1431.29,408.49 -1431.29,407.85 -1461.98,425.57 -1461.98,426.21 "
       id="polygon8491"
       style="fill:#563939"
       transform="matrix(0.26458333,0,0,0.26458333,392.609,-93.933882)" />
    <polygon
       class="st40"
       points="-1466.42,423.01 -1468.64,421.73 -1437.94,404.01 -1435.72,405.29 "
       id="polygon8493"
       style="fill:#3f2223"
       transform="matrix(0.26458333,0,0,0.26458333,392.609,-93.933882)" />
    <polygon
       class="st41"
       points="-1468.64,422.37 -1466.42,423.65 -1466.42,423.01 -1468.64,421.73 "
       id="polygon8495"
       style="fill:#6c4a49"
       transform="matrix(0.26458333,0,0,0.26458333,392.609,-93.933882)" />
    <polygon
       class="st42"
       points="-1435.72,405.93 -1435.72,405.29 -1466.42,423.01 -1466.42,423.65 "
       id="polygon8497"
       style="fill:#563939"
       transform="matrix(0.26458333,0,0,0.26458333,392.609,-93.933882)" />
    <polygon
       class="st40"
       points="-1470.85,420.45 -1473.07,419.17 -1442.38,401.44 -1440.16,402.72 "
       id="polygon8499"
       style="fill:#3f2223"
       transform="matrix(0.26458333,0,0,0.26458333,392.609,-93.933882)" />
    <polygon
       class="st41"
       points="-1473.07,419.81 -1470.85,421.09 -1470.85,420.45 -1473.07,419.17 "
       id="polygon8501"
       style="fill:#6c4a49"
       transform="matrix(0.26458333,0,0,0.26458333,392.609,-93.933882)" />
    <polygon
       class="st42"
       points="-1440.16,403.37 -1440.16,402.72 -1470.85,420.45 -1470.85,421.09 "
       id="polygon8503"
       style="fill:#563939"
       transform="matrix(0.26458333,0,0,0.26458333,392.609,-93.933882)" />
    <polygon
       class="st42"
       points="-1405.23,423.52 -1405.23,420.96 -1404.67,420.64 -1404.67,423.2 "
       id="polygon8505"
       style="fill:#563939"
       transform="matrix(0.26458333,0,0,0.26458333,392.609,-93.933882)" />
    <polygon
       class="st41"
       points="-1405.23,420.96 -1442.94,399.19 -1442.94,401.75 -1405.23,423.52 "
       id="polygon8507"
       style="fill:#6c4a49"
       transform="matrix(0.26458333,0,0,0.26458333,392.609,-93.933882)" />
    <polygon
       class="st42"
       points="-1435.36,440.94 -1435.36,438.38 -1434.81,438.05 -1434.81,440.61 "
       id="polygon8509"
       style="fill:#563939"
       transform="matrix(0.26458333,0,0,0.26458333,392.609,-93.933882)" />
    <polygon
       class="st41"
       points="-1435.36,438.38 -1473.07,416.6 -1473.07,419.17 -1435.36,440.94 "
       id="polygon8511"
       style="fill:#6c4a49"
       transform="matrix(0.26458333,0,0,0.26458333,392.609,-93.933882)" />
    <polygon
       class="st43"
       points="-1434.81,438.05 -1472.51,416.28 -1473.07,416.6 -1435.36,438.38 "
       id="polygon8513"
       style="fill:#997979"
       transform="matrix(0.26458333,0,0,0.26458333,392.609,-93.933882)" />
    <polygon
       class="st42"
       points="-1420.3,432.23 -1420.3,429.67 -1419.74,429.35 -1419.74,431.91 "
       id="polygon8515"
       style="fill:#563939"
       transform="matrix(0.26458333,0,0,0.26458333,392.609,-93.933882)" />
    <polygon
       class="st41"
       points="-1420.3,429.67 -1458,407.9 -1458,410.46 -1420.3,432.23 "
       id="polygon8517"
       style="fill:#6c4a49"
       transform="matrix(0.26458333,0,0,0.26458333,392.609,-93.933882)" />
    <polygon
       class="st43"
       points="-1435.36,437.72 -1437.58,436.44 -1406.89,418.72 -1404.67,420 "
       id="polygon8519"
       style="fill:#997979"
       transform="matrix(0.26458333,0,0,0.26458333,392.609,-93.933882)" />
    <polygon
       class="st41"
       points="-1437.58,437.08 -1435.36,438.36 -1435.36,437.72 -1437.58,436.44 "
       id="polygon8521"
       style="fill:#6c4a49"
       transform="matrix(0.26458333,0,0,0.26458333,392.609,-93.933882)" />
    <polygon
       class="st42"
       points="-1404.67,420.64 -1404.67,420 -1435.36,437.72 -1435.36,438.36 "
       id="polygon8523"
       style="fill:#563939"
       transform="matrix(0.26458333,0,0,0.26458333,392.609,-93.933882)" />
    <polygon
       class="st43"
       points="-1439.8,435.16 -1442.02,433.88 -1411.32,416.15 -1409.11,417.43 "
       id="polygon8525"
       style="fill:#997979"
       transform="matrix(0.26458333,0,0,0.26458333,392.609,-93.933882)" />
    <polygon
       class="st41"
       points="-1442.02,434.52 -1439.8,435.8 -1439.8,435.16 -1442.02,433.88 "
       id="polygon8527"
       style="fill:#6c4a49"
       transform="matrix(0.26458333,0,0,0.26458333,392.609,-93.933882)" />
    <polygon
       class="st42"
       points="-1409.11,418.08 -1409.11,417.43 -1439.8,435.16 -1439.8,435.8 "
       id="polygon8529"
       style="fill:#563939"
       transform="matrix(0.26458333,0,0,0.26458333,392.609,-93.933882)" />
    <polygon
       class="st43"
       points="-1444.24,432.6 -1446.45,431.31 -1415.76,413.59 -1413.54,414.87 "
       id="polygon8531"
       style="fill:#997979"
       transform="matrix(0.26458333,0,0,0.26458333,392.609,-93.933882)" />
    <polygon
       class="st41"
       points="-1446.45,431.96 -1444.24,433.24 -1444.24,432.6 -1446.45,431.31 "
       id="polygon8533"
       style="fill:#6c4a49"
       transform="matrix(0.26458333,0,0,0.26458333,392.609,-93.933882)" />
    <polygon
       class="st42"
       points="-1413.54,415.52 -1413.54,414.87 -1444.24,432.6 -1444.24,433.24 "
       id="polygon8535"
       style="fill:#563939"
       transform="matrix(0.26458333,0,0,0.26458333,392.609,-93.933882)" />
    <polygon
       class="st43"
       points="-1448.67,430.03 -1450.89,428.75 -1420.2,411.03 -1417.98,412.31 "
       id="polygon8537"
       style="fill:#997979"
       transform="matrix(0.26458333,0,0,0.26458333,392.609,-93.933882)" />
    <polygon
       class="st41"
       points="-1450.89,429.4 -1448.67,430.68 -1448.67,430.03 -1450.89,428.75 "
       id="polygon8539"
       style="fill:#6c4a49"
       transform="matrix(0.26458333,0,0,0.26458333,392.609,-93.933882)" />
    <polygon
       class="st42"
       points="-1417.98,412.96 -1417.98,412.31 -1448.67,430.03 -1448.67,430.68 "
       id="polygon8541"
       style="fill:#563939"
       transform="matrix(0.26458333,0,0,0.26458333,392.609,-93.933882)" />
    <polygon
       class="st43"
       points="-1453.11,427.47 -1455.33,426.19 -1424.63,408.47 -1422.41,409.75 "
       id="polygon8543"
       style="fill:#997979"
       transform="matrix(0.26458333,0,0,0.26458333,392.609,-93.933882)" />
    <polygon
       class="st41"
       points="-1455.33,426.84 -1453.11,428.12 -1453.11,427.47 -1455.33,426.19 "
       id="polygon8545"
       style="fill:#6c4a49"
       transform="matrix(0.26458333,0,0,0.26458333,392.609,-93.933882)" />
    <polygon
       class="st42"
       points="-1422.41,410.4 -1422.41,409.75 -1453.11,427.47 -1453.11,428.12 "
       id="polygon8547"
       style="fill:#563939"
       transform="matrix(0.26458333,0,0,0.26458333,392.609,-93.933882)" />
    <polygon
       class="st43"
       points="-1457.55,424.91 -1459.76,423.63 -1429.07,405.91 -1426.85,407.19 "
       id="polygon8549"
       style="fill:#997979"
       transform="matrix(0.26458333,0,0,0.26458333,392.609,-93.933882)" />
    <polygon
       class="st41"
       points="-1459.76,424.27 -1457.55,425.56 -1457.55,424.91 -1459.76,423.63 "
       id="polygon8551"
       style="fill:#6c4a49"
       transform="matrix(0.26458333,0,0,0.26458333,392.609,-93.933882)" />
    <polygon
       class="st42"
       points="-1426.85,407.83 -1426.85,407.19 -1457.55,424.91 -1457.55,425.56 "
       id="polygon8553"
       style="fill:#563939"
       transform="matrix(0.26458333,0,0,0.26458333,392.609,-93.933882)" />
    <polygon
       class="st43"
       points="-1461.98,422.35 -1464.2,421.07 -1433.51,403.35 -1431.29,404.63 "
       id="polygon8555"
       style="fill:#997979"
       transform="matrix(0.26458333,0,0,0.26458333,392.609,-93.933882)" />
    <polygon
       class="st41"
       points="-1464.2,421.71 -1461.98,422.99 -1461.98,422.35 -1464.2,421.07 "
       id="polygon8557"
       style="fill:#6c4a49"
       transform="matrix(0.26458333,0,0,0.26458333,392.609,-93.933882)" />
    <polygon
       class="st42"
       points="-1431.29,405.27 -1431.29,404.63 -1461.98,422.35 -1461.98,422.99 "
       id="polygon8559"
       style="fill:#563939"
       transform="matrix(0.26458333,0,0,0.26458333,392.609,-93.933882)" />
    <polygon
       class="st43"
       points="-1466.42,419.79 -1468.64,418.51 -1437.94,400.79 -1435.72,402.07 "
       id="polygon8561"
       style="fill:#997979"
       transform="matrix(0.26458333,0,0,0.26458333,392.609,-93.933882)" />
    <polygon
       class="st41"
       points="-1468.64,419.15 -1466.42,420.43 -1466.42,419.79 -1468.64,418.51 "
       id="polygon8563"
       style="fill:#6c4a49"
       transform="matrix(0.26458333,0,0,0.26458333,392.609,-93.933882)" />
    <polygon
       class="st42"
       points="-1435.72,402.71 -1435.72,402.07 -1466.42,419.79 -1466.42,420.43 "
       id="polygon8565"
       style="fill:#563939"
       transform="matrix(0.26458333,0,0,0.26458333,392.609,-93.933882)" />
    <polygon
       class="st43"
       points="-1470.85,417.23 -1473.07,415.95 -1442.38,398.22 -1440.16,399.51 "
       id="polygon8567"
       style="fill:#997979"
       transform="matrix(0.26458333,0,0,0.26458333,392.609,-93.933882)" />
    <polygon
       class="st41"
       points="-1473.07,416.59 -1470.85,417.87 -1470.85,417.23 -1473.07,415.95 "
       id="polygon8569"
       style="fill:#6c4a49"
       transform="matrix(0.26458333,0,0,0.26458333,392.609,-93.933882)" />
    <polygon
       class="st42"
       points="-1440.16,400.15 -1440.16,399.51 -1470.85,417.23 -1470.85,417.87 "
       id="polygon8571"
       style="fill:#563939"
       transform="matrix(0.26458333,0,0,0.26458333,392.609,-93.933882)" />
    <polygon
       class="st44"
       points="-1435.18,419.16 -1435.18,423.01 -1418.44,413.34 -1418.44,409.5 "
       id="polygon8573"
       style="fill:#cfd8dc"
       transform="matrix(0.26458333,0,0,0.26458333,392.609,-93.933882)" />
    <path
       class="st30"
       d="m 17.18377,14.637883 c -0.07937,-0.0476 -0.1905,-0.0397 -0.314855,0.0318 l -3.54277,2.04523 c -0.243417,0.14023 -0.441855,0.48419 -0.441855,0.76465 0,0.14023 0.05027,0.23812 0.129646,0.2831 l 2.934229,1.69334 4.17248,-3.12473 z"
       id="path8575"
       style="fill:#d9a13f;stroke-width:0.264583" />
    <path
       class="st45"
       d="m 16.260374,18.408203 3.542771,-2.04523 c 0.121708,-0.0714 0.232833,-0.0767 0.314854,-0.0317 0.07937,0.045 0.129646,0.14287 0.129646,0.2831 0,0.28046 -0.198438,0.62177 -0.441855,0.76465 l -3.54277,2.04523 c -0.121709,0.0714 -0.232834,0.0767 -0.314855,0.0318 -0.07937,-0.045 -0.129645,-0.14288 -0.129645,-0.28311 0,-0.28046 0.198437,-0.62177 0.441854,-0.76464 z"
       id="path8577"
       style="fill:#cc9332;stroke-width:0.264583" />
    <path
       class="st45"
       d="m 10.574478,15.825863 -3.6274366,-2.0955 c -0.121709,-0.0714 -0.232834,-0.0767 -0.314855,-0.0317 l -2.934229,1.69334 4.257146,3.175 2.9342286,-1.69334 c 0.07937,-0.045 0.129646,-0.14287 0.129646,-0.2831 -0.0026,-0.2831 -0.201083,-0.62442 -0.4445,-0.76465 z"
       id="path8579"
       style="fill:#cc9332;stroke-width:0.264583" />
    <path
       class="st31"
       d="m 7.6402494,17.519203 -3.630083,-2.0955 c -0.121709,-0.0714 -0.232834,-0.0767 -0.314855,-0.0318 -0.07937,0.045 -0.129645,0.14287 -0.129645,0.2831 0,0.28046 0.198437,0.62177 0.441854,0.76465 l 3.630083,2.0955 c 0.121708,0.0714 0.232833,0.0767 0.314854,0.0318 0.07937,-0.045 0.129646,-0.14288 0.129646,-0.28311 0,-0.28046 -0.198437,-0.62441 -0.441854,-0.76464 z"
       id="path8581"
       style="fill:#b2711e;stroke-width:0.264583" />
    <path
       class="st30"
       d="m 15.204686,18.506093 -3.627437,-2.0955 c -0.121709,-0.0714 -0.232834,-0.0767 -0.314854,-0.0318 l -2.9342286,1.69334 4.2571446,3.175 2.934229,-1.69334 c 0.07937,-0.045 0.129646,-0.14287 0.129646,-0.2831 -0.0026,-0.28046 -0.201083,-0.62177 -0.4445,-0.76465 z"
       id="path8583"
       style="fill:#d9a13f;stroke-width:0.264583" />
    <path
       class="st31"
       d="m 12.270457,20.202073 -3.6300826,-2.0955 c -0.121708,-0.0714 -0.232833,-0.0767 -0.314854,-0.0317 -0.07937,0.045 -0.129646,0.14288 -0.129646,0.28311 0,0.28045 0.198437,0.62177 0.441854,0.76464 l 3.6300826,2.0955 c 0.121709,0.0714 0.232834,0.0767 0.314854,0.0318 0.07937,-0.045 0.129646,-0.14287 0.129646,-0.2831 0,-0.28311 -0.198437,-0.62442 -0.441854,-0.76465 z"
       id="path8585"
       style="fill:#b2711e;stroke-width:0.264583" />
    <path
       class="st32"
       d="m 19.803145,14.762243 -3.627438,-2.0955 c -0.121708,-0.0714 -0.232833,-0.0767 -0.314854,-0.0317 l -2.934229,1.69333 4.257146,3.175 2.934229,-1.69333 c 0.07937,-0.045 0.129646,-0.14288 0.129646,-0.28311 0,-0.28045 -0.198438,-0.62177 -0.4445,-0.76464 z"
       id="path8587"
       style="fill:#e6ad3d;stroke-width:0.264583" />
    <path
       class="st31"
       d="m 16.868915,16.458223 -3.630083,-2.0955 c -0.121708,-0.0714 -0.232833,-0.0767 -0.314854,-0.0318 -0.07937,0.045 -0.129646,0.14287 -0.129646,0.2831 0,0.28046 0.198438,0.62177 0.441854,0.76465 l 3.630084,2.0955 c 0.121708,0.0714 0.232833,0.0767 0.314854,0.0317 0.07937,-0.045 0.129646,-0.14288 0.129646,-0.28311 0.0026,-0.2831 -0.195792,-0.62441 -0.441855,-0.76464 z"
       id="path8589"
       style="fill:#b2711e;stroke-width:0.264583" />
    <path
       class="st32"
       d="m 7.8677914,11.648093 c -0.07937,-0.0476 -0.1905,-0.0397 -0.314855,0.0318 l -3.54277,2.04523 c -0.243417,0.14023 -0.441855,0.48419 -0.441855,0.76465 0,0.14023 0.05027,0.23812 0.129646,0.2831 l 2.934229,1.69334 4.1724786,-3.12473 z"
       id="path8591"
       style="fill:#e6ad3d;stroke-width:0.264583" />
    <path
       class="st45"
       d="m 6.9470414,15.421053 3.5427696,-2.04523 c 0.121709,-0.0714 0.232834,-0.0767 0.314854,-0.0317 0.07937,0.045 0.129646,0.14288 0.129646,0.28311 0,0.28045 -0.198437,0.62177 -0.441854,0.76464 l -3.5427706,2.04523 c -0.121708,0.0714 -0.232833,0.0767 -0.314854,0.0318 -0.07937,-0.045 -0.129646,-0.14287 -0.129646,-0.2831 -0.0026,-0.28311 0.195792,-0.62442 0.441855,-0.76465 z"
       id="path8593"
       style="fill:#cc9332;stroke-width:0.264583" />
    <path
       class="st32"
       d="m 10.973999,13.444613 c -0.07938,-0.0476 -0.1905,-0.0397 -0.314854,0.0318 l -3.5427706,2.04523 c -0.243417,0.14023 -0.441854,0.48419 -0.441854,0.76465 0,0.14023 0.05027,0.23812 0.129646,0.2831 l 2.934229,1.69334 4.1724786,-3.12473 z"
       id="path8595"
       style="fill:#e6ad3d;stroke-width:0.264583" />
    <path
       class="st45"
       d="m 10.050603,17.217573 3.542771,-2.04523 c 0.121708,-0.0714 0.232833,-0.0767 0.314854,-0.0317 0.07938,0.045 0.129646,0.14288 0.129646,0.28311 0,0.28046 -0.198438,0.62177 -0.441854,0.76464 l -3.542771,2.04523 c -0.1217086,0.0714 -0.2328336,0.0767 -0.3148536,0.0318 -0.07937,-0.045 -0.129646,-0.14287 -0.129646,-0.2831 0,-0.28046 0.198437,-0.62442 0.4418536,-0.76465 z"
       id="path8597"
       style="fill:#cc9332;stroke-width:0.264583" />
    <path
       class="st32"
       d="m 14.080207,15.243783 c -0.07937,-0.0476 -0.1905,-0.0397 -0.314854,0.0317 l -3.542771,2.04523 c -0.2434166,0.14023 -0.4418536,0.48419 -0.4418536,0.76465 0,0.14022 0.05027,0.23812 0.129646,0.2831 l 2.9342286,1.69333 4.172479,-3.12473 z"
       id="path8599"
       style="fill:#e6ad3d;stroke-width:0.264583" />
    <path
       class="st45"
       d="m 13.156811,19.014093 3.542771,-2.04523 c 0.121708,-0.0714 0.232833,-0.0767 0.314854,-0.0318 0.07937,0.045 0.129646,0.14288 0.129646,0.28311 0,0.28046 -0.198437,0.62177 -0.441854,0.76464 l -3.542771,2.04523 c -0.121708,0.0714 -0.232833,0.0767 -0.314854,0.0317 -0.07938,-0.045 -0.129646,-0.14287 -0.129646,-0.2831 -0.0026,-0.28046 0.195792,-0.62442 0.441854,-0.76465 z"
       id="path8601"
       style="fill:#cc9332;stroke-width:0.264583" />
    <polygon
       class="st44"
       points="-1435.18,410.19 -1435.18,414.03 -1418.44,404.37 -1418.44,400.53 "
       id="polygon8603"
       style="fill:#cfd8dc"
       transform="matrix(0.26458333,0,0,0.26458333,392.609,-93.933882)" />
    <polygon
       class="st44"
       points="-1435.18,410.19 -1435.18,414.03 -1418.44,404.37 -1418.44,400.53 "
       id="polygon8605"
       style="fill:#cfd8dc"
       transform="matrix(0.26458333,0,0,0.26458333,392.609,-93.933882)" />
    <path
       class="st30"
       d="m 17.18377,12.261933 c -0.07937,-0.0476 -0.1905,-0.0397 -0.314855,0.0318 l -3.54277,2.04523 c -0.243417,0.14022 -0.441855,0.48418 -0.441855,0.76464 0,0.14023 0.05027,0.23813 0.129646,0.28311 l 2.934229,1.69333 4.17248,-3.12473 z"
       id="path8607"
       style="fill:#d9a13f;stroke-width:0.264583" />
    <path
       class="st45"
       d="m 16.260374,16.034883 3.542771,-2.04522 c 0.121708,-0.0714 0.232833,-0.0767 0.314854,-0.0318 0.07937,0.045 0.129646,0.14287 0.129646,0.2831 0,0.28046 -0.198438,0.62177 -0.441855,0.76465 l -3.54277,2.04522 c -0.121709,0.0714 -0.232834,0.0767 -0.314855,0.0318 -0.07937,-0.045 -0.129645,-0.14287 -0.129645,-0.2831 0,-0.28046 0.198437,-0.62442 0.441854,-0.76465 z"
       id="path8609"
       style="fill:#cc9332;stroke-width:0.264583" />
    <path
       class="st45"
       d="m 10.574478,13.449913 -3.6274366,-2.0955 c -0.121709,-0.0714 -0.232834,-0.0767 -0.314855,-0.0318 l -2.934229,1.69333 4.257146,3.175 2.9342286,-1.69333 c 0.07937,-0.045 0.129646,-0.14288 0.129646,-0.28311 -0.0026,-0.28046 -0.201083,-0.62177 -0.4445,-0.76464 z"
       id="path8611"
       style="fill:#cc9332;stroke-width:0.264583" />
    <path
       class="st31"
       d="m 7.6402494,15.145883 -3.630083,-2.0955 c -0.121709,-0.0714 -0.232834,-0.0767 -0.314855,-0.0317 -0.07937,0.045 -0.129645,0.14288 -0.129645,0.28311 0,0.28046 0.198437,0.62177 0.441854,0.76464 l 3.630083,2.0955 c 0.121708,0.0714 0.232833,0.0767 0.314854,0.0318 0.07937,-0.045 0.129646,-0.14287 0.129646,-0.2831 0,-0.2831 -0.198437,-0.62442 -0.441854,-0.76465 z"
       id="path8613"
       style="fill:#b2711e;stroke-width:0.264583" />
    <path
       class="st30"
       d="m 15.204686,16.132783 -3.627437,-2.0955 c -0.121709,-0.0714 -0.232834,-0.0767 -0.314854,-0.0318 l -2.9342286,1.69333 4.2571446,3.175 2.934229,-1.69333 c 0.07937,-0.045 0.129646,-0.14287 0.129646,-0.2831 -0.0026,-0.28046 -0.201083,-0.62442 -0.4445,-0.76465 z"
       id="path8615"
       style="fill:#d9a13f;stroke-width:0.264583" />
    <path
       class="st31"
       d="m 12.270457,17.826113 -3.6300826,-2.0955 c -0.121708,-0.0714 -0.232833,-0.0767 -0.314854,-0.0318 -0.07937,0.045 -0.129646,0.14288 -0.129646,0.28311 0,0.28046 0.198437,0.62177 0.441854,0.76464 l 3.6300826,2.0955 c 0.121709,0.0714 0.232834,0.0767 0.314854,0.0318 0.07937,-0.045 0.129646,-0.14287 0.129646,-0.2831 0,-0.28046 -0.198437,-0.62177 -0.441854,-0.76465 z"
       id="path8617"
       style="fill:#b2711e;stroke-width:0.264583" />
    <path
       class="st32"
       d="m 19.803145,12.388933 -3.627438,-2.0955 c -0.121708,-0.0714 -0.232833,-0.0767 -0.314854,-0.0318 l -2.934229,1.69333 4.257146,3.175 2.934229,-1.69333 c 0.07937,-0.045 0.129646,-0.14288 0.129646,-0.28311 0,-0.28046 -0.198438,-0.62441 -0.4445,-0.76464 z"
       id="path8619"
       style="fill:#e6ad3d;stroke-width:0.264583" />
    <path
       class="st31"
       d="m 16.868915,14.082263 -3.630083,-2.0955 c -0.121708,-0.0714 -0.232833,-0.0767 -0.314854,-0.0317 -0.07937,0.045 -0.129646,0.14287 -0.129646,0.2831 0,0.28046 0.198438,0.62177 0.441854,0.76465 l 3.630084,2.0955 c 0.121708,0.0714 0.232833,0.0767 0.314854,0.0318 0.07937,-0.045 0.129646,-0.14288 0.129646,-0.2831 0.0026,-0.28046 -0.195792,-0.62178 -0.441855,-0.76465 z"
       id="path8621"
       style="fill:#b2711e;stroke-width:0.264583" />
    <path
       class="st32"
       d="m 7.8677914,9.2747824 c -0.07937,-0.0476 -0.1905,-0.0397 -0.314855,0.0318 l -3.54277,2.0452306 c -0.243417,0.14023 -0.441855,0.48419 -0.441855,0.76465 0,0.14022 0.05027,0.23812 0.129646,0.2831 l 2.934229,1.69333 4.1724786,-3.12473 z"
       id="path8623"
       style="fill:#e6ad3d;stroke-width:0.264583" />
    <path
       class="st45"
       d="m 6.9470414,13.045093 3.5427696,-2.04523 c 0.121709,-0.0714 0.232834,-0.0767 0.314854,-0.0318 0.07937,0.045 0.129646,0.14288 0.129646,0.28311 0,0.28046 -0.198437,0.62177 -0.441854,0.76464 l -3.5427706,2.04523 c -0.121708,0.0714 -0.232833,0.0767 -0.314854,0.0318 -0.07937,-0.045 -0.129646,-0.14287 -0.129646,-0.2831 -0.0026,-0.28046 0.195792,-0.62177 0.441855,-0.76465 z"
       id="path8625"
       style="fill:#cc9332;stroke-width:0.264583" />
    <path
       class="st32"
       d="m 10.973999,11.071303 c -0.07938,-0.0476 -0.1905,-0.0397 -0.314854,0.0318 l -3.5427706,2.04523 c -0.243417,0.14023 -0.441854,0.48419 -0.441854,0.76465 0,0.14023 0.05027,0.23812 0.129646,0.2831 l 2.934229,1.69333 4.1724786,-3.12473 z"
       id="path8627"
       style="fill:#e6ad3d;stroke-width:0.264583" />
    <path
       class="st45"
       d="m 10.050603,14.844263 3.542771,-2.04523 c 0.121708,-0.0714 0.232833,-0.0767 0.314854,-0.0318 0.07938,0.045 0.129646,0.14288 0.129646,0.2831 0,0.28046 -0.198438,0.62178 -0.441854,0.76465 l -3.542771,2.04523 c -0.1217086,0.0714 -0.2328336,0.0767 -0.3148536,0.0318 -0.07937,-0.045 -0.129646,-0.14288 -0.129646,-0.2831 0,-0.28311 0.198437,-0.62442 0.4418536,-0.76465 z"
       id="path8629"
       style="fill:#cc9332;stroke-width:0.264583" />
    <path
       class="st32"
       d="m 14.080207,12.867823 c -0.07937,-0.0476 -0.1905,-0.0397 -0.314854,0.0318 l -3.542771,2.04523 c -0.2434166,0.14023 -0.4418536,0.48419 -0.4418536,0.76465 0,0.14023 0.05027,0.23812 0.129646,0.2831 l 2.9342286,1.69333 4.172479,-3.12472 z"
       id="path8631"
       style="fill:#e6ad3d;stroke-width:0.264583" />
    <path
       class="st45"
       d="m 13.156811,16.640783 3.542771,-2.04523 c 0.121708,-0.0714 0.232833,-0.0767 0.314854,-0.0318 0.07937,0.045 0.129646,0.14288 0.129646,0.28311 0,0.28045 -0.198437,0.62177 -0.441854,0.76464 l -3.542771,2.04523 c -0.121708,0.0714 -0.232833,0.0767 -0.314854,0.0318 -0.07938,-0.045 -0.129646,-0.14287 -0.129646,-0.2831 -0.0026,-0.28311 0.195792,-0.62442 0.441854,-0.76465 z"
       id="path8633"
       style="fill:#cc9332;stroke-width:0.264583" />
    <polygon
       class="st44"
       points="-1435.18,401.22 -1435.18,405.06 -1418.44,395.4 -1418.44,391.55 "
       id="polygon8635"
       style="fill:#cfd8dc"
       transform="matrix(0.26458333,0,0,0.26458333,392.609,-93.933882)" />
    <path
       class="st30"
       d="m 17.18377,9.8886124 c -0.07937,-0.0476 -0.1905,-0.0397 -0.314855,0.0318 l -3.54277,2.0452306 c -0.243417,0.14023 -0.441855,0.48419 -0.441855,0.76465 0,0.14023 0.05027,0.23812 0.129646,0.2831 l 2.934229,1.69334 4.17248,-3.12473 z"
       id="path8637"
       style="fill:#d9a13f;stroke-width:0.264583" />
    <path
       class="st45"
       d="m 16.260374,13.661573 3.542771,-2.04523 c 0.121708,-0.0714 0.232833,-0.0767 0.314854,-0.0318 0.07937,0.045 0.129646,0.14288 0.129646,0.28311 0,0.28046 -0.198438,0.62177 -0.441855,0.76464 l -3.54277,2.04523 c -0.121709,0.0714 -0.232834,0.0767 -0.314855,0.0317 -0.07937,-0.045 -0.129645,-0.14287 -0.129645,-0.2831 0,-0.28311 0.198437,-0.62442 0.441854,-0.76465 z"
       id="path8639"
       style="fill:#cc9332;stroke-width:0.264583" />
    <path
       class="st45"
       d="M 10.574478,11.076593 6.9470414,8.9810924 c -0.121709,-0.0714 -0.232834,-0.0767 -0.314855,-0.0318 l -2.934229,1.6933406 4.257146,3.175 2.9342286,-1.69334 c 0.07937,-0.045 0.129646,-0.14287 0.129646,-0.2831 -0.0026,-0.28046 -0.201083,-0.62177 -0.4445,-0.76465 z"
       id="path8641"
       style="fill:#cc9332;stroke-width:0.264583" />
    <path
       class="st31"
       d="m 7.6402494,12.772573 -3.630083,-2.0955 c -0.121709,-0.0714 -0.232834,-0.0767 -0.314855,-0.0318 -0.07937,0.045 -0.129645,0.14288 -0.129645,0.28311 0,0.28045 0.198437,0.62177 0.441854,0.76464 l 3.630083,2.0955 c 0.121708,0.0714 0.232833,0.0767 0.314854,0.0318 0.07937,-0.045 0.129646,-0.14287 0.129646,-0.2831 0,-0.28311 -0.198437,-0.62442 -0.441854,-0.76465 z"
       id="path8643"
       style="fill:#b2711e;stroke-width:0.264583" />
    <path
       class="st30"
       d="m 15.204686,13.759473 -3.627437,-2.0955 c -0.121709,-0.0714 -0.232834,-0.0767 -0.314854,-0.0318 l -2.9342286,1.69333 4.2571446,3.175 2.934229,-1.69333 c 0.07937,-0.045 0.129646,-0.14288 0.129646,-0.28311 -0.0026,-0.2831 -0.201083,-0.62441 -0.4445,-0.76464 z"
       id="path8645"
       style="fill:#d9a13f;stroke-width:0.264583" />
    <path
       class="st31"
       d="m 12.270457,15.452803 -3.6300826,-2.0955 c -0.121708,-0.0714 -0.232833,-0.0767 -0.314854,-0.0318 -0.07937,0.045 -0.129646,0.14288 -0.129646,0.28311 0,0.28045 0.198437,0.62177 0.441854,0.76464 l 3.6300826,2.0955 c 0.121709,0.0714 0.232834,0.0767 0.314854,0.0317 0.07937,-0.045 0.129646,-0.14287 0.129646,-0.2831 0,-0.28046 -0.198437,-0.62177 -0.441854,-0.76465 z"
       id="path8647"
       style="fill:#b2711e;stroke-width:0.264583" />
    <path
       class="st32"
       d="M 19.803145,10.015612 16.175707,7.9201161 c -0.121708,-0.07144 -0.232833,-0.07673 -0.314854,-0.03175 l -2.934229,1.6933363 4.257146,3.1750006 2.934229,-1.69334 c 0.07937,-0.045 0.129646,-0.14287 0.129646,-0.2831 0,-0.2831 -0.198438,-0.624421 -0.4445,-0.764651 z"
       id="path8649"
       style="fill:#e6ad3d;stroke-width:0.264583" />
    <path
       class="st31"
       d="M 16.868915,11.708953 13.238832,9.6134524 c -0.121708,-0.0714 -0.232833,-0.0767 -0.314854,-0.0318 -0.07937,0.045 -0.129646,0.14287 -0.129646,0.2831 0,0.2804596 0.198438,0.6217706 0.441854,0.7646506 l 3.630084,2.0955 c 0.121708,0.0714 0.232833,0.0767 0.314854,0.0318 0.07937,-0.045 0.129646,-0.14288 0.129646,-0.28311 0.0026,-0.28046 -0.195792,-0.62441 -0.441855,-0.76464 z"
       id="path8651"
       style="fill:#b2711e;stroke-width:0.264583" />
    <path
       class="st32"
       d="m 7.8677914,6.9014701 c -0.07937,-0.04762 -0.1905,-0.03969 -0.314855,0.03175 l -3.54277,2.0452323 c -0.243417,0.14023 -0.441855,0.48418 -0.441855,0.76464 0,0.14023 0.05027,0.23813 0.129646,0.2831096 l 2.934229,1.693331 4.1724786,-3.1247299 z"
       id="path8653"
       style="fill:#e6ad3d;stroke-width:0.264583" />
    <path
       class="st45"
       d="M 6.9470414,10.671783 10.489811,8.6265531 c 0.121709,-0.07144 0.232834,-0.07673 0.314854,-0.03175 0.07937,0.04498 0.129646,0.142875 0.129646,0.2831093 0,0.28045 -0.198437,0.62177 -0.441854,0.76464 L 6.9496864,11.687783 c -0.121708,0.0714 -0.232833,0.0767 -0.314854,0.0318 -0.07937,-0.045 -0.129646,-0.14287 -0.129646,-0.2831 -0.0026,-0.28046 0.195792,-0.62442 0.441855,-0.76465 z"
       id="path8655"
       style="fill:#cc9332;stroke-width:0.264583" />
    <path
       class="st32"
       d="m 10.973999,8.6979911 c -0.07938,-0.04762 -0.1905,-0.03969 -0.314854,0.03175 L 7.1163744,10.774973 c -0.243417,0.14023 -0.441854,0.48419 -0.441854,0.76464 0,0.14023 0.05027,0.23813 0.129646,0.28311 l 2.934229,1.69333 4.1724786,-3.12473 z"
       id="path8657"
       style="fill:#e6ad3d;stroke-width:0.264583" />
    <path
       class="st45"
       d="m 10.050603,12.468303 3.542771,-2.04523 c 0.121708,-0.0714 0.232833,-0.0767 0.314854,-0.0318 0.07938,0.045 0.129646,0.14288 0.129646,0.28311 0,0.28045 -0.198438,0.62177 -0.441854,0.76464 l -3.542771,2.04523 c -0.1217086,0.0714 -0.2328336,0.0767 -0.3148536,0.0318 -0.07937,-0.045 -0.129646,-0.14287 -0.129646,-0.2831 0,-0.28046 0.198437,-0.62177 0.4418536,-0.76465 z"
       id="path8659"
       style="fill:#cc9332;stroke-width:0.264583" />
    <path
       class="st32"
       d="m 14.080207,10.494513 c -0.07937,-0.0476 -0.1905,-0.0397 -0.314854,0.0318 l -3.542771,2.04523 c -0.2434166,0.14023 -0.4418536,0.48419 -0.4418536,0.76464 0,0.14023 0.05027,0.23813 0.129646,0.28311 l 2.9342286,1.69333 4.172479,-3.12473 z"
       id="path8661"
       style="fill:#e6ad3d;stroke-width:0.264583" />
    <path
       class="st45"
       d="m 13.156811,14.264823 3.542771,-2.04523 c 0.121708,-0.0714 0.232833,-0.0767 0.314854,-0.0318 0.07937,0.045 0.129646,0.14288 0.129646,0.28311 0,0.28046 -0.198437,0.62177 -0.441854,0.76464 l -3.542771,2.04523 c -0.121708,0.0714 -0.232833,0.0767 -0.314854,0.0318 -0.07938,-0.045 -0.129646,-0.14287 -0.129646,-0.2831 -0.0026,-0.28046 0.195792,-0.62177 0.441854,-0.76465 z"
       id="path8663"
       style="fill:#cc9332;stroke-width:0.264583" />
    <polygon
       class="st44"
       points="-1435.18,392.25 -1435.18,396.09 -1418.44,386.42 -1418.44,382.58 "
       id="polygon8665"
       style="fill:#cfd8dc"
       transform="matrix(0.26458333,0,0,0.26458333,392.609,-93.933882)" />
    <path
       class="st30"
       d="m 17.18377,7.5153031 c -0.07937,-0.04762 -0.1905,-0.03969 -0.314855,0.03175 l -3.54277,2.0452293 c -0.243417,0.14023 -0.441855,0.4841896 -0.441855,0.7646506 0,0.14023 0.05027,0.23812 0.129646,0.2831 l 2.934229,1.69333 4.17248,-3.1247306 z"
       id="path8667"
       style="fill:#d9a13f;stroke-width:0.264583" />
    <path
       class="st45"
       d="m 16.260374,11.285613 3.542771,-2.0452306 c 0.121708,-0.0714 0.232833,-0.0767 0.314854,-0.0318 0.07937,0.045 0.129646,0.14288 0.129646,0.28311 0,0.28046 -0.198438,0.6217696 -0.441855,0.7646406 l -3.54277,2.04523 c -0.121709,0.0714 -0.232834,0.0767 -0.314855,0.0318 -0.07937,-0.045 -0.129645,-0.14287 -0.129645,-0.2831 0,-0.28046 0.198437,-0.62177 0.441854,-0.76465 z"
       id="path8669"
       style="fill:#cc9332;stroke-width:0.264583" />
    <path
       class="st45"
       d="m 10.574478,8.7032831 -3.6274366,-2.0955 c -0.121709,-0.07144 -0.232834,-0.07673 -0.314855,-0.03175 l -2.934229,1.693333 4.257146,3.1749969 2.9342286,-1.6933306 c 0.07937,-0.045 0.129646,-0.14287 0.129646,-0.2831 -0.0026,-0.28046 -0.201083,-0.62442 -0.4445,-0.7646493 z"
       id="path8671"
       style="fill:#cc9332;stroke-width:0.264583" />
    <path
       class="st31"
       d="M 7.6402494,10.396613 4.0101664,8.3011161 c -0.121709,-0.07144 -0.232834,-0.07673 -0.314855,-0.03175 -0.07937,0.04498 -0.129645,0.142875 -0.129645,0.283104 0,0.2804583 0.198437,0.6217723 0.441854,0.7646423 l 3.630083,2.0955006 c 0.121708,0.0714 0.232833,0.0767 0.314854,0.0317 0.07937,-0.045 0.129646,-0.14287 0.129646,-0.2831 0,-0.28046 -0.198437,-0.62177 -0.441854,-0.76465 z"
       id="path8673"
       style="fill:#b2711e;stroke-width:0.264583" />
    <path
       class="st30"
       d="M 15.204686,11.386163 11.577249,9.2906624 c -0.121709,-0.0714 -0.232834,-0.0767 -0.314854,-0.0318 l -2.9342286,1.6933306 4.2571446,3.175 2.934229,-1.69333 c 0.07937,-0.045 0.129646,-0.14288 0.129646,-0.28311 -0.0026,-0.2831 -0.201083,-0.62442 -0.4445,-0.76464 z"
       id="path8675"
       style="fill:#d9a13f;stroke-width:0.264583" />
    <path
       class="st31"
       d="m 12.270457,13.079493 -3.6300826,-2.0955 c -0.121708,-0.0714 -0.232833,-0.0767 -0.314854,-0.0318 -0.07937,0.045 -0.129646,0.14287 -0.129646,0.2831 0,0.28046 0.198437,0.62177 0.441854,0.76465 l 3.6300826,2.0955 c 0.121709,0.0714 0.232834,0.0767 0.314854,0.0318 0.07937,-0.045 0.129646,-0.14288 0.129646,-0.28311 0,-0.28045 -0.198437,-0.62441 -0.441854,-0.76464 z"
       id="path8677"
       style="fill:#b2711e;stroke-width:0.264583" />
    <path
       class="st32"
       d="m 19.803145,7.6396581 -3.627438,-2.0955 c -0.121708,-0.07144 -0.232833,-0.07673 -0.314854,-0.03175 l -2.934229,1.693333 4.257146,3.1750019 2.934229,-1.6933349 c 0.07937,-0.04498 0.129646,-0.142875 0.129646,-0.283105 0,-0.280458 -0.198438,-0.62177 -0.4445,-0.764645 z"
       id="path8679"
       style="fill:#e6ad3d;stroke-width:0.264583" />
    <path
       class="st31"
       d="M 16.868915,9.3356324 13.238832,7.2401371 c -0.121708,-0.07144 -0.232833,-0.07673 -0.314854,-0.03175 -0.07937,0.04498 -0.129646,0.142875 -0.129646,0.283104 0,0.280458 0.198438,0.621771 0.441854,0.764646 l 3.630084,2.0954959 c 0.121708,0.0714 0.232833,0.0767 0.314854,0.0318 0.07937,-0.045 0.129646,-0.14287 0.129646,-0.283101 0.0026,-0.2830996 -0.195792,-0.6244196 -0.441855,-0.7646496 z"
       id="path8681"
       style="fill:#b2711e;stroke-width:0.264583" />
    <path
       class="st32"
       d="m 7.8677914,4.5255121 c -0.07937,-0.04762 -0.1905,-0.03969 -0.314855,0.03175 l -3.54277,2.045229 c -0.243417,0.140229 -0.441855,0.484187 -0.441855,0.764646 0,0.140229 0.05027,0.238125 0.129646,0.283104 l 2.934229,1.6933313 4.1724786,-3.1247273 z"
       id="path8683"
       style="fill:#e6ad3d;stroke-width:0.264583" />
    <path
       class="st45"
       d="m 6.9470414,8.2984701 3.5427696,-2.045229 c 0.121709,-0.07144 0.232834,-0.07673 0.314854,-0.03175 0.07937,0.04498 0.129646,0.142875 0.129646,0.283104 0,0.280458 -0.198437,0.621771 -0.441854,0.764646 L 6.9496864,9.3144724 c -0.121708,0.0714 -0.232833,0.0767 -0.314854,0.0318 -0.07937,-0.045 -0.129646,-0.14288 -0.129646,-0.28311 -0.0026,-0.2831003 0.195792,-0.6244133 0.441855,-0.7646423 z"
       id="path8685"
       style="fill:#cc9332;stroke-width:0.264583" />
    <path
       class="st32"
       d="m 10.973999,6.3246781 c -0.07938,-0.04762 -0.1905,-0.03969 -0.314854,0.03175 l -3.5427706,2.04523 c -0.243417,0.140229 -0.441854,0.4841843 -0.441854,0.7646443 0,0.14023 0.05027,0.23813 0.129646,0.28311 l 2.934229,1.6933306 4.1724786,-3.1247309 z"
       id="path8687"
       style="fill:#e6ad3d;stroke-width:0.264583" />
    <path
       class="st45"
       d="m 10.050603,10.094992 3.542771,-2.0452299 c 0.121708,-0.07144 0.232833,-0.07673 0.314854,-0.03175 0.07938,0.04498 0.129646,0.142875 0.129646,0.283104 0,0.280458 -0.198438,0.6217663 -0.441854,0.7646463 l -3.542771,2.0452306 c -0.1217086,0.0714 -0.2328336,0.0767 -0.3148536,0.0317 -0.07937,-0.045 -0.129646,-0.14288 -0.129646,-0.28311 0,-0.28045 0.198437,-0.62441 0.4418536,-0.764641 z"
       id="path8689"
       style="fill:#cc9332;stroke-width:0.264583" />
    <path
       class="st32"
       d="m 14.080207,8.1211991 c -0.07937,-0.04762 -0.1905,-0.03969 -0.314854,0.03175 l -3.542771,2.0452339 c -0.2434166,0.14023 -0.4418536,0.48418 -0.4418536,0.76464 0,0.14023 0.05027,0.23813 0.129646,0.28311 l 2.9342286,1.69333 4.172479,-3.1247306 z"
       id="path8691"
       style="fill:#e6ad3d;stroke-width:0.264583" />
    <path
       class="st45"
       d="m 13.156811,11.891513 3.542771,-2.0452306 c 0.121708,-0.0714 0.232833,-0.0767 0.314854,-0.0318 0.07937,0.045 0.129646,0.14288 0.129646,0.2830996 0,0.280461 -0.198437,0.621781 -0.441854,0.764651 l -3.542771,2.04523 c -0.121708,0.0714 -0.232833,0.0767 -0.314854,0.0317 -0.07938,-0.045 -0.129646,-0.14288 -0.129646,-0.2831 -0.0026,-0.28046 0.195792,-0.62178 0.441854,-0.76465 z"
       id="path8693"
       style="fill:#cc9332;stroke-width:0.264583" />
    <polygon
       class="st44"
       points="-1435.18,383.27 -1435.18,387.12 -1418.44,377.45 -1418.44,373.61 "
       id="polygon8695"
       style="fill:#cfd8dc"
       transform="matrix(0.26458333,0,0,0.26458333,392.609,-93.933882)" />
    <path
       class="st30"
       d="m 17.18377,5.1419911 c -0.07937,-0.04762 -0.1905,-0.03969 -0.314855,0.03175 l -3.54277,2.045229 c -0.243417,0.140229 -0.441855,0.484188 -0.441855,0.764646 0,0.140229 0.05027,0.238125 0.129646,0.283104 l 2.934229,1.6933323 4.17248,-3.1247283 z"
       id="path8697"
       style="fill:#d9a13f;stroke-width:0.264583" />
    <path
       class="st45"
       d="m 16.260374,8.9123024 3.542771,-2.0452283 c 0.121708,-0.07144 0.232833,-0.07673 0.314854,-0.03175 0.07937,0.04498 0.129646,0.142875 0.129646,0.283104 0,0.280459 -0.198438,0.621771 -0.441855,0.764646 l -3.54277,2.0452283 c -0.121709,0.0714 -0.232834,0.0767 -0.314855,0.0318 -0.07937,-0.045 -0.129645,-0.14287 -0.129645,-0.2831 0,-0.28046 0.198437,-0.62442 0.441854,-0.76465 z"
       id="path8699"
       style="fill:#cc9332;stroke-width:0.264583" />
    <path
       class="st45"
       d="m 10.574478,6.3299701 -3.6274366,-2.0955 c -0.121709,-0.07144 -0.232834,-0.07673 -0.314855,-0.03175 l -2.934229,1.693333 4.257146,3.1749993 2.9342286,-1.6933323 c 0.07937,-0.04498 0.129646,-0.142875 0.129646,-0.283104 -0.0026,-0.283104 -0.201083,-0.624417 -0.4445,-0.764646 z"
       id="path8701"
       style="fill:#cc9332;stroke-width:0.264583" />
    <path
       class="st31"
       d="m 7.6402494,8.0233031 -3.630083,-2.0955 c -0.121709,-0.07144 -0.232834,-0.07673 -0.314855,-0.03175 -0.07937,0.04498 -0.129645,0.142875 -0.129645,0.283105 0,0.280458 0.198437,0.62177 0.441854,0.764645 l 3.630083,2.0954993 c 0.121708,0.0714 0.232833,0.0767 0.314854,0.0318 0.07937,-0.045 0.129646,-0.14287 0.129646,-0.2831033 0,-0.280458 -0.198437,-0.624416 -0.441854,-0.764646 z"
       id="path8703"
       style="fill:#b2711e;stroke-width:0.264583" />
    <path
       class="st30"
       d="M 15.204686,9.0102024 11.577249,6.9146991 c -0.121709,-0.07144 -0.232834,-0.07673 -0.314854,-0.03175 l -2.9342286,1.693334 4.2571446,3.1749999 2.934229,-1.693331 c 0.07937,-0.045 0.129646,-0.1428796 0.129646,-0.2831096 -0.0026,-0.28046 -0.201083,-0.62177 -0.4445,-0.76464 z"
       id="path8705"
       style="fill:#d9a13f;stroke-width:0.264583" />
    <path
       class="st31"
       d="M 12.270457,10.706183 8.6403744,8.6106781 c -0.121708,-0.07144 -0.232833,-0.07673 -0.314854,-0.03175 -0.07937,0.04498 -0.129646,0.142875 -0.129646,0.2831043 0,0.28046 0.198437,0.62177 0.441854,0.76465 l 3.6300826,2.0955006 c 0.121709,0.0714 0.232834,0.0767 0.314854,0.0318 0.07937,-0.045 0.129646,-0.14288 0.129646,-0.28311 0,-0.2831 -0.198437,-0.62441 -0.441854,-0.76464 z"
       id="path8707"
       style="fill:#b2711e;stroke-width:0.264583" />
    <path
       class="st30"
       d="M 15.12002,2.5570121 11.492582,0.46151214 c -0.121708,-0.07144 -0.232833,-0.07673 -0.314854,-0.03175 l -2.9342286,1.69333296 4.2571456,3.175 2.934229,-1.693333 c 0.07938,-0.04498 0.129646,-0.142875 0.129646,-0.283104 -0.0026,-0.280459 -0.201084,-0.624417 -0.4445,-0.764646 z"
       id="path8709"
       style="fill:#d9a13f;stroke-width:0.264583" />
    <path
       class="st12"
       d="m 10.926374,2.9327201 1.624541,0.936625 c 0.08202,0.04762 0.214313,0.04762 0.293688,0 l 1.613958,-0.931333 c 0.08202,-0.04762 0.07937,-0.121709 0,-0.169334 L 12.83402,1.8320531 c -0.08202,-0.04762 -0.214313,-0.04762 -0.293688,0 l -1.613958,0.931334 c -0.08202,0.04498 -0.08202,0.121708 0,0.169333 z"
       id="path8711"
       style="fill:#ffffff;stroke-width:0.264583" />
    <path
       class="st8"
       d="m 13.135645,2.9168451 c 0,0.07673 0.04762,0.148167 0.127,0.206375 l -0.399521,-0.230187 c 0.129646,-0.06086 0.214312,-0.150813 0.214312,-0.256646 0,-0.103188 -0.08467,-0.195792 -0.216958,-0.256646 -0.129646,0.06085 -0.214313,0.150812 -0.214313,0.256646 0,0.07673 0.04763,0.148166 0.127,0.206375 l -0.267229,-0.153459 c -0.0079,-0.07673 -0.06085,-0.150812 -0.164041,-0.211666 -0.127,-0.07408 -0.29898,-0.103188 -0.465667,-0.09525 -0.01588,0.09525 0.0344,0.195791 0.164042,0.269875 0.100541,0.05821 0.232833,0.08996 0.365125,0.09525 l 0.267229,0.153458 c -0.0979,-0.04498 -0.219604,-0.07408 -0.354542,-0.07408 -0.179917,0 -0.338667,0.04763 -0.441854,0.124354 0.105833,0.07408 0.264583,0.124354 0.4445,0.124354 0.179917,0 0.338667,-0.04762 0.441854,-0.124354 l 0.399521,0.230187 c -0.0979,-0.04498 -0.219604,-0.07408 -0.354542,-0.07408 -0.179916,0 -0.338666,0.04762 -0.441854,0.124354 0.105833,0.07408 0.264583,0.124354 0.4445,0.124354 0.179917,0 0.338667,-0.04762 0.441854,-0.124354 l 0.203729,0.116417 0.100542,-0.05821 -0.203729,-0.116417 c 0.129646,-0.06085 0.214312,-0.150813 0.214312,-0.256646 0,-0.103187 -0.08467,-0.195792 -0.216958,-0.256646 -0.129646,0.06085 -0.214312,0.150813 -0.214312,0.256646 z"
       id="path8713"
       style="fill:#238223;stroke-width:0.264583" />
    <path
       class="st31"
       d="m 12.18579,4.2503451 -3.6300826,-2.0955 c -0.121708,-0.07144 -0.232833,-0.07673 -0.314854,-0.03175 -0.07937,0.04498 -0.129646,0.142875 -0.129646,0.283104 0,0.280459 0.198438,0.621771 0.441854,0.764646 l 3.6300836,2.0955 c 0.121708,0.07144 0.232833,0.07673 0.314854,0.03175 0.07937,-0.04498 0.129646,-0.142875 0.129646,-0.283104 0,-0.280458 -0.198438,-0.621771 -0.441855,-0.764646 z"
       id="path8715"
       style="fill:#b2711e;stroke-width:0.264583" />
    <path
       class="st32"
       d="m 19.803145,5.2663451 -3.627438,-2.0955 c -0.121708,-0.07144 -0.232833,-0.07673 -0.314854,-0.03175 l -2.934229,1.693333 4.257146,3.175 2.934229,-1.693333 c 0.07937,-0.04498 0.129646,-0.142875 0.129646,-0.283104 0,-0.280458 -0.198438,-0.624417 -0.4445,-0.764646 z"
       id="path8717"
       style="fill:#e6ad3d;stroke-width:0.264583" />
    <path
       class="st12"
       d="m 13.987603,4.7027831 1.624542,0.936625 c 0.08202,0.04762 0.214312,0.04762 0.293687,0 l 1.613958,-0.931334 c 0.08202,-0.04763 0.07938,-0.121708 0,-0.169333 l -1.624541,-0.936625 c -0.08202,-0.04763 -0.214313,-0.04763 -0.293688,0 l -1.613958,0.931333 c -0.08202,0.04762 -0.08202,0.124354 0,0.169334 z"
       id="path8719"
       style="fill:#ffffff;stroke-width:0.264583" />
    <path
       class="st8"
       d="m 16.196874,4.6869081 c 0,0.07673 0.04763,0.148166 0.127,0.206375 l -0.399521,-0.230188 c 0.129646,-0.06085 0.214312,-0.150812 0.214312,-0.256646 0,-0.103187 -0.08467,-0.195791 -0.216958,-0.256646 -0.129646,0.06086 -0.214312,0.150813 -0.214312,0.256646 0,0.07673 0.04762,0.148167 0.127,0.206375 l -0.26723,-0.153458 c -0.0079,-0.07673 -0.06085,-0.150813 -0.164041,-0.211667 -0.127,-0.07408 -0.298979,-0.103187 -0.465667,-0.09525 -0.01588,0.09525 0.0344,0.195792 0.164042,0.269875 0.100541,0.05821 0.232833,0.08996 0.365125,0.09525 l 0.267229,0.153459 c -0.0979,-0.04498 -0.219604,-0.07408 -0.354542,-0.07408 -0.179916,0 -0.338666,0.04762 -0.441854,0.124354 0.105833,0.07408 0.264583,0.124355 0.4445,0.124355 0.179917,0 0.338667,-0.04762 0.441854,-0.124355 l 0.399521,0.230188 c -0.0979,-0.04498 -0.219604,-0.07408 -0.354542,-0.07408 -0.179916,0 -0.338666,0.04762 -0.441854,0.124354 0.105834,0.07408 0.264584,0.124354 0.4445,0.124354 0.179917,0 0.338667,-0.04763 0.441854,-0.124354 l 0.20373,0.116416 0.100541,-0.05821 -0.203729,-0.116417 c 0.129646,-0.06085 0.214313,-0.150812 0.214313,-0.256645 0,-0.103188 -0.08467,-0.195792 -0.216959,-0.256646 -0.129646,0.0635 -0.214312,0.153458 -0.214312,0.256646 z"
       id="path8721"
       style="fill:#238223;stroke-width:0.264583" />
    <path
       class="st31"
       d="m 16.868915,6.9596781 -3.630083,-2.0955 c -0.121708,-0.07144 -0.232833,-0.07673 -0.314854,-0.03175 -0.07937,0.04498 -0.129646,0.142875 -0.129646,0.283105 0,0.280458 0.198438,0.62177 0.441854,0.764645 l 3.630084,2.0955 c 0.121708,0.07144 0.232833,0.07673 0.314854,0.03175 0.07937,-0.04498 0.129646,-0.142875 0.129646,-0.283104 0.0026,-0.280458 -0.195792,-0.621771 -0.441855,-0.764646 z"
       id="path8723"
       style="fill:#b2711e;stroke-width:0.264583" />
    <path
       class="st32"
       d="m 7.8677914,2.1521991 c -0.07937,-0.04763 -0.1905,-0.03969 -0.314855,0.03175 l -3.54277,2.045229 c -0.243417,0.14023 -0.441855,0.484188 -0.441855,0.764646 0,0.140229 0.05027,0.238125 0.129646,0.283104 l 2.934229,1.693334 4.1724786,-3.124729 z"
       id="path8725"
       style="fill:#e6ad3d;stroke-width:0.264583" />
    <path
       class="st12"
       d="m 8.2038114,4.6048871 -1.624541,0.936625 c -0.08202,0.04762 -0.214313,0.04762 -0.293688,0 l -1.613958,-0.931334 c -0.08202,-0.04762 -0.07937,-0.121708 0,-0.169333 l 1.624542,-0.936625 c 0.08202,-0.04762 0.214312,-0.04762 0.293687,0 l 1.613958,0.931333 c 0.08202,0.04498 0.08202,0.121709 0,0.169334 z"
       id="path8727"
       style="fill:#ffffff;stroke-width:0.264583" />
    <path
       class="st8"
       d="m 5.9945414,4.5890121 c 0,0.07673 -0.04763,0.148166 -0.127,0.206375 l 0.39952,-0.230188 c -0.129645,-0.06085 -0.214312,-0.150812 -0.214312,-0.256646 0,-0.103187 0.08467,-0.195791 0.216958,-0.256645 0.129646,0.06085 0.214313,0.150812 0.214313,0.256645 0,0.07673 -0.04762,0.148167 -0.127,0.206375 l 0.267229,-0.153458 c 0.0079,-0.07673 0.06085,-0.150812 0.164042,-0.211667 0.127,-0.07408 0.298979,-0.103187 0.465666,-0.09525 0.01587,0.09525 -0.0344,0.195792 -0.164041,0.269875 -0.100542,0.05821 -0.232834,0.08996 -0.365125,0.09525 l -0.26723,0.153459 c 0.0979,-0.04498 0.219605,-0.07408 0.354542,-0.07408 0.179917,0 0.338667,0.04762 0.441854,0.124355 -0.105833,0.07408 -0.264583,0.124354 -0.4445,0.124354 -0.179916,0 -0.338666,-0.04762 -0.441854,-0.124354 l -0.399521,0.230187 c 0.0979,-0.04498 0.219604,-0.07408 0.354542,-0.07408 0.179917,0 0.338667,0.04762 0.441854,0.124354 -0.105833,0.07408 -0.264583,0.124354 -0.4445,0.124354 -0.179917,0 -0.338667,-0.04762 -0.441854,-0.124354 l -0.203729,0.116417 -0.100542,-0.05821 0.203729,-0.116416 c -0.129646,-0.06085 -0.214312,-0.150813 -0.214312,-0.256646 0,-0.105834 0.08467,-0.195792 0.216958,-0.256646 0.129646,0.06085 0.214313,0.153458 0.214313,0.256646 z"
       id="path8729"
       style="fill:#238223;stroke-width:0.264583" />
    <path
       class="st45"
       d="m 6.9470414,5.9251581 3.5427696,-2.04523 c 0.121709,-0.07144 0.232834,-0.07673 0.314854,-0.03175 0.07937,0.04498 0.129646,0.142875 0.129646,0.283105 0,0.280458 -0.198437,0.62177 -0.441854,0.764645 l -3.5427706,2.04523 c -0.121708,0.07144 -0.232833,0.07673 -0.314854,0.03175 -0.07937,-0.04498 -0.129646,-0.142875 -0.129646,-0.283105 -0.0026,-0.283104 0.195792,-0.624416 0.441855,-0.764645 z"
       id="path8731"
       style="fill:#cc9332;stroke-width:0.264583" />
    <path
       class="st32"
       d="m 10.973999,3.9487201 c -0.07938,-0.04762 -0.1905,-0.03969 -0.314854,0.03175 l -3.5427706,2.045229 c -0.243417,0.140229 -0.441854,0.484188 -0.441854,0.764646 0,0.140229 0.05027,0.238125 0.129646,0.283104 l 2.934229,1.693334 4.1724786,-3.12473 z"
       id="path8733"
       style="fill:#e6ad3d;stroke-width:0.264583" />
    <path
       class="st12"
       d="m 12.931915,5.4647831 -1.624541,0.936625 c -0.08202,0.04762 -0.214313,0.04762 -0.293688,0 L 9.3997284,5.4700741 c -0.08202,-0.04763 -0.07937,-0.121708 0,-0.169333 L 11.02427,4.3641161 c 0.08202,-0.04763 0.214312,-0.04763 0.293687,0 l 1.613958,0.931333 c 0.08202,0.04498 0.08202,0.121709 0,0.169334 z"
       id="path8735"
       style="fill:#ffffff;stroke-width:0.264583" />
    <path
       class="st8"
       d="m 10.722645,5.4489081 c 0,0.07673 -0.04763,0.148166 -0.127,0.206375 l 0.39952,-0.230188 c -0.129645,-0.06085 -0.214312,-0.150812 -0.214312,-0.256646 0,-0.103187 0.08467,-0.195791 0.216958,-0.256646 0.129646,0.06086 0.214313,0.150813 0.214313,0.256646 0,0.07673 -0.04762,0.148167 -0.127,0.206375 l 0.267229,-0.153458 c 0.0079,-0.07673 0.06085,-0.150813 0.164042,-0.211667 0.127,-0.07408 0.298979,-0.103187 0.465666,-0.09525 0.01588,0.09525 -0.0344,0.195792 -0.164041,0.269875 -0.100542,0.05821 -0.232834,0.08996 -0.365125,0.09525 l -0.26723,0.153459 c 0.0979,-0.04498 0.219605,-0.07408 0.354542,-0.07408 0.179917,0 0.338667,0.04762 0.441854,0.124354 -0.105833,0.07408 -0.264583,0.124355 -0.4445,0.124355 -0.179916,0 -0.338666,-0.04762 -0.441854,-0.124355 l -0.399521,0.230188 c 0.0979,-0.04498 0.219604,-0.07408 0.354542,-0.07408 0.179917,0 0.338667,0.04762 0.441854,0.124354 -0.105833,0.07408 -0.264583,0.124354 -0.4445,0.124354 -0.179917,0 -0.338667,-0.04763 -0.441854,-0.124354 l -0.203729,0.116416 -0.100542,-0.05821 0.203729,-0.116417 c -0.129646,-0.06085 -0.214312,-0.150812 -0.214312,-0.256645 0,-0.103188 0.08467,-0.195792 0.216958,-0.256646 0.132292,0.06085 0.216958,0.150812 0.214313,0.256646 z"
       id="path8737"
       style="fill:#238223;stroke-width:0.264583" />
    <path
       class="st45"
       d="m 10.050603,7.7216781 3.542771,-2.045229 c 0.121708,-0.07144 0.232833,-0.07673 0.314854,-0.03175 0.07938,0.04498 0.129646,0.142875 0.129646,0.283104 0,0.280459 -0.198438,0.621771 -0.441854,0.764646 l -3.542771,2.045229 c -0.1217086,0.07144 -0.2328336,0.07673 -0.3148536,0.03175 -0.07937,-0.04498 -0.129646,-0.142875 -0.129646,-0.283104 0,-0.283104 0.198437,-0.624416 0.4418536,-0.764646 z"
       id="path8739"
       style="fill:#cc9332;stroke-width:0.264583" />
    <path
       class="st32"
       d="m 14.080207,5.7452411 c -0.07937,-0.04762 -0.1905,-0.03969 -0.314854,0.03175 l -3.542771,2.045229 c -0.2434166,0.140229 -0.4418536,0.484188 -0.4418536,0.764646 0,0.140229 0.05027,0.2381253 0.129646,0.2831063 l 2.9342286,1.6933306 4.172479,-3.1247289 z"
       id="path8741"
       style="fill:#e6ad3d;stroke-width:0.264583" />
    <path
       class="st12"
       d="m 15.225853,7.7296161 -1.624542,0.936625 c -0.08202,0.04763 -0.214312,0.04763 -0.293687,0 l -1.613959,-0.931333 c -0.08202,-0.04762 -0.07937,-0.121709 0,-0.169334 l 1.624542,-0.936625 c 0.08202,-0.04762 0.214313,-0.04762 0.293688,0 l 1.613958,0.931334 c 0.08202,0.04498 0.08202,0.121708 0,0.169333 z"
       id="path8743"
       style="fill:#ffffff;stroke-width:0.264583" />
    <path
       class="st8"
       d="m 13.016582,7.7137411 c 0,0.07673 -0.04763,0.148167 -0.127,0.206375 l 0.399521,-0.230188 c -0.129646,-0.06085 -0.214313,-0.150812 -0.214313,-0.256645 0,-0.103188 0.08467,-0.195792 0.216959,-0.256646 0.129646,0.06085 0.214312,0.150812 0.214312,0.256646 0,0.07673 -0.04762,0.148166 -0.127,0.206375 l 0.267229,-0.153459 c 0.0079,-0.07673 0.06086,-0.150812 0.164042,-0.211666 0.127,-0.07408 0.298979,-0.103188 0.465667,-0.09525 0.01588,0.09525 -0.0344,0.195791 -0.164042,0.269875 -0.100542,0.05821 -0.232833,0.08996 -0.365125,0.09525 l -0.267229,0.153458 c 0.0979,-0.04498 0.219604,-0.07408 0.354542,-0.07408 0.179916,0 0.338666,0.04762 0.441854,0.124354 -0.105834,0.07408 -0.264584,0.124354 -0.4445,0.124354 -0.179917,0 -0.338667,-0.04763 -0.441854,-0.124354 l -0.399521,0.230187 c 0.0979,-0.04498 0.219604,-0.07408 0.354541,-0.07408 0.179917,0 0.338667,0.04763 0.441855,0.124354 -0.105834,0.07408 -0.264584,0.124354 -0.4445,0.124354 -0.179917,0 -0.338667,-0.04762 -0.441855,-0.124354 l -0.203729,0.116417 -0.100541,-0.05821 0.203729,-0.116416 c -0.129646,-0.06085 -0.214313,-0.150813 -0.214313,-0.256646 0,-0.103188 0.08467,-0.195792 0.216959,-0.256646 0.129645,0.06085 0.214312,0.153458 0.214312,0.256646 z"
       id="path8745"
       style="fill:#238223;stroke-width:0.264583" />
    <path
       class="st45"
       d="m 13.156811,9.5182024 3.542771,-2.0452323 c 0.121708,-0.07144 0.232833,-0.07673 0.314854,-0.03175 0.07937,0.04498 0.129646,0.142875 0.129646,0.283104 0,0.280459 -0.198437,0.621771 -0.441854,0.764646 l -3.542771,2.0452329 c -0.121708,0.0714 -0.232833,0.0767 -0.314854,0.0318 -0.07938,-0.045 -0.129646,-0.14288 -0.129646,-0.28311 -0.0026,-0.280461 0.195792,-0.6244106 0.441854,-0.7646406 z"
       id="path8747"
       style="fill:#cc9332;stroke-width:0.264583" />
  </g>
</svg>
