<?xml version="1.0" encoding="UTF-8" standalone="no"?>
<svg
   xmlns:dc="http://purl.org/dc/elements/1.1/"
   xmlns:cc="http://creativecommons.org/ns#"
   xmlns:rdf="http://www.w3.org/1999/02/22-rdf-syntax-ns#"
   xmlns:svg="http://www.w3.org/2000/svg"
   xmlns="http://www.w3.org/2000/svg"
   xmlns:xlink="http://www.w3.org/1999/xlink"
   xmlns:sodipodi="http://sodipodi.sourceforge.net/DTD/sodipodi-0.dtd"
   xmlns:inkscape="http://www.inkscape.org/namespaces/inkscape"
   width="26mm"
   height="26mm"
   viewBox="0 0 26 26"
   version="1.1"
   id="svg11418"
   inkscape:version="1.0.2 (e86c8708, 2021-01-15)"
   sodipodi:docname="production_blank.svg">
  <defs
     id="defs11412">
    <clipPath
       id="SVGID_4_">
      <use
         xlink:href="#SVGID_3_"
         style="overflow:visible"
         id="use8928"
         x="0"
         y="0"
         width="100%"
         height="100%" />
    </clipPath>
    <clipPath
       id="clipPath13054">
      <use
         xlink:href="#SVGID_3_"
         style="overflow:visible"
         id="use13052"
         x="0"
         y="0"
         width="100%"
         height="100%" />
    </clipPath>
    <clipPath
       id="clipPath13058">
      <use
         xlink:href="#SVGID_3_"
         style="overflow:visible"
         id="use13056"
         x="0"
         y="0"
         width="100%"
         height="100%" />
    </clipPath>
    <path
       id="SVGID_3_"
       d="m -1690.02,379.55 c -0.01,-2.6 -1.74,-5.21 -5.19,-7.2 -6.88,-3.97 -18,-3.97 -24.84,0 -3.42,1.99 -5.12,4.59 -5.11,7.19 v 49.54 c 0.01,2.6 1.74,5.21 5.18,7.2 6.89,3.97 18.01,3.97 24.85,0 3.42,-1.99 5.12,-4.59 5.11,-7.2 z" />
  </defs>
  <sodipodi:namedview
     id="base"
     pagecolor="#ffffff"
     bordercolor="#666666"
     borderopacity="1.0"
     inkscape:pageopacity="0.0"
     inkscape:pageshadow="2"
     inkscape:zoom="4.0151028"
     inkscape:cx="44.150878"
     inkscape:cy="59.816882"
     inkscape:document-units="mm"
     inkscape:current-layer="layer1"
     inkscape:document-rotation="0"
     showgrid="false"
     inkscape:window-width="1252"
     inkscape:window-height="847"
     inkscape:window-x="0"
     inkscape:window-y="25"
     inkscape:window-maximized="0"
     inkscape:snap-page="true" />
  <metadata
     id="metadata11415">
    <rdf:RDF>
      <cc:Work
         rdf:about="">
        <dc:format>image/svg+xml</dc:format>
        <dc:type
           rdf:resource="http://purl.org/dc/dcmitype/StillImage" />
        <dc:title></dc:title>
      </cc:Work>
    </rdf:RDF>
  </metadata>
  <g
     inkscape:label="Layer 1"
     inkscape:groupmode="layer"
     id="layer1">
    <path
       class="st36"
       d="m 18.516128,21.117762 c -0.005,-0.78846 -0.52917,-1.57691 -1.56898,-2.17752 -2.08227,-1.20121 -5.44777,-1.20121 -7.5168199,0 -1.03452,0.60061 -1.54781,1.38906 -1.54516,2.17752 v 1.32292 c 0.005,0.78846 0.52652,1.57692 1.56898,2.17752 2.0822699,1.20385 5.4504099,1.20121 7.5194599,0 1.03452,-0.6006 1.55045,-1.38906 1.54516,-2.17752 v -1.32292 z"
       id="path8781"
       style="fill:#657073;stroke-width:0.264583" />
    <path
       class="st27"
       d="m 16.944498,18.940242 c 2.08227,1.20386 2.0955,3.15119 0.0238,4.35504 -2.06904,1.20121 -5.43454,1.20386 -7.5194499,0 -2.0822804,-1.20121 -2.0928604,-3.15118 -0.0238,-4.35504 2.0716899,-1.20121 5.4371899,-1.20121 7.5194599,0 z"
       id="path8783"
       style="fill:#a3a9ab;stroke-width:0.264583" />
    <path
       class="st49"
       d="m 17.849378,8.0711624 c -0.003,-0.687921 -0.46038,-1.378481 -1.37319,-1.905001 -1.82033,-1.0503992 -4.7625,-1.0503992 -6.5722499,0 -0.90488,0.52652 -1.35467,1.21444 -1.35202,1.902351 v 7.7681696 c 0.003,0.68792 0.46037,1.37848 1.37054,1.905 1.8203299,1.05039 4.7651499,1.05039 6.5748999,0 0.90487,-0.52652 1.35466,-1.21444 1.35202,-1.905 z"
       id="path8785"
       style="opacity:0.5;fill:#a3a9ab;stroke-width:0.264583" />
    <path
       class="st34"
       d="m 17.849378,14.272992 c -0.003,-0.68792 -0.46038,-1.37848 -1.37319,-1.905 -1.82033,-1.05039 -4.7625,-1.05039 -6.5722499,0 -0.90488,0.52652 -1.35467,1.21444 -1.35202,1.90236 v 6.69131 c 0.003,0.68791 0.46037,1.37848 1.37054,1.905 1.8203299,1.05039 4.7651499,1.05039 6.5748999,0 0.90487,-0.52652 1.35466,-1.21444 1.35202,-1.905 z"
       id="path8787"
       style="fill:#509499;stroke-width:0.264583" />
    <path
       class="st50"
       d="m 16.473538,19.067242 c 1.82034,1.0504 1.83092,2.75696 0.0212,3.80736 -1.80975,1.05039 -4.75192,1.05304 -6.5748999,0 -1.82033,-1.0504 -1.82827,-2.75696 -0.0212,-3.80736 1.8123899,-1.05039 4.7545599,-1.05039 6.5748899,0 z"
       id="path8789"
       style="opacity:0.7;fill:#1a6066;stroke-width:0.264583" />
    <path
       class="st23"
       d="m 13.629268,9.0871624 c 0,-0.0635 -0.0423,-0.127 -0.12435,-0.17463 -0.16669,-0.0953 -0.43656,-0.0953 -0.60061,0 -0.082,0.0476 -0.12435,0.11113 -0.12435,0.17463 V 21.260642 c 0,0.0635 0.0423,0.127 0.12435,0.17462 0.16669,0.0952 0.43657,0.0952 0.60061,0 0.082,-0.0476 0.12435,-0.11112 0.12435,-0.17462 z"
       id="path8791"
       style="fill:#33383a;stroke-width:0.264583" />
    <path
       class="st23"
       d="m 15.259108,18.649202 -0.62971,0.36248 c -0.127,0.0741 -0.23019,0.25135 -0.23019,0.39952 v 0.13494 0.1905 0.13758 c 0,0.0714 0.0265,0.12435 0.0662,0.14817 l 0.16404,0.0952 c -0.0423,-0.0238 -0.0662,-0.0741 -0.0662,-0.14817 v -0.13758 -0.1905 -0.13494 c 0,-0.14552 0.10319,-0.32544 0.23019,-0.39952 l 0.62971,-0.36248 z"
       id="path8793"
       style="fill:#33383a;stroke-width:0.264583" />
    <path
       class="st32"
       d="m 15.423148,18.744452 0.003,0.98954 -0.62971,0.36248 c -0.127,0.0741 -0.23283,0.0159 -0.23283,-0.12965 v -0.13758 -0.1905 -0.13494 c 0,-0.14552 0.10319,-0.32543 0.23019,-0.39952 z"
       id="path8795"
       style="fill:#e6ad3d;stroke-width:0.264583" />
    <polygon
       class="st23"
       points="-1712.7,430.02 -1712.7,429.3 -1712.08,429.66 -1712.08,430.38 "
       id="polygon8797"
       style="fill:#33383a"
       transform="matrix(0.26458333,0,0,0.26458333,464.99786,-92.565755)" />
    <polygon
       class="st23"
       points="-1712.7,429.3 -1703.05,423.73 -1702.43,424.09 -1712.08,429.66 "
       id="polygon8799"
       style="fill:#33383a"
       transform="matrix(0.26458333,0,0,0.26458333,464.99786,-92.565755)" />
    <polygon
       class="st23"
       points="-1702.43,424.81 -1712.08,430.38 -1712.08,429.66 -1702.43,424.09 "
       id="polygon8801"
       style="fill:#33383a"
       transform="matrix(0.26458333,0,0,0.26458333,464.99786,-92.565755)" />
    <path
       class="st23"
       d="m 11.779828,20.736762 c -0.0423,-0.0238 -0.10054,-0.0212 -0.16404,0.0159 l -0.63235,0.36512 0.003,0.98954 0.16405,0.0953 -0.003,-0.98954 0.63235,-0.36512 c 0.0635,-0.037 0.12171,-0.0397 0.16405,-0.0159 z"
       id="path8803"
       style="fill:#33383a;stroke-width:0.264583" />
    <path
       class="st32"
       d="m 11.779828,20.847892 c 0.127,-0.0741 0.23019,-0.0159 0.23019,0.13229 v 0.13494 0.1905 0.13758 c 0,0.14552 -0.10054,0.32279 -0.23019,0.39687 l -0.63235,0.36513 -0.003,-0.98954 z"
       id="path8805"
       style="fill:#e6ad3d;stroke-width:0.264583" />
    <path
       class="st23"
       d="m 15.259108,16.913532 -0.62971,0.36248 c -0.127,0.0741 -0.23019,0.25136 -0.23019,0.39952 v 0.13494 0.1905 0.13758 c 0,0.0714 0.0265,0.12436 0.0662,0.14817 l 0.16404,0.0952 c -0.0423,-0.0238 -0.0662,-0.0741 -0.0662,-0.14817 v -0.13758 -0.1905 -0.13494 c 0,-0.14552 0.10319,-0.32543 0.23019,-0.39952 l 0.62971,-0.36248 z"
       id="path8807"
       style="fill:#33383a;stroke-width:0.264583" />
    <path
       class="st32"
       d="m 15.423148,17.008782 0.003,0.98954 -0.62971,0.36248 c -0.127,0.0741 -0.23283,0.0159 -0.23283,-0.12964 v -0.13759 -0.1905 -0.13493 c 0,-0.14552 0.10319,-0.32544 0.23019,-0.39952 z"
       id="path8809"
       style="fill:#e6ad3d;stroke-width:0.264583" />
    <polygon
       class="st23"
       points="-1712.7,423.45 -1712.7,422.74 -1712.08,423.1 -1712.08,423.81 "
       id="polygon8811"
       style="fill:#33383a"
       transform="matrix(0.26458333,0,0,0.26458333,464.99786,-92.565755)" />
    <polygon
       class="st23"
       points="-1712.7,422.74 -1703.05,417.17 -1702.43,417.53 -1712.08,423.1 "
       id="polygon8813"
       style="fill:#33383a"
       transform="matrix(0.26458333,0,0,0.26458333,464.99786,-92.565755)" />
    <polygon
       class="st23"
       points="-1702.43,418.24 -1712.08,423.81 -1712.08,423.1 -1702.43,417.53 "
       id="polygon8815"
       style="fill:#33383a"
       transform="matrix(0.26458333,0,0,0.26458333,464.99786,-92.565755)" />
    <path
       class="st23"
       d="m 11.779828,19.001102 c -0.0423,-0.0238 -0.10054,-0.0212 -0.16404,0.0159 l -0.63235,0.36513 0.003,0.98954 0.16405,0.0953 -0.003,-0.98954 0.63235,-0.36513 c 0.0635,-0.037 0.12171,-0.0397 0.16405,-0.0159 z"
       id="path8817"
       style="fill:#33383a;stroke-width:0.264583" />
    <path
       class="st32"
       d="m 11.779828,19.112222 c 0.127,-0.0741 0.23019,-0.0159 0.23019,0.13229 v 0.13494 0.1905 0.13758 c 0,0.14552 -0.10054,0.32279 -0.23019,0.39688 l -0.63235,0.36512 -0.003,-0.98954 z"
       id="path8819"
       style="fill:#e6ad3d;stroke-width:0.264583" />
    <path
       class="st23"
       d="m 15.259108,15.175222 -0.62971,0.36248 c -0.127,0.0741 -0.23019,0.25135 -0.23019,0.39952 v 0.13494 0.1905 0.13758 c 0,0.0714 0.0265,0.12436 0.0662,0.14817 l 0.16404,0.0952 c -0.0423,-0.0238 -0.0662,-0.0741 -0.0662,-0.14817 v -0.13758 -0.1905 -0.13494 c 0,-0.14552 0.10319,-0.32544 0.23019,-0.39952 l 0.62971,-0.36248 z"
       id="path8821"
       style="fill:#33383a;stroke-width:0.264583" />
    <path
       class="st27"
       d="m 15.423148,15.270472 0.003,0.98954 -0.62971,0.36248 c -0.127,0.0741 -0.23283,0.0159 -0.23283,-0.12964 v -0.13759 -0.1905 -0.13494 c 0,-0.14552 0.10319,-0.32543 0.23019,-0.39952 z"
       id="path8823"
       style="fill:#a3a9ab;stroke-width:0.264583" />
    <polygon
       class="st23"
       points="-1712.7,416.89 -1712.7,416.17 -1712.08,416.53 -1712.08,417.25 "
       id="polygon8825"
       style="fill:#33383a"
       transform="matrix(0.26458333,0,0,0.26458333,464.99786,-92.565755)" />
    <polygon
       class="st23"
       points="-1712.7,416.17 -1703.05,410.6 -1702.43,410.96 -1712.08,416.53 "
       id="polygon8827"
       style="fill:#33383a"
       transform="matrix(0.26458333,0,0,0.26458333,464.99786,-92.565755)" />
    <polygon
       class="st23"
       points="-1702.43,411.68 -1712.08,417.25 -1712.08,416.53 -1702.43,410.96 "
       id="polygon8829"
       style="fill:#33383a"
       transform="matrix(0.26458333,0,0,0.26458333,464.99786,-92.565755)" />
    <path
       class="st23"
       d="m 11.779828,17.262782 c -0.0423,-0.0238 -0.10054,-0.0212 -0.16404,0.0159 l -0.63235,0.36512 0.003,0.98954 0.16405,0.0952 -0.003,-0.98954 0.63235,-0.36512 c 0.0635,-0.037 0.12171,-0.0397 0.16405,-0.0159 z"
       id="path8831"
       style="fill:#33383a;stroke-width:0.264583" />
    <path
       class="st32"
       d="m 11.779828,17.373912 c 0.127,-0.0741 0.23019,-0.0159 0.23019,0.13229 v 0.13494 0.1905 0.13758 c 0,0.14552 -0.10054,0.32279 -0.23019,0.39688 l -0.63235,0.36512 -0.003,-0.98954 z"
       id="path8833"
       style="fill:#e6ad3d;stroke-width:0.264583" />
    <line
       class="st51"
       x1="13.83037"
       y1="22.565046"
       x2="15.722109"
       y2="21.509352"
       id="line8835"
       style="fill:none;stroke:#ffffff;stroke-width:0.296307;stroke-linecap:round;stroke-linejoin:round;stroke-miterlimit:10" />
    <line
       class="st51"
       x1="15.354364"
       y1="20.747343"
       x2="16.330667"
       y2="19.6705"
       id="line8837"
       style="fill:none;stroke:#ffffff;stroke-width:0.296307;stroke-linecap:round;stroke-linejoin:round;stroke-miterlimit:10" />
    <line
       class="st51"
       x1="14.399195"
       y1="21.22624"
       x2="14.563234"
       y2="22.927519"
       id="line8839"
       style="fill:none;stroke:#ffffff;stroke-width:0.296307;stroke-linecap:round;stroke-linejoin:round;stroke-miterlimit:10" />
    <line
       class="st51"
       x1="11.54436"
       y1="22.744947"
       x2="9.8219252"
       y2="21.96443"
       id="line8841"
       style="fill:none;stroke:#ffffff;stroke-width:0.296307;stroke-linecap:round;stroke-linejoin:round;stroke-miterlimit:10" />
    <line
       class="st51"
       x1="10.480731"
       y1="22.263411"
       x2="10.028308"
       y2="21.374418"
       id="line8843"
       style="fill:none;stroke:#ffffff;stroke-width:0.296307;stroke-linecap:round;stroke-linejoin:round;stroke-miterlimit:10" />
    <line
       class="st51"
       x1="15.624216"
       y1="20.448378"
       x2="16.473543"
       y2="20.260511"
       id="line8845"
       style="fill:none;stroke:#ffffff;stroke-width:0.296307;stroke-linecap:round;stroke-linejoin:round;stroke-miterlimit:10" />
    <line
       class="st51"
       x1="10.067966"
       y1="17.342161"
       x2="8.9223356"
       y2="17.646421"
       id="line8847"
       style="fill:none;stroke:#ffffff;stroke-width:0.296307;stroke-linecap:round;stroke-linejoin:round;stroke-miterlimit:10" />
    <line
       class="st51"
       x1="9.9356642"
       y1="16.74684"
       x2="9.3615446"
       y2="18.527494"
       id="line8849"
       style="fill:none;stroke:#ffffff;stroke-width:0.296307;stroke-linecap:round;stroke-linejoin:round;stroke-miterlimit:10" />
    <line
       class="st51"
       x1="9.3615446"
       y1="20.130873"
       x2="10.067966"
       y2="19.379454"
       id="line8851"
       style="fill:none;stroke:#ffffff;stroke-width:0.296307;stroke-linecap:round;stroke-linejoin:round;stroke-miterlimit:10" />
    <line
       class="st51"
       x1="17.476297"
       y1="17.342161"
       x2="16.6085"
       y2="16.963804"
       id="line8853"
       style="fill:none;stroke:#ffffff;stroke-width:0.296307;stroke-linecap:round;stroke-linejoin:round;stroke-miterlimit:10" />
    <line
       class="st51"
       x1="16.341257"
       y1="17.905729"
       x2="17.042376"
       y2="17.15431"
       id="line8855"
       style="fill:none;stroke:#ffffff;stroke-width:0.296307;stroke-linecap:round;stroke-linejoin:round;stroke-miterlimit:10" />
    <line
       class="st51"
       x1="16.330667"
       y1="19.6705"
       x2="16.412699"
       y2="18.712706"
       id="line8857"
       style="fill:none;stroke:#ffffff;stroke-width:0.296307;stroke-linecap:round;stroke-linejoin:round;stroke-miterlimit:10" />
    <line
       class="st51"
       x1="17.042376"
       y1="19.3477"
       x2="16.330667"
       y2="19.6705"
       id="line8859"
       style="fill:none;stroke:#ffffff;stroke-width:0.296307;stroke-linecap:round;stroke-linejoin:round;stroke-miterlimit:10" />
    <line
       class="st51"
       x1="15.626863"
       y1="22.07556"
       x2="14.994509"
       y2="21.916807"
       id="line8861"
       style="fill:none;stroke:#ffffff;stroke-width:0.296307;stroke-linecap:round;stroke-linejoin:round;stroke-miterlimit:10" />
    <line
       class="st51"
       x1="11.54436"
       y1="22.744947"
       x2="12.285175"
       y2="22.469786"
       id="line8863"
       style="fill:none;stroke:#ffffff;stroke-width:0.296307;stroke-linecap:round;stroke-linejoin:round;stroke-miterlimit:10" />
    <line
       class="st51"
       x1="12.010036"
       y1="23.245008"
       x2="11.54436"
       y2="22.744947"
       id="line8865"
       style="fill:none;stroke:#ffffff;stroke-width:0.296307;stroke-linecap:round;stroke-linejoin:round;stroke-miterlimit:10" />
    <line
       class="st51"
       x1="10.935809"
       y1="22.469786"
       x2="10.274348"
       y2="22.607359"
       id="line8867"
       style="fill:none;stroke:#ffffff;stroke-width:0.296307;stroke-linecap:round;stroke-linejoin:round;stroke-miterlimit:10" />
    <path
       class="st52"
       d="m 16.476188,12.367992 c 1.82033,1.0504 1.83092,2.75696 0.0212,3.80736 -1.80975,1.05039 -4.75192,1.05304 -6.5748999,0 -1.82033,-1.0504 -1.82827,-2.75696 -0.0212,-3.80736 1.8123999,-1.05039 4.7545699,-1.05039 6.5748999,0 z"
       id="path8869"
       style="opacity:0.8;fill:#66a6a4;stroke-width:0.264583" />
    <polyline
       class="st51"
       points="-1713.89,398.44 -1711.09,398.46 -1704.1,401.95  "
       id="polyline8871"
       style="fill:none;stroke:#ffffff;stroke-width:1.1199;stroke-linecap:round;stroke-linejoin:round;stroke-miterlimit:10"
       transform="matrix(0.26458333,0,0,0.26458333,464.99786,-92.565755)" />
    <line
       class="st51"
       x1="9.8536711"
       y1="13.809965"
       x2="16.208963"
       y2="14.884184"
       id="line8873"
       style="fill:none;stroke:#ffffff;stroke-width:0.296307;stroke-linecap:round;stroke-linejoin:round;stroke-miterlimit:10" />
    <line
       class="st51"
       x1="10.023005"
       y1="14.593138"
       x2="14.827814"
       y2="16.043058"
       id="line8875"
       style="fill:none;stroke:#ffffff;stroke-width:0.296307;stroke-linecap:round;stroke-linejoin:round;stroke-miterlimit:10" />
    <line
       class="st51"
       x1="12.232265"
       y1="13.624769"
       x2="11.565516"
       y2="14.556089"
       id="line8877"
       style="fill:none;stroke:#ffffff;stroke-width:0.296307;stroke-linecap:round;stroke-linejoin:round;stroke-miterlimit:10" />
    <line
       class="st51"
       x1="10.023005"
       y1="15.259886"
       x2="13.618685"
       y2="14.444975"
       id="line8879"
       style="fill:none;stroke:#ffffff;stroke-width:0.296307;stroke-linecap:round;stroke-linejoin:round;stroke-miterlimit:10" />
    <line
       class="st51"
       x1="10.882907"
       y1="15.06674"
       x2="10.554819"
       y2="15.762602"
       id="line8881"
       style="fill:none;stroke:#ffffff;stroke-width:0.296307;stroke-linecap:round;stroke-linejoin:round;stroke-miterlimit:10" />
    <line
       class="st51"
       x1="12.756145"
       y1="14.659285"
       x2="12.6794"
       y2="16.162123"
       id="line8883"
       style="fill:none;stroke:#ffffff;stroke-width:0.296307;stroke-linecap:round;stroke-linejoin:round;stroke-miterlimit:10" />
    <line
       class="st51"
       x1="13.412311"
       y1="15.053511"
       x2="13.848864"
       y2="16.389662"
       id="line8885"
       style="fill:none;stroke:#ffffff;stroke-width:0.296307;stroke-linecap:round;stroke-linejoin:round;stroke-miterlimit:10" />
    <polyline
       class="st51"
       points="-1700.09,407.31 -1705.96,409.28 -1707.26,410.92  "
       id="polyline8887"
       style="fill:none;stroke:#ffffff;stroke-width:1.1199;stroke-linecap:round;stroke-linejoin:round;stroke-miterlimit:10"
       transform="matrix(0.26458333,0,0,0.26458333,464.99786,-92.565755)" />
    <line
       class="st51"
       x1="14.684954"
       y1="14.624891"
       x2="16.552904"
       y2="13.49777"
       id="line8889"
       style="fill:none;stroke:#ffffff;stroke-width:0.296307;stroke-linecap:round;stroke-linejoin:round;stroke-miterlimit:10" />
    <line
       class="st51"
       x1="15.653315"
       y1="13.421034"
       x2="15.523676"
       y2="14.119535"
       id="line8891"
       style="fill:none;stroke:#ffffff;stroke-width:0.296307;stroke-linecap:round;stroke-linejoin:round;stroke-miterlimit:10" />
    <line
       class="st51"
       x1="14.962755"
       y1="12.67491"
       x2="13.618685"
       y2="14.444975"
       id="line8893"
       style="fill:none;stroke:#ffffff;stroke-width:0.296307;stroke-linecap:round;stroke-linejoin:round;stroke-miterlimit:10" />
    <polyline
       class="st51"
       points="-1704.71,396.43 -1702.37,399.67 -1700.45,399.83  "
       id="polyline8895"
       style="fill:none;stroke:#ffffff;stroke-width:1.1199;stroke-linecap:round;stroke-linejoin:round;stroke-miterlimit:10"
       transform="matrix(0.26458333,0,0,0.26458333,464.99786,-92.565755)" />
    <line
       class="st51"
       x1="10.287601"
       y1="13.222593"
       x2="10.837916"
       y2="13.976652"
       id="line8897"
       style="fill:none;stroke:#ffffff;stroke-width:0.296307;stroke-linecap:round;stroke-linejoin:round;stroke-miterlimit:10" />
    <line
       class="st51"
       x1="12.271968"
       y1="12.860121"
       x2="11.877734"
       y2="12.190718"
       id="line8899"
       style="fill:none;stroke:#ffffff;stroke-width:0.296307;stroke-linecap:round;stroke-linejoin:round;stroke-miterlimit:10" />
    <line
       class="st51"
       x1="13.393793"
       y1="13.421034"
       x2="13.843576"
       y2="13.180265"
       id="line8901"
       style="fill:none;stroke:#ffffff;stroke-width:0.296307;stroke-linecap:round;stroke-linejoin:round;stroke-miterlimit:10" />
    <line
       class="st51"
       x1="14.40449"
       y1="12.233061"
       x2="14.258989"
       y2="12.738417"
       id="line8903"
       style="fill:none;stroke:#ffffff;stroke-width:0.296307;stroke-linecap:round;stroke-linejoin:round;stroke-miterlimit:10" />
    <line
       class="st51"
       x1="15.85705"
       y1="13.918455"
       x2="16.32802"
       y2="14.13806"
       id="line8905"
       style="fill:none;stroke:#ffffff;stroke-width:0.296307;stroke-linecap:round;stroke-linejoin:round;stroke-miterlimit:10" />
    <line
       class="st51"
       x1="14.274843"
       y1="14.556089"
       x2="14.40449"
       y2="14.992659"
       id="line8907"
       style="fill:none;stroke:#ffffff;stroke-width:0.296307;stroke-linecap:round;stroke-linejoin:round;stroke-miterlimit:10" />
    <polyline
       class="st51"
       points="-1697.37,408.1 -1698.29,405.76 -1697.01,404.56  "
       id="polyline8909"
       style="fill:none;stroke:#ffffff;stroke-width:1.1199;stroke-linecap:round;stroke-linejoin:round;stroke-miterlimit:10"
       transform="matrix(0.26458333,0,0,0.26458333,464.99786,-92.565755)" />
    <line
       class="st51"
       x1="14.560617"
       y1="15.410704"
       x2="15.042147"
       y2="15.622374"
       id="line8911"
       style="fill:none;stroke:#ffffff;stroke-width:0.296307;stroke-linecap:round;stroke-linejoin:round;stroke-miterlimit:10" />
    <line
       class="st51"
       x1="12.716449"
       y1="15.442457"
       x2="12.17937"
       y2="15.762602"
       id="line8913"
       style="fill:none;stroke:#ffffff;stroke-width:0.296307;stroke-linecap:round;stroke-linejoin:round;stroke-miterlimit:10" />
    <polyline
       class="st51"
       points="-1712.41,407.18 -1714.43,408.79 -1715.72,409.83  "
       id="polyline8915"
       style="fill:none;stroke:#ffffff;stroke-width:1.1199;stroke-linecap:round;stroke-linejoin:round;stroke-miterlimit:10"
       transform="matrix(0.26458333,0,0,0.26458333,464.99786,-92.565755)" />
    <line
       class="st51"
       x1="11.748096"
       y1="16.175352"
       x2="11.483516"
       y2="15.516539"
       id="line8917"
       style="fill:none;stroke:#ffffff;stroke-width:0.296307;stroke-linecap:round;stroke-linejoin:round;stroke-miterlimit:10" />
    <line
       class="st51"
       x1="11.269191"
       y1="13.222593"
       x2="11.864497"
       y2="14.13806"
       id="line8919"
       style="fill:none;stroke:#ffffff;stroke-width:0.296307;stroke-linecap:round;stroke-linejoin:round;stroke-miterlimit:10" />
    <line
       class="st51"
       x1="10.533641"
       y1="13.558622"
       x2="10.843211"
       y2="12.984465"
       id="line8921"
       style="fill:none;stroke:#ffffff;stroke-width:0.296307;stroke-linecap:round;stroke-linejoin:round;stroke-miterlimit:10" />
    <path
       class="st29"
       d="m 13.629268,6.1449914 c 0,-0.0635 -0.0423,-0.1270002 -0.12435,-0.1746202 -0.16669,-0.0953 -0.43656,-0.0953 -0.60061,0 -0.082,0.0476 -0.12435,0.1111202 -0.12435,0.1746202 v 8.3290806 c 0,0.0635 0.0423,0.127 0.12435,0.17463 0.16669,0.0952 0.43657,0.0952 0.60061,0 0.082,-0.0476 0.12435,-0.11113 0.12435,-0.17463 z"
       id="path8923"
       style="fill:#4c5456;stroke-width:0.264583" />
    <g
       id="g8937"
       transform="matrix(0.26458333,0,0,0.26458333,464.99786,-92.565755)">
      <defs
         id="defs8926">
        <path
           id="path13410"
           d="m -1690.02,379.55 c -0.01,-2.6 -1.74,-5.21 -5.19,-7.2 -6.88,-3.97 -18,-3.97 -24.84,0 -3.42,1.99 -5.12,4.59 -5.11,7.19 v 49.54 c 0.01,2.6 1.74,5.21 5.18,7.2 6.89,3.97 18.01,3.97 24.85,0 3.42,-1.99 5.12,-4.59 5.11,-7.2 z" />
      </defs>
      <clipPath
         id="clipPath13138">
        <use
           xlink:href="#SVGID_3_"
           style="overflow:visible"
           id="use13136"
           x="0"
           y="0"
           width="100%"
           height="100%" />
      </clipPath>
      <rect
         x="-1720.98"
         y="380.48001"
         class="st67"
         width="3.8599999"
         height="57.77"
         clip-path="url(#SVGID_4_)"
         id="rect8931" />
      <rect
         x="-1723.95"
         y="380.79001"
         class="st67"
         width="1.86"
         height="57.77"
         clip-path="url(#SVGID_4_)"
         id="rect8933" />
      <rect
         x="-1693.26"
         y="380.48001"
         class="st67"
         width="1.86"
         height="57.77"
         clip-path="url(#SVGID_4_)"
         id="rect8935" />
    </g>
    <path
       class="st36"
       d="m 7.8825181,7.4255814 v 0.510641 c 0,0.78846 0.52388,1.57956 1.56898,2.1828096 2.0822699,1.20121 5.4477699,1.20915 7.5168099,0.0132 1.02923,-0.5953096 1.54517,-1.3758296 1.54517,-2.1589996 v -0.510641 z"
       id="path8939"
       style="fill:#657073;stroke-width:0.264583" />
    <path
       class="st27"
       d="m 18.516128,7.4652614 c 0,0.783171 -0.51594,1.563691 -1.54517,2.159001 -2.06904,1.1959196 -5.43454,1.1879796 -7.5168099,-0.0132 -1.04511,-0.60325 -1.56898,-1.39435 -1.56898,-2.182811 0,-0.78317 0.51594,-1.5636902 1.54516,-2.1589992 2.0690499,-1.19592 5.4345499,-1.18798 7.5168199,0.0132 1.0451,0.603249 1.56898,1.3943492 1.56898,2.1828092 z"
       id="path8941"
       style="fill:#a3a9ab;stroke-width:0.264583" />
    <path
       class="st23"
       d="m 16.473538,7.9044724 h -0.26458 v 1.35467 c 0,0.0185 0.0132,0.0397 0.0397,0.0556 0.0529,0.0291 0.13493,0.0291 0.18785,0 0.0265,-0.0159 0.0397,-0.0344 0.0397,-0.0529 0,0 0,0 0,0 v 0 -1.35731 z"
       id="path8943"
       style="fill:#33383a;stroke-width:0.264583" />
    <path
       class="st23"
       d="m 9.0572681,6.7456014 h -0.26458 v 1.354661 c 0,0.0185 0.0132,0.0397 0.0397,0.0556 0.0529,0.0291 0.13493,0.0291 0.18785,0 0.0265,-0.0159 0.0397,-0.0344 0.0397,-0.0529 v 0 0 -1.357311 z"
       id="path8945"
       style="fill:#33383a;stroke-width:0.264583" />
    <path
       class="st23"
       d="m 12.197878,8.5579924 h -0.26459 v 1.35467 c 0,0.0185 0.0132,0.0397 0.0397,0.0556 0.0529,0.0291 0.13494,0.0291 0.18785,0 0.0265,-0.0159 0.0397,-0.0344 0.0397,-0.0529 0,0 0,0 0,0 v 0 -1.35731 z"
       id="path8947"
       style="fill:#33383a;stroke-width:0.264583" />
    <path
       class="st36"
       d="m 7.8825181,5.3803522 v 0.510639 c 0,0.7884602 0.52388,1.5795602 1.56898,2.1828112 2.0822699,1.20121 5.4477699,1.20915 7.5168099,0.0132 1.02923,-0.595311 1.54517,-1.375831 1.54517,-2.1590012 v -0.510639 z"
       id="path8949"
       style="fill:#657073;stroke-width:0.264583" />
    <path
       class="st27"
       d="m 18.516128,5.4200322 c 0,0.7831692 -0.51594,1.5636892 -1.54517,2.1589992 -2.06904,1.195921 -5.43454,1.187981 -7.5168099,-0.0132 -1.04511,-0.60325 -1.56898,-1.39435 -1.56898,-2.1828092 0,-0.78316 0.51594,-1.56369 1.54516,-2.159 2.0690499,-1.19591 5.4345499,-1.18798 7.5168199,0.0132 1.0451,0.60325 1.56898,1.39436 1.56898,2.18281 z"
       id="path8951"
       style="fill:#a3a9ab;stroke-width:0.264583" />
    <path
       class="st21"
       d="m 14.687608,3.3060122 v 0.82286 0 c 0.003,0.10318 0.0714,0.20637 0.20902,0.28575 0.27781,0.16139 0.7276,0.16139 1.00277,0.003 0.13758,-0.0794 0.20637,-0.18256 0.20637,-0.28839 v -0.82286 z"
       id="path8953"
       style="fill:#366029;stroke-width:0.264583" />
    <path
       class="st20"
       d="m 16.103128,3.3113022 c 0,0.10319 -0.0688,0.20903 -0.20638,0.2884 -0.27517,0.15875 -0.72496,0.15875 -1.00277,-0.003 -0.14023,-0.0794 -0.20902,-0.1852 -0.20902,-0.29104 0,-0.10318 0.0688,-0.20902 0.20637,-0.28839 0.27517,-0.15875 0.72496,-0.15875 1.00278,0.003 0.14022,0.0794 0.20902,0.18521 0.20902,0.29104 z"
       id="path8955"
       style="fill:#508f3d;stroke-width:0.264583" />
    <path
       class="st21"
       d="m 14.864878,2.8959122 v 0.41275 0 c 0.003,0.0767 0.0529,0.1561 0.1561,0.21431 0.20902,0.11906 0.54504,0.12171 0.75142,0.003 0.10318,-0.0582 0.15346,-0.13759 0.15346,-0.21696 v -0.41275 z"
       id="path8957"
       style="fill:#366029;stroke-width:0.264583" />
    <path
       class="st20"
       d="m 15.928498,2.9012022 c 0,0.0794 -0.0503,0.1561 -0.15346,0.21696 -0.20637,0.11906 -0.54239,0.11906 -0.75141,-0.003 -0.10584,-0.0609 -0.15611,-0.14023 -0.15611,-0.21696 0,-0.0794 0.0503,-0.1561 0.15346,-0.21695 0.20638,-0.11907 0.5424,-0.11907 0.75142,0.003 0.10318,0.0582 0.1561,0.13759 0.1561,0.21696 z"
       id="path8959"
       style="fill:#508f3d;stroke-width:0.264583" />
    <path
       class="st23"
       d="m 15.042148,1.6708922 v 1.23031 0 c 0,0.0529 0.0344,0.10319 0.10318,0.14288 0.13759,0.0794 0.36248,0.0794 0.50007,0 0.0688,-0.0397 0.10318,-0.0926 0.10318,-0.14288 v -1.23031 z"
       id="path8961"
       style="fill:#33383a;stroke-width:0.264583" />
    <path
       class="st36"
       d="m 15.751228,1.6735322 c 0,0.0529 -0.0344,0.10319 -0.10319,0.14288 -0.13758,0.0794 -0.36248,0.0794 -0.50006,0 -0.0688,-0.0397 -0.10583,-0.0926 -0.10583,-0.14552 0,-0.0529 0.0344,-0.10319 0.10318,-0.14288 0.13759,-0.0794 0.36248,-0.0794 0.50007,0 0.0688,0.0397 0.10583,0.0926 0.10583,0.14552 z"
       id="path8963"
       style="fill:#657073;stroke-width:0.264583" />
    <path
       class="st39"
       d="m 11.494078,2.8588722 v 2.46062 c 0,0.254 0.16669,0.505359 0.50271,0.698499 0.66675,0.3862902 1.74625,0.3862902 2.41036,0.005 0.33073,-0.1905 0.49477,-0.441849 0.49477,-0.690559 v -2.46062 z"
       id="path8965"
       style="fill:#424b4c;stroke-width:0.264583" />
    <path
       class="st54"
       d="m 15.073898,2.2794322 v 0.59002 c 0,0.27517 -0.18257,0.55033 -0.54504,0.762 -0.73025,0.42069 -1.91559,0.41804 -2.65113,-0.005 -0.36777,-0.21167 -0.55298,-0.49213 -0.55298,-0.76994 v -0.59002 l 3.74915,0.0132"
       id="path8967"
       style="fill:#bf8330;stroke-width:0.264583" />
    <path
       class="st55"
       d="m 15.073898,2.2794322 c 0,0.27517 -0.18257,0.55033 -0.54504,0.762 -0.73025,0.42069 -1.91559,0.41804 -2.65113,-0.005 -0.36777,-0.21167 -0.55298,-0.49213 -0.55298,-0.76994 0,-0.27517 0.18256,-0.55033 0.54504,-0.762 0.73025,-0.42069 1.91559,-0.41804 2.65113,0.005 0.36777,0.21431 0.55298,0.49213 0.55298,0.76994 z"
       id="path8969"
       style="fill:#ffc052;stroke-width:0.264583" />
    <path
       class="st30"
       d="m 14.732578,2.2794322 c 0,0.2249 -0.14816,0.44979 -0.44714,0.62177 -0.59796,0.34396 -1.56898,0.34396 -2.16958,-0.003 -0.30163,-0.17462 -0.45244,-0.40216 -0.45244,-0.6297 0,-0.2249 0.14816,-0.4498 0.44714,-0.62177 0.59796,-0.34396 1.56898,-0.34396 2.16959,0.003 0.30162,0.17463 0.45243,0.40217 0.45243,0.62971 z"
       id="path8971"
       style="fill:#d9a13f;stroke-width:0.264583" />
    <path
       class="st23"
       d="m 12.943998,1.6814722 v 0.59267 0 c 0,0.037 0.0265,0.0741 0.0741,0.10319 0.10055,0.0582 0.26194,0.0582 0.36248,0 0.0503,-0.0291 0.0741,-0.0661 0.0741,-0.10319 v -0.59267 z"
       id="path8973"
       style="fill:#33383a;stroke-width:0.264583" />
    <path
       class="st39"
       d="m 12.772018,0.76337224 v 0.92074996 0 c 0.003,0.0635 0.0423,0.12435 0.12436,0.17198 0.16668,0.0952 0.43656,0.0979 0.60325,0 0.082,-0.0476 0.12435,-0.11113 0.12435,-0.17198 V 0.76337224 Z"
       id="path8975"
       style="fill:#424b4c;stroke-width:0.264583" />
    <path
       class="st36"
       d="m 13.623978,0.76601224 c 0,0.0635 -0.0423,0.12436 -0.12435,0.17198 -0.16669,0.0953 -0.43657,0.0953 -0.60325,0 -0.0847,-0.0476 -0.127,-0.11112 -0.127,-0.17462 0,-0.0635 0.0423,-0.12436 0.12435,-0.17198 0.16669,-0.0952 0.43656,-0.0952 0.60325,0 0.0873,0.0476 0.127,0.11112 0.127,0.17462 z"
       id="path8977"
       style="fill:#657073;stroke-width:0.264583" />
    <path
       class="st23"
       d="m 16.076668,6.5947814 v 0.61648 0 c 0,0.0397 0.0265,0.0767 0.0794,0.10848 0.10319,0.0609 0.27252,0.0609 0.37571,0 0.0503,-0.0291 0.0767,-0.0688 0.0767,-0.10848 v -0.61648 z"
       id="path8979"
       style="fill:#33383a;stroke-width:0.264583" />
    <path
       class="st36"
       d="m 16.608478,6.5974314 c 0,0.0397 -0.0265,0.0794 -0.0767,0.10848 -0.10319,0.0609 -0.27252,0.0582 -0.37571,0 -0.0529,-0.0291 -0.0794,-0.0688 -0.0794,-0.10848 0,-0.0397 0.0265,-0.0794 0.0767,-0.10848 0.10318,-0.0608 0.27252,-0.0582 0.37571,0 0.0529,0.0291 0.0794,0.0688 0.0794,0.10848 z"
       id="path8981"
       style="fill:#657073;stroke-width:0.264583" />
    <path
       class="st23"
       d="m 17.209078,4.1262222 v 0.61648 0 c 0,0.0397 0.0265,0.0767 0.0794,0.10848 0.10319,0.0608 0.27252,0.0608 0.37571,0 0.0503,-0.0291 0.0767,-0.0688 0.0767,-0.10848 v -0.61648 z"
       id="path8983"
       style="fill:#33383a;stroke-width:0.264583" />
    <path
       class="st36"
       d="m 17.740898,4.1288722 c 0,0.0397 -0.0265,0.0794 -0.0767,0.10848 -0.10319,0.0608 -0.27252,0.0582 -0.37571,0 -0.0529,-0.0291 -0.0794,-0.0688 -0.0794,-0.10848 0,-0.0397 0.0265,-0.0794 0.0767,-0.10848 0.10319,-0.0609 0.27252,-0.0582 0.37571,0 0.0529,0.0291 0.0794,0.0688 0.0794,0.10848 z"
       id="path8985"
       style="fill:#657073;stroke-width:0.264583" />
    <path
       class="st23"
       d="m 11.800998,7.2483014 v 0.616481 0 c 0,0.0397 0.0265,0.0767 0.0794,0.10848 0.10318,0.0609 0.27252,0.0609 0.3757,0 0.0503,-0.0291 0.0767,-0.0688 0.0767,-0.10848 v -0.616481 z"
       id="path8987"
       style="fill:#33383a;stroke-width:0.264583" />
    <path
       class="st36"
       d="m 12.332808,7.2509514 c 0,0.0397 -0.0264,0.0794 -0.0767,0.10848 -0.10318,0.0608 -0.27252,0.0582 -0.3757,0 -0.0529,-0.0291 -0.0794,-0.0688 -0.0794,-0.10848 0,-0.0397 0.0265,-0.0794 0.0767,-0.10848 0.10319,-0.0609 0.27252,-0.0582 0.37571,0 0.0529,0.0291 0.0794,0.0688 0.0794,0.10848 z"
       id="path8989"
       style="fill:#657073;stroke-width:0.264583" />
    <path
       class="st23"
       d="m 8.6577481,5.4332622 v 0.6164792 0 c 0,0.0397 0.0265,0.0767 0.0794,0.10848 0.10318,0.0609 0.27252,0.0609 0.3757,0 0.0503,-0.0291 0.0767,-0.0688 0.0767,-0.10848 V 5.4332622 Z"
       id="path8991"
       style="fill:#33383a;stroke-width:0.264583" />
    <path
       class="st36"
       d="m 9.1895581,5.4359122 c 0,0.0397 -0.0264,0.0794 -0.0767,0.10848 -0.10318,0.0608 -0.27252,0.0582 -0.3757,0 -0.0529,-0.0291 -0.0794,-0.0688 -0.0794,-0.10848 0,-0.0397 0.0265,-0.0794 0.0767,-0.10848 0.10319,-0.0608 0.27252,-0.0582 0.37571,0 0.0529,0.0291 0.0794,0.0688 0.0794,0.10848 z"
       id="path8993"
       style="fill:#657073;stroke-width:0.264583" />
    <path
       class="st23"
       d="m 9.7901681,2.9647022 v 0.61648 0 c 0,0.0397 0.0265,0.0767 0.0794,0.10848 0.10319,0.0608 0.2725199,0.0608 0.3757099,0 0.0503,-0.0291 0.0767,-0.0688 0.0767,-0.10848 v -0.61648 z"
       id="path8995"
       style="fill:#33383a;stroke-width:0.264583" />
    <path
       class="st36"
       d="m 10.321978,2.9673522 c 0,0.0397 -0.0265,0.0794 -0.0767,0.10848 -0.10319,0.0608 -0.2725199,0.0582 -0.3757099,0 -0.0529,-0.0291 -0.0794,-0.0688 -0.0794,-0.10848 0,-0.0397 0.0265,-0.0794 0.0767,-0.10848 0.10318,-0.0609 0.2725199,-0.0582 0.3757099,0 0.0529,0.0291 0.0794,0.0688 0.0794,0.10848 z"
       id="path8997"
       style="fill:#657073;stroke-width:0.264583" />
    <path
       class="st23"
       d="m 15.931148,5.5047022 v 0.206379 0 c 0,0.0397 0.0265,0.0767 0.0794,0.10847 0.10319,0.0609 0.27252,0.0609 0.37571,0 0.0503,-0.0291 0.0767,-0.0688 0.0767,-0.10847 v -0.206379 z"
       id="path8999"
       style="fill:#33383a;stroke-width:0.264583" />
    <path
       class="st36"
       d="m 16.462958,5.5073522 c 0,0.0397 -0.0265,0.0794 -0.0767,0.10848 -0.10319,0.060899 -0.27252,0.0582 -0.37571,0 -0.0529,-0.0291 -0.0794,-0.0688 -0.0794,-0.10848 0,-0.0397 0.0265,-0.0794 0.0767,-0.10848 0.10318,-0.0609 0.27252,-0.0582 0.3757,0 0.0529,0.0291 0.0794,0.0688 0.0794,0.10848 z"
       id="path9001"
       style="fill:#657073;stroke-width:0.264583" />
    <path
       class="st23"
       d="m 16.330668,4.8935122 h -0.26459 v 0.61384 c 0,0.0185 0.0132,0.0397 0.0397,0.0556 0.0529,0.0291 0.13494,0.0291 0.18786,0 0.0265,-0.0159 0.0397,-0.0344 0.0397,-0.0529 0,0 0,0 0,0 v 0 -0.61648 z"
       id="path9003"
       style="fill:#33383a;stroke-width:0.264583" />
    <path
       class="st36"
       d="m 16.330668,4.8935122 c 0,0.0185 -0.0132,0.0397 -0.0397,0.0529 -0.0529,0.0291 -0.13494,0.0291 -0.18785,0 -0.0265,-0.0159 -0.0397,-0.0344 -0.0397,-0.0556 0,-0.0185 0.0132,-0.0397 0.0397,-0.0529 0.0529,-0.0291 0.13493,-0.0291 0.18785,0 0.0265,0.0159 0.0397,0.0344 0.0397,0.0556 z"
       id="path9005"
       style="fill:#657073;stroke-width:0.264583" />
    <path
       class="st23"
       d="m 13.745688,7.0736814 v 0.20637 0 c 0,0.0397 0.0265,0.0767 0.0794,0.10848 0.10319,0.0609 0.27252,0.0609 0.37571,0 0.0503,-0.0291 0.0767,-0.0688 0.0767,-0.10848 v -0.20637 z"
       id="path9007"
       style="fill:#33383a;stroke-width:0.264583" />
    <path
       class="st36"
       d="m 14.277498,7.0763314 c 0,0.0397 -0.0265,0.0794 -0.0767,0.10847 -0.10319,0.0609 -0.27252,0.0582 -0.37571,0 -0.0529,-0.0291 -0.0794,-0.0688 -0.0794,-0.10847 0,-0.0397 0.0265,-0.0794 0.0767,-0.10848 0.10319,-0.0609 0.27252,-0.0582 0.37571,0 0.0529,0.0291 0.0794,0.0688 0.0794,0.10848 z"
       id="path9009"
       style="fill:#657073;stroke-width:0.264583" />
    <path
       class="st23"
       d="m 14.145208,6.4624914 h -0.26458 v 0.61384 c 0,0.0185 0.0132,0.0397 0.0397,0.0556 0.0529,0.0291 0.13494,0.0291 0.18786,0 0.0265,-0.0159 0.0397,-0.0344 0.0397,-0.0529 0,0 0,0 0,0 v 0 -0.61648 z"
       id="path9011"
       style="fill:#33383a;stroke-width:0.264583" />
    <path
       class="st36"
       d="m 14.145208,6.4624914 c 0,0.0185 -0.0132,0.0397 -0.0397,0.0529 -0.0529,0.0291 -0.13494,0.0291 -0.18785,0 -0.0265,-0.0159 -0.0397,-0.0344 -0.0397,-0.0556 0,-0.0185 0.0132,-0.0397 0.0397,-0.0529 0.0529,-0.0291 0.13494,-0.0291 0.18785,0 0.0265,0.0159 0.0397,0.0344 0.0397,0.0556 z"
       id="path9013"
       style="fill:#657073;stroke-width:0.264583" />
    <path
       class="st21"
       d="m 10.303458,5.8354312 v 0.8228502 0 c 0.003,0.10319 0.0714,0.20638 0.20902,0.28575 0.27781,0.1614 0.7276,0.1614 1.00277,0.003 0.13758,-0.0794 0.20638,-0.18256 0.20638,-0.2884 V 5.8357812 Z"
       id="path9015"
       style="fill:#366029;stroke-width:0.264583" />
    <path
       class="st20"
       d="m 11.721628,5.8407212 c 0,0.10319 -0.0688,0.2090202 -0.20638,0.2884002 -0.27517,0.15875 -0.72496,0.15875 -1.00277,-0.003 -0.14023,-0.0794 -0.20902,-0.1852102 -0.20902,-0.2910402 0,-0.10319 0.0688,-0.209019 0.20637,-0.288399 0.27517,-0.15875 0.72496,-0.15875 1.00278,0.003 0.14022,0.082 0.20902,0.185209 0.20902,0.291039 z"
       id="path9017"
       style="fill:#508f3d;stroke-width:0.264583" />
    <path
       class="st21"
       d="m 10.480728,5.4279722 v 0.412749 0 c 0.003,0.0767 0.0529,0.15611 0.1561,0.2143102 0.20903,0.11907 0.54505,0.12171 0.75142,0.003 0.10319,-0.0582 0.15346,-0.1375802 0.15346,-0.2169602 v -0.412749 z"
       id="path9019"
       style="fill:#366029;stroke-width:0.264583" />
    <path
       class="st20"
       d="m 11.544358,5.4306222 c 0,0.0794 -0.0503,0.1561 -0.15346,0.2169595 -0.20638,0.1190595 -0.5424,0.1190595 -0.75142,-0.003 -0.10583,-0.060799 -0.1561,-0.1402295 -0.1561,-0.2169595 0,-0.0794 0.0503,-0.1561 0.15345,-0.21696 0.20638,-0.11906 0.5424,-0.11906 0.75142,0.003 0.10319,0.0608 0.15611,0.13758 0.15611,0.21696 z"
       id="path9021"
       style="fill:#508f3d;stroke-width:0.264583" />
    <path
       class="st23"
       d="m 10.657998,4.2003022 v 1.23032 0 c 0,0.0529 0.0344,0.10318 0.10319,0.14287 0.13758,0.079399 0.36248,0.079399 0.50006,0 0.0688,-0.0397 0.10319,-0.0926 0.10319,-0.14287 v -1.23032 z"
       id="path9023"
       style="fill:#33383a;stroke-width:0.264583" />
    <path
       class="st36"
       d="m 11.367078,4.2029522 c 0,0.0529 -0.0344,0.10319 -0.10318,0.14288 -0.13759,0.0794 -0.36248,0.0794 -0.50007,0 -0.0688,-0.0397 -0.10583,-0.0926 -0.10583,-0.14553 0,-0.0529 0.0344,-0.10318 0.10319,-0.14287 0.13758,-0.0794 0.36248,-0.0794 0.50006,0 0.0714,0.0397 0.10583,0.0926 0.10583,0.14552 z"
       id="path9025"
       style="fill:#657073;stroke-width:0.264583" />
    <path
       class="st23"
       d="m 9.9356881,4.7215322 v 0.20638 0 c 0,0.0397 0.0265,0.0767 0.0794,0.10848 0.10319,0.0609 0.27252,0.0609 0.37571,0 0.0503,-0.0291 0.0767,-0.0688 0.0767,-0.10848 v -0.20638 z"
       id="path9027"
       style="fill:#33383a;stroke-width:0.264583" />
    <path
       class="st36"
       d="m 10.467498,4.7215322 c 0,0.0397 -0.0265,0.0794 -0.0767,0.10848 -0.10319,0.0609 -0.27252,0.0582 -0.37571,0 -0.0529,-0.0291 -0.0794,-0.0688 -0.0794,-0.10848 0,-0.0397 0.0265,-0.0794 0.0767,-0.10848 0.10319,-0.0608 0.27252,-0.0582 0.37571,0 0.0529,0.0291 0.0794,0.0688 0.0794,0.10848 z"
       id="path9029"
       style="fill:#657073;stroke-width:0.264583" />
    <path
       class="st23"
       d="m 10.332558,4.1077022 h -0.26458 v 0.61383 c 0,0.0185 0.0132,0.0397 0.0397,0.0556 0.0529,0.0291 0.13494,0.0291 0.18785,0 0.0265,-0.0159 0.0397,-0.0344 0.0397,-0.0529 0,0 0,0 0,0 v 0 -0.61648 z"
       id="path9031"
       style="fill:#33383a;stroke-width:0.264583" />
    <path
       class="st36"
       d="m 10.332558,4.1077022 c 0,0.0185 -0.0132,0.0397 -0.0397,0.0529 -0.0529,0.0291 -0.13494,0.0291 -0.18786,0 -0.0265,-0.0159 -0.0397,-0.0344 -0.0397,-0.0556 0,-0.0185 0.0132,-0.0397 0.0397,-0.0529 0.0529,-0.0291 0.13494,-0.0291 0.18786,0 0.0291,0.0159 0.0397,0.037 0.0397,0.0556 z"
       id="path9033"
       style="fill:#657073;stroke-width:0.264583" />
  </g>
</svg>
