<?xml version="1.0" encoding="UTF-8" standalone="no"?>
<svg
   xmlns:dc="http://purl.org/dc/elements/1.1/"
   xmlns:cc="http://creativecommons.org/ns#"
   xmlns:rdf="http://www.w3.org/1999/02/22-rdf-syntax-ns#"
   xmlns:svg="http://www.w3.org/2000/svg"
   xmlns="http://www.w3.org/2000/svg"
   xmlns:sodipodi="http://sodipodi.sourceforge.net/DTD/sodipodi-0.dtd"
   xmlns:inkscape="http://www.inkscape.org/namespaces/inkscape"
   width="146mm"
   height="47mm"
   viewBox="0 0 146 47"
   version="1.1"
   id="svg884"
   inkscape:version="1.0.2 (e86c8708, 2021-01-15)"
   sodipodi:docname="logo.svg">
  <defs
     id="defs878" />
  <sodipodi:namedview
     id="base"
     pagecolor="#ffffff"
     bordercolor="#666666"
     borderopacity="1.0"
     inkscape:pageopacity="0.0"
     inkscape:pageshadow="2"
     inkscape:zoom="0.40335824"
     inkscape:cx="9.4882662"
     inkscape:cy="482.98383"
     inkscape:document-units="mm"
     inkscape:current-layer="layer1"
     inkscape:document-rotation="0"
     showgrid="false"
     inkscape:window-width="1252"
     inkscape:window-height="847"
     inkscape:window-x="0"
     inkscape:window-y="25"
     inkscape:window-maximized="0" />
  <metadata
     id="metadata881">
    <rdf:RDF>
      <cc:Work
         rdf:about="">
        <dc:format>image/svg+xml</dc:format>
        <dc:type
           rdf:resource="http://purl.org/dc/dcmitype/StillImage" />
        <dc:title></dc:title>
      </cc:Work>
    </rdf:RDF>
  </metadata>
  <g
     inkscape:label="Layer 1"
     inkscape:groupmode="layer"
     id="layer1">
    <path
       style="fill:#606060;fill-opacity:1;stroke:none;stroke-width:0.264583px;stroke-linecap:butt;stroke-linejoin:miter;stroke-opacity:1"
       d="m 34.386668,31.828373 0.0791,7.41788 1.17263,-0.0131 -0.0659,-7.37836 2.77347,-0.0428 0.003,-0.84654 -6.58453,-0.003 -0.0165,0.863 z"
       id="path3859"
       inkscape:connector-curvature="0"
       sodipodi:nodetypes="ccccccccc" />
    <path
       style="fill:#606060;fill-opacity:1;stroke:none;stroke-width:0.264583px;stroke-linecap:butt;stroke-linejoin:miter;stroke-opacity:1"
       d="m 40.627948,33.174553 c -0.0361,-0.002 -0.0746,-0.002 -0.11886,0.003 -0.0885,0.009 -0.23764,0.0418 -0.27956,0.0512 -0.0419,0.009 2e-4,-0.0187 -0.13023,0.0233 -0.13043,0.0419 -0.21904,0.0702 -0.25631,0.0842 -0.0373,0.014 -0.28423,0.0884 -0.28422,0.0884 l -0.13023,0.093 -0.29559,0.15909 c 0,0 -0.0529,0.0623 -0.076,0.0754 -0.0231,0.0132 -0.0298,0.0103 -0.0594,0.0398 -0.0297,0.0297 -0.15141,0.1478 -0.15141,0.1478 0,0 -0.11828,0.11549 -0.12816,0.12867 -0.01,0.0132 -0.14521,0.18759 -0.14521,0.18759 l -0.0988,0.14673 -0.0838,0.12861 -0.17607,0.28173 -0.0858,0.16433 -0.0987,0.21084 -0.0398,0.28991 -0.0429,0.27026 -0.0362,0.13178 -0.0129,0.15813 v 0.14831 0.14469 c 0,0.023 -0.007,0.18449 -0.007,0.18449 l 0.0134,0.20774 0.0393,0.21704 0.0233,0.18138 0.0656,0.18449 0.0858,0.25373 0.1416,0.36845 0.0822,0.18449 0.10904,0.16174 0.14159,0.16123 0.13488,0.0956 0.16174,0.12506 0.16124,0.10542 0.16795,0.10852 0.20773,0.12558 c 0,0 0.23675,0.0725 0.25322,0.0791 0.0165,0.007 0.37259,0.11834 0.37259,0.11834 l 0.43769,0.0987 0.3328,0.0103 0.38861,0.0165 0.40876,-0.003 0.35553,-0.0362 0.21394,-0.0594 0.32608,-0.0656 0.22738,-0.0729 0.23719,-0.0822 0.12506,-0.0625 -0.19431,-0.68213 -0.33228,0.0925 -0.31625,0.092 c 0,0 -0.31962,0.0496 -0.3328,0.0496 -0.0132,0 -0.34933,0.0264 -0.34933,0.0264 l -0.2403,0.0165 -0.2868,-0.0232 c 0,0 -0.10873,0.003 -0.13178,0.003 -0.023,0 -0.19069,-0.0133 -0.21704,-0.0165 -0.0263,-0.003 -0.0725,-0.007 -0.0889,-0.01 -0.0165,-0.003 -0.1912,-0.0429 -0.1912,-0.0429 l -0.26045,-0.0791 -0.17105,-0.0889 c 0,0 -0.15477,-0.0793 -0.16795,-0.0858 -0.0132,-0.007 -0.13856,-0.10826 -0.15503,-0.12144 -0.0165,-0.0132 -0.23358,-0.1881 -0.23358,-0.1881 0,0 -0.0955,-0.0855 -0.10542,-0.0987 -0.01,-0.0132 -0.056,-0.10187 -0.0791,-0.11833 -0.023,-0.0165 -0.13539,-0.21756 -0.13539,-0.21756 l -0.0656,-0.17105 -0.0553,-0.13901 -0.0563,-0.13488 0.002,-0.0744 -0.007,-0.13746 v -0.0977 c 0,-0.0116 0.005,-0.17001 0.005,-0.17001 l 0.005,-0.061 0.015,0.007 4.53202,-0.0264 0.004,-0.33693 0.0139,-0.44752 c 0,0 -0.0558,-0.29813 -0.0558,-0.32608 0,-0.028 -0.0837,-0.39584 -0.0837,-0.39584 l -0.14935,-0.31212 -0.0977,-0.21446 -0.16794,-0.2651 -0.14418,-0.16795 c 0,0 -0.15862,-0.16275 -0.17725,-0.18138 -0.0186,-0.0186 -0.1674,-0.15397 -0.19069,-0.1726 -0.0233,-0.0186 -0.26555,-0.17723 -0.30282,-0.1912 -0.0373,-0.014 -0.28874,-0.093 -0.36794,-0.12093 -0.0792,-0.0279 -0.27021,-0.0883 -0.30282,-0.093 -0.0326,-0.005 -0.36321,-0.0326 -0.40514,-0.0326 -0.0419,0 -0.26085,0.005 -0.33073,0 -0.035,-0.002 -0.0688,-0.006 -0.10491,-0.008 z m 0.13849,0.75964 c 0.0116,0 0.23504,-2.6e-4 0.26304,0.005 0.028,0.005 0.20045,0.0352 0.21446,0.0372 0.014,0.002 0.16513,0.0427 0.18603,0.0517 0.0209,0.009 0.12604,0.0628 0.14934,0.0718 0.0233,0.009 0.14879,0.07 0.17209,0.0863 0.0233,0.0163 0.15864,0.12351 0.15864,0.12351 l 0.13281,0.16278 0.12351,0.1819 0.11834,0.19792 c 0,0 0.0442,0.17692 0.0512,0.19792 0.007,0.0209 0.0491,0.22141 0.0491,0.23771 0,0.0163 0.0165,0.25632 0.0165,0.25632 l -0.005,0.17208 -0.0326,0.002 h -1.91926 l -0.95033,-0.009 -0.48421,0.007 -0.0238,-0.002 0.003,-0.1106 v -0.0605 c 0,0 0.008,-0.0858 0.0134,-0.10232 0.005,-0.0164 0.0332,-0.0788 0.0362,-0.092 0.003,-0.0132 0.0425,-0.11031 0.0445,-0.1173 0.002,-0.007 0.0232,-0.0935 0.0232,-0.0935 0,0 0.0379,-0.0974 0.0429,-0.11059 0.005,-0.0132 0.0457,-0.0821 0.0589,-0.10852 0.0131,-0.0264 0.0447,-0.0695 0.0579,-0.0909 0.0132,-0.0214 0.0312,-0.0559 0.046,-0.0806 0.0148,-0.0247 0.054,-0.0753 0.061,-0.0853 0.007,-0.01 0.0491,-0.0527 0.0656,-0.0692 l 0.0827,-0.0827 c 0.01,-0.01 0.0939,-0.10824 0.10541,-0.12144 0.0116,-0.0132 0.0504,-0.0457 0.0574,-0.0527 0.007,-0.007 0.0873,-0.0775 0.0873,-0.0775 0,0 0.0819,-0.053 0.0982,-0.062 0.0163,-0.009 0.11205,-0.0695 0.14935,-0.0951 0.0373,-0.0256 0.0906,-0.0473 0.11162,-0.0563 0.0209,-0.009 0.17256,-0.0582 0.21446,-0.0672 0.0419,-0.009 0.1725,-0.0424 0.2005,-0.0424 0.0279,0 0.20948,-0.002 0.22118,-0.002 z"
       id="path3863"
       inkscape:connector-curvature="0"
       sodipodi:nodetypes="cccccccccccccccccccccccsccccccccccccccccccccccccccccccccccsccccccccccccccccsccccccscccccsccccsccccccccccccccscccccccccccccccccccccccccccscc" />
    <path
       style="fill:#606060;fill-opacity:1;stroke:none;stroke-width:0.264583px;stroke-linecap:butt;stroke-linejoin:miter;stroke-opacity:1"
       d="m 49.296668,38.213043 0.16743,0.74001 -0.28939,0.10128 c 0,0 -0.27285,0.0827 -0.28525,0.0868 -0.0124,0.004 -0.2005,0.0517 -0.2005,0.0517 l -0.21911,0.0455 c 0,0 -0.10749,0.0269 -0.17363,0.0351 -0.0661,0.008 -0.17984,0.0165 -0.20257,0.0186 -0.0227,0.002 -0.1571,0.0124 -0.1571,0.0124 l -0.18569,0.003 c 0,0 -0.16078,0.006 -0.17394,0.006 -0.0132,0 -0.21339,-0.004 -0.21339,-0.004 l -0.22948,-0.0117 -0.16663,-0.0307 -0.16954,-0.0438 -0.22364,-0.0424 c 0,0 -0.15639,-0.0438 -0.17685,-0.0497 -0.0205,-0.006 -0.13593,-0.0409 -0.16663,-0.0541 -0.0307,-0.0131 -0.15347,-0.0731 -0.1827,-0.0877 -0.0292,-0.0146 -0.17101,-0.10086 -0.17101,-0.10086 l -0.34056,-0.22509 c 0,0 -0.12132,-0.10377 -0.13301,-0.114 -0.0117,-0.0102 -0.11255,-0.11401 -0.11839,-0.12132 -0.006,-0.007 -0.0848,-0.0862 -0.0848,-0.0862 0,0 -0.0862,-0.0789 -0.0935,-0.0848 -0.007,-0.006 -0.1257,-0.16955 -0.1257,-0.16955 0,0 -0.0702,-0.11108 -0.076,-0.11985 -0.006,-0.009 -0.057,-0.0746 -0.0672,-0.0979 -0.0102,-0.0234 -0.0278,-0.10085 -0.0336,-0.11401 -0.006,-0.0131 -0.0716,-0.15347 -0.0716,-0.15347 l -0.0409,-0.0862 -0.057,-0.0892 c 0,0 -0.0263,-0.11546 -0.0292,-0.12716 -0.003,-0.0117 -0.0175,-0.0906 -0.0204,-0.10962 -0.003,-0.019 -0.0117,-0.0848 -0.0132,-0.0979 -0.002,-0.0132 -0.0583,-0.21173 -0.0583,-0.21173 l -0.006,-0.093 c 0,0 -0.0104,-0.10336 -0.0124,-0.11576 -0.002,-0.0124 -0.0124,-0.0971 -0.0124,-0.10542 0,-0.008 0.002,-0.16123 0.002,-0.16123 l -0.008,-0.14056 -0.008,-0.13022 c 0,0 0.004,-0.14676 0.004,-0.1571 0,-0.0103 0.002,-0.14883 0.004,-0.16123 0.002,-0.0124 0.0475,-0.15503 0.0475,-0.15503 0,0 0.0124,-0.0537 0.0165,-0.0868 0.004,-0.0331 0.0351,-0.11369 0.0351,-0.11369 l 0.0558,-0.12403 0.031,-0.13436 c 0,0 0.0248,-0.0579 0.0269,-0.0682 0.002,-0.0103 0.0248,-0.0517 0.031,-0.0682 0.006,-0.0165 0.0413,-0.0806 0.0413,-0.0806 l 0.0289,-0.0806 c 0,0 0.0393,-0.062 0.0434,-0.0703 0.004,-0.008 0.0951,-0.17364 0.0951,-0.17364 l 0.091,-0.13435 0.0475,-0.0641 0.0724,-0.0868 0.0703,-0.0889 0.0661,-0.0806 0.0785,-0.093 0.10956,-0.0827 c 0,0 0.0372,-0.0207 0.0661,-0.0661 0.0289,-0.0455 0.1509,-0.10956 0.1509,-0.10956 l 0.11575,-0.0599 0.13023,-0.0909 0.12609,-0.0868 0.17983,-0.0847 0.1943,-0.0786 0.11989,-0.0579 c 0,0 0.17364,-0.0434 0.1819,-0.0455 0.008,-0.002 0.12403,-0.031 0.12403,-0.031 l 0.11162,-0.0331 0.13229,-0.031 0.16536,-0.0351 0.12196,-0.0104 0.11162,-0.006 0.15296,-0.002 0.27906,-0.004 0.22324,-0.008 0.20464,0.0248 c 0,0 0.14469,0.002 0.15296,0.004 0.008,0.002 0.15503,0.0331 0.15503,0.0331 0,0 0.11162,0.0145 0.12609,0.0186 0.0145,0.004 0.13849,0.0434 0.13849,0.0434 l 0.14676,0.0372 0.22945,0.0682 0.17983,0.0806 -0.26045,0.75447 -0.2005,-0.0765 c 0,0 -0.10956,-0.0331 -0.13229,-0.0393 -0.0227,-0.006 -0.16123,-0.0475 -0.17364,-0.0517 -0.0124,-0.004 -0.12609,-0.0393 -0.15503,-0.0413 -0.0289,-0.002 -0.0889,-0.0103 -0.10542,-0.0103 -0.0165,0 -0.15503,-0.004 -0.1757,-0.006 -0.0207,-0.002 -0.13642,-0.0103 -0.16329,-0.008 -0.0269,0.002 -0.25425,0.004 -0.27492,0.004 -0.0207,0 -0.40515,0.006 -0.40515,0.006 0,0 -0.0951,0.0165 -0.10748,0.0227 -0.0124,0.006 -0.24391,0.0682 -0.24391,0.0682 0,0 -0.10543,0.0227 -0.12403,0.0331 -0.0186,0.0103 -0.0558,0.0207 -0.0785,0.031 -0.0227,0.0103 -0.10128,0.0806 -0.10955,0.0827 -0.008,0.002 -0.26665,0.1633 -0.26665,0.1633 0,0 -0.11162,0.0909 -0.14056,0.11368 -0.0289,0.0227 -0.0434,0.0289 -0.0703,0.0517 -0.0269,0.0227 -0.0434,0.0331 -0.0744,0.0703 -0.031,0.0372 -0.10748,0.11782 -0.11988,0.13643 -0.0124,0.0186 -0.0847,0.0971 -0.0992,0.11575 -0.0145,0.0186 -0.0538,0.062 -0.0682,0.0847 -0.0145,0.0227 -0.0703,0.0909 -0.0744,0.10749 -0.004,0.0165 -0.10129,0.26458 -0.10129,0.26458 0,0 -0.0269,0.11782 -0.0289,0.13643 -0.002,0.0186 -0.0104,0.10748 -0.0248,0.14056 -0.0145,0.0331 -0.0744,0.2005 -0.0744,0.2005 l -0.0372,0.11576 -0.002,0.32246 c 0,0 0.0289,0.23151 0.031,0.24184 0.002,0.0104 0.0186,0.17157 0.0186,0.17157 l 0.0806,0.1757 0.1017,0.33451 0.0702,0.17686 0.10669,0.17247 0.095,0.13885 0.23386,0.2441 0.16224,0.16662 c 0,0 0.19147,0.10086 0.19732,0.10378 0.006,0.003 0.21048,0.10524 0.21632,0.10816 0.006,0.003 0.24848,0.0877 0.24848,0.0877 l 0.24701,0.0599 0.27479,0.0263 h 0.64166 l 0.31279,-0.057 0.27624,-0.10231 0.24556,-0.0833 z"
       id="path3870"
       inkscape:connector-curvature="0" />
    <path
       style="fill:#606060;fill-opacity:1;stroke:none;stroke-width:0.264583px;stroke-linecap:butt;stroke-linejoin:miter;stroke-opacity:1"
       d="m 50.826128,30.547813 0.0292,8.647 1.07576,0.002 0.0453,-3.96687 0.11401,-0.20901 0.11401,-0.1944 0.15493,-0.20317 0.0862,-0.11547 0.0892,-0.0789 0.0731,-0.0541 0.10085,-0.0629 0.0804,-0.0438 0.12716,-0.0716 0.11839,-0.0716 0.11839,-0.0351 0.17394,-0.0409 0.2397,-0.0117 0.20463,0.009 0.15347,0.0132 0.15055,0.0248 0.18271,0.0453 0.14031,0.0716 c 0,0 0.10378,0.076 0.10816,0.0819 0.004,0.006 0.11255,0.0702 0.11693,0.0775 0.004,0.007 0.0438,0.0438 0.0497,0.0497 0.006,0.006 0.0629,0.0599 0.0731,0.0716 0.0102,0.0117 0.0585,0.076 0.0658,0.0862 0.007,0.0102 0.0497,0.0658 0.0628,0.0833 0.0132,0.0175 0.057,0.0906 0.0628,0.10085 0.006,0.0102 0.0643,0.11839 0.0643,0.11839 l 0.0614,0.16517 0.0322,0.23971 c 0,0 0,0.11839 0.002,0.12862 0.002,0.0102 0.0161,0.11255 0.0161,0.12278 0,0.0102 0.007,0.13739 0.007,0.13739 l 0.019,3.54884 1.08745,-0.009 -0.0272,-4.29886 -0.0796,-0.28732 c 0,0 -0.0909,-0.18087 -0.0951,-0.19121 -0.004,-0.0103 -0.0662,-0.14986 -0.0662,-0.14986 l -0.0496,-0.0909 -0.13332,-0.1974 c 0,0 -0.10852,-0.1385 -0.11266,-0.14366 -0.004,-0.005 -0.11059,-0.10335 -0.11678,-0.11162 -0.006,-0.008 -0.0889,-0.0889 -0.0951,-0.0951 -0.006,-0.006 -0.0951,-0.0672 -0.10439,-0.0734 -0.009,-0.006 -0.13849,-0.10232 -0.13849,-0.10232 l -0.0971,-0.0465 -0.14676,-0.0548 c 0,0 -0.0806,-0.0341 -0.0971,-0.0424 -0.0165,-0.008 -0.15296,-0.061 -0.16537,-0.0661 -0.0124,-0.005 -0.14986,-0.0517 -0.17673,-0.06 -0.0269,-0.008 -0.16537,-0.0341 -0.185,-0.0362 -0.0196,-0.002 -0.154,-0.005 -0.16227,-0.005 -0.008,0 -0.42478,0.0155 -0.42478,0.0155 0,0 -0.20567,0.0568 -0.2129,0.0599 -0.007,0.003 -0.15607,0.0455 -0.1633,0.0486 -0.007,0.003 -0.10542,0.0403 -0.11782,0.0455 -0.0124,0.005 -0.19948,0.0775 -0.20671,0.0806 -0.007,0.003 -0.0992,0.0548 -0.0992,0.0548 l -0.10232,0.0631 c 0,0 -0.0744,0.0331 -0.0879,0.0424 -0.0134,0.009 -0.0455,0.03 -0.0651,0.0393 -0.0196,0.009 -0.0568,0.0248 -0.0692,0.0372 -0.0124,0.0124 -0.0517,0.0382 -0.0672,0.0558 -0.0155,0.0176 -0.14262,0.10542 -0.15089,0.11266 -0.008,0.007 -0.0971,0.0724 -0.10542,0.0786 -0.008,0.006 -0.13849,0.10335 -0.13849,0.10335 l -0.0868,0.13539 -0.0971,0.11162 -0.0181,-3.69157 z"
       id="path3872"
       inkscape:connector-curvature="0"
       sodipodi:nodetypes="ccccccccccccccccccccccccsscccccccscccccccccccsccccccccscccccccccssccccccc" />
    <path
       style="fill:#606060;fill-opacity:1;stroke:none;stroke-width:0.264583px;stroke-linecap:butt;stroke-linejoin:miter;stroke-opacity:1"
       d="m 58.170818,39.194813 1.10664,-0.005 0.003,-3.90771 0.1616,-0.30702 0.062,-0.12919 0.0672,-0.11163 0.093,-0.12919 0.0827,-0.0785 0.0393,-0.0506 0.0982,-0.0754 0.14676,-0.11575 0.1726,-0.0951 0.11265,-0.0558 0.0827,-0.032 0.1726,-0.0445 0.16537,-0.032 0.29559,-0.006 0.24908,0.005 0.15828,0.0421 0.17245,0.0788 c 0,0 0.10542,0.0527 0.11059,0.0579 0.005,0.005 0.1788,0.10646 0.1788,0.10646 l 0.16949,0.15916 0.13333,0.1633 0.13332,0.21497 0.0506,0.20154 c 0,0 0.032,0.12919 0.032,0.13333 0,0.004 0.0124,0.11782 0.0124,0.11782 l 0.007,0.30179 0.0465,0.5581 0.0217,0.24702 -0.002,0.66766 -0.002,0.76584 10e-4,0.92604 0.005,0.43822 h 1.10898 l -0.0186,-3.83129 -0.0724,-0.38241 -0.0382,-0.19947 -0.0372,-0.14676 -0.10438,-0.20981 -0.0744,-0.19223 -0.1664,-0.24495 c 0,0 -0.13849,-0.15399 -0.14159,-0.15813 -0.003,-0.004 -0.0951,-0.0899 -0.10645,-0.10232 -0.0114,-0.0124 -0.12403,-0.0971 -0.12403,-0.0971 l -0.1788,-0.13229 c 0,0 -0.11265,-0.0837 -0.11988,-0.0868 -0.007,-0.003 -0.13436,-0.0599 -0.14366,-0.0641 -0.009,-0.004 -0.0806,-0.032 -0.123,-0.0465 -0.0424,-0.0145 -0.12402,-0.0382 -0.14262,-0.0403 -0.0186,-0.002 -0.092,-0.0174 -0.092,-0.0174 0,0 -0.0806,-0.0124 -0.0848,-0.0134 -0.004,-10e-4 -0.2036,-0.0413 -0.2036,-0.0413 0,0 -0.23461,-0.0238 -0.24185,-0.0238 -0.007,0 -0.15503,-0.002 -0.16123,-0.003 -0.006,-10e-4 -0.11162,0.001 -0.13022,0.002 -0.0186,10e-4 -0.20154,0.0289 -0.21601,0.032 -0.0145,0.003 -0.13539,0.0259 -0.18087,0.0382 -0.0455,0.0124 -0.11885,0.0403 -0.12712,0.0413 -0.008,10e-4 -0.32246,0.11679 -0.32246,0.11679 0,0 -0.0589,0.032 -0.0796,0.0465 -0.0207,0.0145 -0.11679,0.0538 -0.13126,0.061 -0.0145,0.007 -0.0641,0.0341 -0.0837,0.0475 -0.0196,0.0134 -0.0816,0.0538 -0.10335,0.0672 -0.0217,0.0134 -0.0889,0.0599 -0.10232,0.0744 -0.0134,0.0145 -0.14159,0.13332 -0.14159,0.13332 0,0 -0.0868,0.0827 -0.0982,0.0971 -0.0114,0.0145 -0.0961,0.0889 -0.11369,0.11162 -0.0176,0.0227 -0.0765,0.0693 -0.094,0.0909 -0.0176,0.0217 -0.0589,0.0538 -0.0703,0.0651 -0.0114,0.0114 -0.0599,0.0557 -0.0599,0.0557 l -0.0599,0.0454 -0.022,-0.96905 -1.01583,0.003 z"
       id="path3874"
       inkscape:connector-curvature="0"
       sodipodi:nodetypes="ccccccccccccccccccccccccccsccccccccccccccccccccccsccccscsccccscscccccccccccc" />
    <path
       style="fill:#606060;fill-opacity:1;stroke:none;stroke-width:0.01;stroke-miterlimit:4;stroke-dasharray:none;stroke-opacity:0.933333"
       d="m 68.143578,33.047423 a 3.1688143,3.1629678 0 0 0 -3.16466,3.16673 3.1688143,3.1629678 0 0 0 3.17293,3.15898 3.1688143,3.1629678 0 0 0 3.16467,-3.16724 3.1688143,3.1629678 0 0 0 -3.17294,-3.15847 z m 0.005,0.94981 a 1.9351686,2.2442748 0 0 1 1.93787,2.24121 1.9351686,2.2442748 0 0 1 -1.9327,2.24741 1.9351686,2.2442748 0 0 1 -1.93735,-2.24121 1.9351686,2.2442748 0 0 1 1.93218,-2.24741 z"
       id="path3876"
       inkscape:connector-curvature="0" />
    <path
       style="fill:#606060;fill-opacity:1;stroke:none;stroke-width:0.01;stroke-miterlimit:4;stroke-dasharray:none;stroke-opacity:0.933333"
       d="m 78.477318,33.028613 a 3.1688143,3.1629678 0 0 0 -3.16467,3.16673 3.1688143,3.1629678 0 0 0 3.17294,3.15898 3.1688143,3.1629678 0 0 0 3.16466,-3.16725 3.1688143,3.1629678 0 0 0 -3.17293,-3.15846 z m 0.005,0.94981 a 1.9351686,2.2442749 0 0 1 1.93787,2.24121 1.9351686,2.2442749 0 0 1 -1.9327,2.24741 1.9351686,2.2442749 0 0 1 -1.93735,-2.24121 1.9351686,2.2442749 0 0 1 1.93218,-2.24741 z"
       id="path3876-0"
       inkscape:connector-curvature="0" />
    <path
       style="fill:#606060;fill-opacity:1;stroke:none;stroke-width:0.264583px;stroke-linecap:butt;stroke-linejoin:miter;stroke-opacity:1"
       d="m 95.710698,33.141153 c -0.0361,-0.002 -0.0746,-0.002 -0.11886,0.003 -0.0885,0.009 -0.23765,0.0418 -0.27957,0.0512 -0.0419,0.009 2.1e-4,-0.0187 -0.13023,0.0233 -0.13042,0.0419 -0.21904,0.0702 -0.25631,0.0842 -0.0373,0.014 -0.28422,0.0884 -0.28422,0.0884 l -0.13022,0.093 -0.29559,0.1591 c 0,0 -0.0529,0.0623 -0.076,0.0754 -0.0231,0.0132 -0.0298,0.0103 -0.0594,0.0398 -0.0297,0.0297 -0.15141,0.14779 -0.15141,0.14779 0,0 -0.11828,0.1155 -0.12816,0.12868 -0.01,0.0132 -0.14521,0.18759 -0.14521,0.18759 l -0.0988,0.14673 -0.0838,0.1286 -0.17606,0.28174 -0.0858,0.16433 -0.0987,0.21084 -0.0398,0.2899 -0.0429,0.27027 -0.0362,0.13178 -0.0129,0.15812 v 0.14832 0.14469 c 0,0.023 -0.007,0.18448 -0.007,0.18448 l 0.0134,0.20775 0.0393,0.21704 0.0233,0.18138 0.0656,0.18448 0.0858,0.25374 0.14159,0.36845 0.0822,0.18448 0.10904,0.16175 0.14159,0.16123 0.13487,0.0956 0.16175,0.12506 0.16123,0.10542 0.16795,0.10852 0.20774,0.12557 c 0,0 0.23674,0.0725 0.25321,0.0791 0.0165,0.007 0.37259,0.11834 0.37259,0.11834 l 0.4377,0.0987 0.3328,0.0103 0.3886,0.0165 0.408763,-0.003 0.355537,-0.0362 0.21394,-0.0594 0.326067,-0.0656 0.22738,-0.0729 0.237197,-0.0822 0.12505,-0.0625 -0.1943,-0.68212 -0.332277,0.0925 -0.316257,0.092 c 0,0 -0.31962,0.0496 -0.3328,0.0496 -0.0132,0 -0.349327,0.0264 -0.349327,0.0264 l -0.24029,0.0165 -0.286813,-0.0233 c 0,0 -0.10872,0.003 -0.13177,0.003 -0.023,0 -0.19069,-0.0133 -0.21704,-0.0165 -0.0263,-0.003 -0.0725,-0.007 -0.0889,-0.01 -0.0165,-0.003 -0.1912,-0.0429 -0.1912,-0.0429 l -0.26045,-0.0791 -0.17105,-0.0889 c 0,0 -0.15477,-0.0793 -0.16795,-0.0858 -0.0132,-0.007 -0.13856,-0.10826 -0.15503,-0.12145 -0.0165,-0.0132 -0.23357,-0.1881 -0.23357,-0.1881 0,0 -0.0955,-0.0855 -0.10542,-0.0987 -0.01,-0.0132 -0.056,-0.10187 -0.0791,-0.11834 -0.023,-0.0165 -0.13539,-0.21755 -0.13539,-0.21755 l -0.0656,-0.17106 -0.0553,-0.139 -0.0563,-0.13488 0.002,-0.0744 -0.007,-0.13746 v -0.0977 c 0,-0.0116 0.005,-0.17002 0.005,-0.17002 l 0.005,-0.061 0.015,0.007 4.532011,-0.0264 0.004,-0.33692 0.0139,-0.44752 c 0,0 -0.0558,-0.29813 -0.0558,-0.32608 0,-0.028 -0.0837,-0.39584 -0.0837,-0.39584 l -0.149347,-0.31213 -0.0977,-0.21445 -0.16795,-0.2651 -0.14418,-0.16795 c 0,0 -0.158617,-0.16276 -0.177247,-0.18138 -0.0186,-0.0186 -0.16739,-0.15398 -0.19068,-0.17261 -0.0233,-0.0186 -0.265557,-0.17723 -0.302827,-0.1912 -0.0373,-0.014 -0.28873,-0.093 -0.36793,-0.12092 -0.0792,-0.0279 -0.270217,-0.0883 -0.302827,-0.093 -0.0326,-0.005 -0.363213,-0.0326 -0.405143,-0.0326 -0.0419,0 -0.26085,0.005 -0.33073,0 -0.035,-0.002 -0.0688,-0.006 -0.1049,-0.008 z m 0.13849,0.75965 c 0.0116,0 0.23503,-2.7e-4 0.26303,0.005 0.028,0.005 0.200463,0.0352 0.214463,0.0372 0.014,0.002 0.16513,0.0427 0.18603,0.0517 0.021,0.009 0.12605,0.0628 0.14935,0.0718 0.0233,0.009 0.14878,0.07 0.172077,0.0863 0.0233,0.0163 0.15865,0.1235 0.15865,0.1235 l 0.13281,0.16278 0.1235,0.1819 0.118337,0.19793 c 0,0 0.0442,0.17692 0.0512,0.19792 0.007,0.0209 0.0491,0.22141 0.0491,0.23771 0,0.0163 0.0165,0.25631 0.0165,0.25631 l -0.005,0.17209 -0.0326,0.002 h -1.919267 l -0.95033,-0.009 -0.4842,0.007 -0.0238,-0.002 0.003,-0.1106 v -0.0605 c 0,0 0.008,-0.0858 0.0134,-0.10232 0.005,-0.0164 0.0332,-0.0788 0.0362,-0.092 0.003,-0.0132 0.0424,-0.1103 0.0444,-0.1173 0.002,-0.007 0.0233,-0.0935 0.0233,-0.0935 0,0 0.0379,-0.0974 0.0429,-0.11058 0.005,-0.0132 0.0457,-0.0821 0.0589,-0.10852 0.0131,-0.0264 0.0447,-0.0695 0.0579,-0.0909 0.0132,-0.0214 0.0312,-0.0559 0.046,-0.0806 0.0148,-0.0247 0.054,-0.0753 0.061,-0.0853 0.007,-0.01 0.0491,-0.0527 0.0656,-0.0692 l 0.0827,-0.0827 c 0.01,-0.01 0.0939,-0.10824 0.10542,-0.12144 0.0116,-0.0132 0.0504,-0.0457 0.0574,-0.0527 0.007,-0.007 0.0873,-0.0775 0.0873,-0.0775 0,0 0.0819,-0.053 0.0982,-0.062 0.0163,-0.009 0.11205,-0.0695 0.14935,-0.0951 0.0373,-0.0256 0.0906,-0.0473 0.11162,-0.0563 0.0209,-0.009 0.17256,-0.0582 0.21446,-0.0672 0.0419,-0.009 0.1725,-0.0424 0.2005,-0.0424 0.028,0 0.20948,-0.002 0.22118,-0.002 z"
       id="path3863-7"
       inkscape:connector-curvature="0"
       sodipodi:nodetypes="cccccccccccccccccccccccsccccccccccccccccccccccccccccccccccsccccccccccccccccsccccccscccccsccccsccccccccccccccscccccccccccccccccccccccccccscc" />
    <rect
       style="fill:#606060;fill-opacity:1;stroke:none;stroke-width:0.01;stroke-miterlimit:4;stroke-dasharray:none;stroke-opacity:0.933333"
       id="rect3941"
       width="1.1740886"
       height="6.0192704"
       x="90.311279"
       y="33.206612"
       rx="0.040635172"
       ry="0.026168823" />
    <path
       style="fill:#606060;fill-opacity:1;stroke:none;stroke-width:0.01;stroke-miterlimit:4;stroke-dasharray:none;stroke-opacity:0.933333"
       id="path3943"
       sodipodi:type="arc"
       sodipodi:cx="90.908569"
       sodipodi:cy="31.619118"
       sodipodi:rx="0.73090857"
       sodipodi:ry="0.71313477"
       sodipodi:start="6.2818589"
       sodipodi:end="6.2818414"
       sodipodi:open="true"
       sodipodi:arc-type="arc"
       d="m 91.639477,31.618172 a 0.73090857,0.71313477 0 0 1 -0.729935,0.71408 0.73090857,0.71313477 0 0 1 -0.731881,-0.712182 0.73090857,0.71313477 0 0 1 0.729929,-0.714086 0.73090857,0.71313477 0 0 1 0.731887,0.712175" />
    <rect
       style="fill:#606060;fill-opacity:1;stroke:none;stroke-width:0.01;stroke-miterlimit:4;stroke-dasharray:none;stroke-opacity:0.933333"
       id="rect3941-8"
       width="1.1740887"
       height="8.7477856"
       x="72.691025"
       y="30.508339"
       rx="0.040635172"
       ry="0.026168823" />
    <rect
       style="fill:#606060;fill-opacity:1;stroke:none;stroke-width:0.01;stroke-miterlimit:4;stroke-dasharray:none;stroke-opacity:0.933333"
       id="rect3941-8-1"
       width="1.6184243"
       height="23.352394"
       x="82.975845"
       y="1.0942049"
       rx="0.040635172"
       ry="0.02616882" />
    <rect
       style="fill:#606060;fill-opacity:1;stroke:none;stroke-width:0.01;stroke-miterlimit:4;stroke-dasharray:none;stroke-opacity:0.933333"
       id="rect3941-8-1-4"
       width="1.6184244"
       height="15.8081"
       x="125.95044"
       y="8.6356821"
       rx="0.040635172"
       ry="0.026168821" />
    <path
       style="fill:#606060;fill-opacity:1;stroke:none;stroke-width:0.01;stroke-miterlimit:4;stroke-dasharray:none;stroke-opacity:0.933333"
       id="path3943-2"
       sodipodi:type="arc"
       sodipodi:cx="126.79274"
       sodipodi:cy="4.1520815"
       sodipodi:rx="1.358007"
       sodipodi:ry="1.3249837"
       sodipodi:start="6.2818589"
       sodipodi:end="6.2818414"
       sodipodi:open="true"
       sodipodi:arc-type="arc"
       d="m 128.15075,4.150324 a 1.358007,1.3249837 0 0 1 -1.3562,1.32674 1.358007,1.3249837 0 0 1 -1.35982,-1.3232134 1.358007,1.3249837 0 0 1 1.35619,-1.3267516 1.358007,1.3249837 0 0 1 1.35983,1.3232018" />
    <path
       style="fill:#606060;fill-opacity:1;stroke:none;stroke-width:0.264583px;stroke-linecap:butt;stroke-linejoin:miter;stroke-opacity:1"
       d="m 85.129108,33.163183 -0.30799,0.0599 -0.30386,0.0951 -0.43408,0.22531 -0.28319,0.17363 -0.25631,0.1943 -0.26459,0.27699 -0.30385,0.51056 -0.18604,0.39894 -0.12816,0.31626 -0.0806,0.43822 -0.002,0.81029 0.0661,0.35553 0.12196,0.37827 0.1819,0.38447 0.25425,0.39895 0.28732,0.30799 0.46715,0.3638 0.45062,0.19224 0.40307,0.10748 0.38654,-0.004 0.63253,-0.006 0.39894,-0.10749 0.41134,-0.2005 0.23358,-0.14263 0.23771,-0.22324 0.26872,-0.35554 -0.002,1.3746 -0.0331,0.14676 -0.0682,0.16743 -0.14883,0.27285 -0.19431,0.26458 -0.30386,0.26252 c 0,0 -0.2129,0.11369 -0.22117,0.11989 -0.008,0.006 -0.3824,0.15296 -0.3824,0.15296 l -0.27492,0.0413 -1.04387,0.006 -0.22324,-0.0434 -0.23151,-0.0579 c 0,0 -0.18604,-0.0661 -0.20464,-0.0703 -0.0186,-0.004 -0.15295,-0.0475 -0.1633,-0.0517 -0.0104,-0.004 -0.2315,-0.10542 -0.23151,-0.10542 l -0.19844,-0.0951 -0.29765,0.77721 0.28525,0.14469 c 0,0 0.35968,0.14677 0.37828,0.15296 0.0186,0.006 0.38653,0.0848 0.38654,0.0848 l 0.40514,0.0724 0.53123,0.002 0.93225,-0.0207 0.36793,-0.0951 0.36587,-0.11369 0.35967,-0.1633 0.35553,-0.24598 0.27905,-0.24598 0.22945,-0.29559 0.1943,-0.33899 0.10749,-0.36794 0.0703,-0.24391 0.0537,-0.27492 0.0145,-0.15296 0.0641,-5.84564 -0.004,-0.0702 c -0.14401,-0.007 -0.11977,-10e-4 -0.14752,-0.003 h -0.94774 c -0.0225,0 -0.0403,0.0119 -0.0403,0.0264 v 0.83768 l -0.12971,-0.18707 -0.19844,-0.20257 -0.19844,-0.17777 -0.19016,-0.0971 -0.27286,-0.13643 -0.27285,-0.0827 -0.32866,-0.0703 z m 0.51263,0.88883 c 0.75155,7.9e-4 1.43545,0.47754 1.75648,1.22473 v 1.82987 c -0.32118,0.74393 -1.00238,1.2189 -1.75131,1.22111 -1.07398,0.002 -1.9458,-0.95436 -1.94717,-2.13527 -10e-4,-1.18071 0.8682,-2.13898 1.942,-2.14044 z"
       id="path4005"
       inkscape:connector-curvature="0"
       sodipodi:nodetypes="ccccccccccccccccccccccccccccccccccccccccccccccccccccccccccccccccssccccccccccccccc" />
    <path
       style="fill:#606060;fill-opacity:1;stroke:none;stroke-width:0.264583px;stroke-linecap:butt;stroke-linejoin:miter;stroke-opacity:1"
       d="m 99.847723,38.092743 -0.26894,0.8039 0.482337,0.22509 0.43264,0.10231 0.41803,0.0789 0.40633,0.0117 h 0.5028 l 0.36249,-0.0614 0.32448,-0.0994 0.3391,-0.15785 0.21924,-0.13739 0.21048,-0.15201 0.19293,-0.23387 0.1637,-0.30109 0.10524,-0.39756 0.0117,-0.42095 -0.0409,-0.20463 -0.1235,-0.29148 c 0,0 -0.1695,-0.24804 -0.1757,-0.25631 -0.006,-0.008 -0.14263,-0.17157 -0.16743,-0.18811 -0.0248,-0.0165 -0.23151,-0.16122 -0.23151,-0.16122 l -0.27906,-0.15297 -0.6904,-0.28939 -0.57464,-0.22944 c 0,0 -0.20464,-0.14676 -0.21911,-0.15503 -0.0145,-0.008 -0.21704,-0.15296 -0.23771,-0.17156 -0.0207,-0.0186 -0.0661,-0.0827 -0.0827,-0.10336 -0.0165,-0.0207 -0.0682,-0.10748 -0.0703,-0.12609 -0.002,-0.0186 0.006,-0.0971 0.002,-0.11575 -0.004,-0.0186 -0.0165,-0.12403 -0.0165,-0.12403 l 0.0103,-0.16123 0.0269,-0.16743 0.0765,-0.13849 c 0,0 0.10542,-0.0951 0.11162,-0.10335 0.006,-0.008 0.19844,-0.11576 0.19844,-0.11576 l 0.1757,-0.0889 0.16949,-0.0393 0.27493,-0.0248 0.30385,0.008 0.31626,0.0558 0.29972,0.0682 0.24185,0.10129 0.17363,0.0806 0.26045,-0.71107 -0.23151,-0.12815 -0.24598,-0.0806 -0.31419,-0.0806 -0.36587,-0.0786 -0.76274,-0.0186 -0.27286,0.0723 -0.26458,0.0744 -0.20877,0.062 -0.25218,0.12402 -0.26665,0.19431 -0.1633,0.16123 -0.150897,0.17776 -0.10955,0.1385 -0.0971,0.21497 -0.031,0.13643 -0.006,0.11162 0.0145,0.54983 0.10541,0.26872 0.142627,0.19431 0.22738,0.26458 0.25011,0.19223 0.26252,0.1571 0.41548,0.19017 0.3948,0.13436 0.41135,0.17363 0.25631,0.14883 0.1757,0.10335 0.10542,0.12816 0.0827,0.14676 0.0372,0.0785 -0.002,0.48369 -0.0703,0.17157 -0.0889,0.15296 -0.14262,0.14469 -0.26045,0.1323 -0.3266,0.0744 c 0,0 -0.2067,0.0475 -0.21704,0.0475 -0.0103,0 -0.32866,0 -0.32866,0 l -0.1757,-0.0165 -0.36587,-0.0703 -0.32866,-0.12609 -0.21498,-0.0971 z"
       id="path4078"
       inkscape:connector-curvature="0" />
    <path
       style="fill:#606060;fill-opacity:1;stroke:none;stroke-width:0.264583px;stroke-linecap:butt;stroke-linejoin:miter;stroke-opacity:1"
       d="m 106.92001,38.200643 0.008,0.15296 0.39274,-0.004 0.006,0.53744 -0.22117,0.11988 -0.19844,0.0207 -0.18604,0.004 -0.16536,-0.0372 c 0,0 -0.11989,-0.062 -0.14469,-0.0868 -0.0248,-0.0248 -0.1447,-0.11989 -0.1447,-0.11989 l -0.0909,-0.12402 -0.0786,-0.18604 -0.0372,-0.23977 v -0.19431 l 0.0372,-0.19843 0.10749,-0.21084 0.1571,-0.14883 0.13642,-0.0785 0.19844,-0.0579 0.17777,-0.0165 0.0951,0.0124 0.14883,0.0331 0.11575,0.0661 0.11989,0.0703 0.0992,0.0537 0.004,-0.28939 -0.22737,-0.0827 -0.32246,-0.0455 -0.36381,0.0124 -0.19017,0.0537 -0.21911,0.10748 -0.17363,0.21911 -0.0909,0.21084 -0.0537,0.26872 -0.0165,0.28939 0.0909,0.31419 0.10749,0.1695 0.13129,0.17756 0.13692,0.10577 0.17899,0.0846 0.1836,0.0357 c 0,0 0.18362,0.0102 0.20016,0.0102 0.0165,0 0.40201,-0.0212 0.40201,-0.0212 l 0.18988,-0.0995 0.11504,-0.0741 -0.004,-0.82683 z"
       id="path4080"
       inkscape:connector-curvature="0"
       sodipodi:nodetypes="ccccccccsccccccccccccccccccccccccccccccccsccccc" />
    <path
       style="fill:#606060;fill-opacity:1;stroke:none;stroke-width:0.264583px;stroke-linecap:butt;stroke-linejoin:miter;stroke-opacity:1"
       d="m 108.04449,37.716953 0.004,1.4304 0.18604,-0.004 0.0207,-1.00045 0.0537,-0.0909 0.0868,-0.0786 0.10335,-0.062 0.10336,-0.0413 h 0.0992 l 0.0703,0.0207 0.0909,0.0455 0.0703,0.0579 0.0785,0.0827 0.0124,1.08314 0.23978,-0.0124 -0.0124,-1.05419 0.0951,-0.0909 0.0744,-0.0661 0.14469,-0.0455 0.12403,-0.008 0.12402,0.0124 0.0455,0.0372 c 0,0 0.0289,0.0248 0.0455,0.0455 0.0165,0.0207 0.0413,0.0786 0.0413,0.0786 l 0.0248,1.11207 0.1695,-0.0124 0.008,-1.15342 -0.0455,-0.11162 -0.0537,-0.11576 -0.11575,-0.10335 -0.091,-0.0372 -0.14056,-0.004 c 0,0 -0.14056,0 -0.15709,0.004 -0.0165,0.004 -0.10749,0.0248 -0.13643,0.0538 -0.0289,0.0289 -0.11162,0.0992 -0.11162,0.0992 l -0.0827,0.13643 -0.11576,-0.11989 -0.0951,-0.10335 -0.14883,-0.062 c 0,0 -0.12816,-0.0289 -0.14883,-0.0289 -0.0207,0 -0.0786,0.008 -0.0992,0.0165 -0.0207,0.008 -0.15709,0.0785 -0.15709,0.0785 0,0 -0.0579,0.062 -0.0786,0.0827 -0.0207,0.0207 -0.0331,0.0331 -0.062,0.0538 -0.0289,0.0207 -0.0579,0.0496 -0.0579,0.0496 l -0.004,-0.17364 z"
       id="path4082"
       inkscape:connector-curvature="0" />
    <path
       style="fill:#606060;fill-opacity:1;stroke:none;stroke-width:0.264583px;stroke-linecap:butt;stroke-linejoin:miter;stroke-opacity:1"
       d="m 110.75027,37.115393 0.0165,2.02985 0.1695,-0.004 0.002,-0.21911 0.10128,0.12816 0.14056,0.0724 0.1633,0.0682 0.23358,0.006 0.19223,-0.0889 0.14677,-0.15296 0.0537,-0.0868 0.0579,-0.20877 -0.002,-0.45269 -0.0558,-0.19844 -0.1385,-0.16536 -0.11782,-0.0971 -0.0785,-0.062 -0.16537,-0.0227 h -0.19017 l -0.11575,0.0579 -0.0682,0.0765 -0.0909,0.0868 -0.0475,0.0537 0.006,-0.81856 z m 0.64027,0.74621 a 0.43821614,0.57670903 0 0 1 0.43873,0.57619 0.43821614,0.57670903 0 0 1 -0.4377,0.57723 0.43821614,0.57670903 0 0 1 -0.43873,-0.57568 0.43821614,0.57670903 0 0 1 0.4377,-0.57774 z"
       id="path4084"
       inkscape:connector-curvature="0" />
    <path
       style="fill:#606060;fill-opacity:1;stroke:none;stroke-width:0.264583px;stroke-linecap:butt;stroke-linejoin:miter;stroke-opacity:1"
       d="m 112.48498,39.133423 0.17832,0.003 0.009,-0.92082 1.0553,-0.006 0.0205,0.92375 0.24556,0.003 -0.006,-1.92935 -0.24848,0.003 0.0117,0.83897 h -1.07868 l 0.003,-0.83897 -0.18709,0.003 z"
       id="path4089"
       inkscape:connector-curvature="0" />
    <path
       style="fill:#606060;fill-opacity:1;stroke:none;stroke-width:0.264583px;stroke-linecap:butt;stroke-linejoin:miter;stroke-opacity:1"
       d="m 54.189398,24.376163 1.50481,0.008 6.68487,-15.7178991 -1.69085,-0.0124 -5.61022,14.0944291 -5.53226,-14.0799591 -1.74253,0.004 z"
       id="path4091"
       inkscape:connector-curvature="0" />
    <path
       style="fill:#606060;fill-opacity:1;stroke:none;stroke-width:0.264583px;stroke-linecap:butt;stroke-linejoin:miter;stroke-opacity:1"
       d="m 39.654878,8.3367942 -0.86816,0.0325 -0.53795,0.0527 -0.65474,0.16071 -0.60255,0.19586 -0.68678,0.2981704 -0.51728,0.29818 -0.59066,0.4118597 -0.59635,0.4914397 -0.43253,0.4501 -0.45579,0.61392 -0.37155,0.60513 -0.2775,0.52296 -0.20464,0.47646 -0.17828,0.50023 -0.18449,0.64595 -0.12867,0.54674 -0.10801,0.67489 -0.0703,0.99116 0.003,0.95291 0.047,0.75706 0.12247,0.74879 0.18449,0.81546 0.19585,0.56999 0.22789,0.5147 0.22221,0.46457 0.2806,0.45578 0.32453,0.45941 0.44442,0.50539 0.29817,0.29249 0.32401,0.26872 0.38293,0.32453 0.43304,0.26303 0.6227,0.32194 0.48783,0.22169 0.47077,0.17002 0.37724,0.0961 0.29817,0.0558 0.49403,0.12247 0.66663,0.0909 1.81229,-0.009 0.64595,-0.0641 0.53485,-0.0909 0.18139,-0.0289 0.73639,-0.14934 0.54674,-0.13126 0.75706,-0.24546 0.75447,-0.34778 -0.47387,-1.17513 -0.99994,0.42685 -0.67231,0.18397 -0.89452,0.19017 -0.87075,0.0904 -1.71307,-0.0145 -0.62891,-0.0847 -0.7276,-0.15193 -0.87695,-0.30437 -0.52606,-0.29197 -0.53227,-0.32764 -0.58188,-0.51727 -0.46767,-0.54674 -0.47904,-0.78652 -0.22221,-0.46457 -0.2806,-0.85679 -0.13178,-0.46147 -0.11989,-0.67541 -0.0465,-0.35089 -0.0615,-0.43253 0.003,-0.78342 12.26281,0.0202 0.003,-1.47588 -0.11679,-0.82166 -0.36277,-1.44125 -0.36845,-0.96739 -0.31574,-0.57309 -0.53485,-0.7276 -0.54932,-0.5937697 -0.81597,-0.6252797 -0.92036,-0.4330504 -0.64027,-0.18707 -0.83354,-0.1607097 z m -0.11678,1.2350591 0.37207,0.031 0.47542,0.0558 0.45475,0.062 0.35554,0.12196 0.54777,0.1922297 0.42581,0.24598 0.49196,0.37414 0.34727,0.35967 0.35966,0.41961 0.27699,0.49816 0.27698,0.60772 0.18604,0.62218 0.13642,0.60772 0.10749,0.59324 0.0413,0.78135 -10.44225,5.3e-4 0.01,-0.41858 0.12816,-0.61391 0.12196,-0.41135 0.19844,-0.56017 0.21084,-0.5023 0.21084,-0.39894 0.29559,-0.46922 0.23357,-0.31213 0.30799,-0.35346 0.29973,-0.27079 0.32452,-0.27285 0.32867,-0.23358 0.30385,-0.1633 0.32453,-0.1694897 0.34107,-0.12403 0.40514,-0.12402 0.45475,-0.078 0.45889,-0.0496 0.28732,-0.0398 z"
       id="path4093"
       inkscape:connector-curvature="0" />
    <path
       style="fill:#606060;fill-opacity:1;stroke:none;stroke-width:0.01;stroke-miterlimit:4;stroke-dasharray:none;stroke-opacity:0.933333"
       d="m 71.368708,8.2530742 a 7.7721356,8.2847653 0 0 0 -7.7618,8.2956188 7.7721356,8.2847653 0 0 0 7.78247,8.27391 7.7721356,8.2847653 0 0 0 7.7618,-8.29561 7.7721356,8.2847653 0 0 0 -7.78247,-8.2739188 z m -0.0455,1.3296291 a 6.1369738,6.9220899 0 0 1 6.14536,6.9127597 6.1369738,6.9220899 0 0 1 -6.12882,6.93136 6.1369738,6.9220899 0 0 1 -6.14536,-6.91275 6.1369738,6.9220899 0 0 1 6.12882,-6.9313697 z"
       id="path4107"
       inkscape:connector-curvature="0" />
    <path
       style="fill:#606060;fill-opacity:1;stroke:none;stroke-width:0.01;stroke-miterlimit:4;stroke-dasharray:none;stroke-opacity:0.933333"
       d="m 96.246668,8.2248642 a 7.7721357,8.2847654 0 0 0 -7.7618,8.2956188 7.7721357,8.2847654 0 0 0 7.78247,8.27391 7.7721357,8.2847654 0 0 0 7.761782,-8.29561 7.7721357,8.2847654 0 0 0 -7.782452,-8.2739188 z m -0.0455,1.3296391 a 6.1369739,6.92209 0 0 1 6.145342,6.9127497 6.1369739,6.92209 0 0 1 -6.128812,6.93136 6.1369739,6.92209 0 0 1 -6.14536,-6.91275 6.1369739,6.92209 0 0 1 6.12883,-6.9313597 z"
       id="path4107-3"
       inkscape:connector-curvature="0" />
    <path
       style="fill:#606060;fill-opacity:1;stroke:none;stroke-width:0.264583px;stroke-linecap:butt;stroke-linejoin:miter;stroke-opacity:1"
       d="m 113.11291,8.3605642 -0.75241,0.1570897 -0.82269,0.26045 -0.88056,0.3720697 -0.51677,0.31006 -0.49609,0.3348697 -0.64079,0.5250297 -0.38447,0.40514 -0.46302,0.60358 -0.44235,0.68626 -0.33073,0.69454 -0.3638,0.91777 -0.21498,0.86816 -0.12402,0.65319 -0.0579,0.78135 -0.0124,1.33532 0.0992,0.83923 0.20671,0.93431 0.24391,0.78961 0.31833,0.71934 0.45061,0.78961 0.51263,0.65319 0.55398,0.58291 0.54983,0.46716 0.678,0.47956 0.63665,0.30179 0.75654,0.30592 1.02526,0.20257 0.45062,0.0537 h 1.49655 l 0.83509,-0.15297 0.8847,-0.27285 0.66146,-0.28525 0.63666,-0.40101 0.63252,-0.47956 0.47542,-0.47129 0.33073,-0.39274 0.20257,-0.38034 0.23151,-0.40101 -0.015,4.86069 -0.0816,0.94154 -0.1695,0.71004 -0.22221,0.75447 -0.30696,0.64596 -0.33899,0.54363 -0.36846,0.44442 -0.42375,0.37724 -0.46767,0.36225 -0.4501,0.25425 -0.55294,0.22221 -0.38292,0.13436 -0.45578,0.1111 -0.53227,0.10232 -0.30076,0.0584 -1.81539,0.0119 -0.48266,-0.0729 -0.59893,-0.0935 -0.60823,-0.13746 -0.66043,-0.22789 -0.41806,-0.16124 -0.37724,-0.17208 -0.46767,-0.26045 -0.39171,-0.23977 -0.5674,1.25677 0.87695,0.49144 0.99994,0.40308 1.03507,0.23977 1.06402,0.15813 0.68368,0.0527 1.4733,-0.0176 1.09916,-0.15812 0.95911,-0.25115 0.9648,-0.339 0.86506,-0.46199 0.80667,-0.60823 0.61392,-0.66042 0.42685,-0.58498 0.40359,-0.78341 0.32142,-1.01131 0.2279,-1.01751 0.15813,-0.98805 0.0641,-1.08728 0.046,-16.2997791 -1.39733,-0.004 -0.004,2.9806891 -0.42581,-0.81855 -0.40101,-0.50023 -0.61185,-0.6077197 -0.7028,-0.4836897 -0.71934,-0.3431297 -0.63665,-0.23564 -0.69453,-0.16124 -0.68626,-0.1157497 z m 0.50953,1.2443691 c 0.0322,0 0.82579,0.004 0.82579,0.004 l 0.49609,0.0661 0.57464,0.091 0.42995,0.1447 0.47543,0.1860297 0.41341,0.20257 0.39274,0.28112 0.40928,0.3142 0.40514,0.3638 0.43822,0.56224 0.33899,0.52916 0.22325,0.45062 0.15296,0.40928 0.1943,0.65732 0.008,4.47311 -0.0289,0.30593 -0.16537,0.6904 -0.23151,0.59117 -0.33073,0.64906 -0.51263,0.7152 -0.55397,0.5333 -0.72243,0.52865 -1.00563,0.5085 -1.21026,0.23409 -1.4149,-0.0294 -0.53485,-0.0501 c 0,0 -0.4355,-0.0964 -0.4501,-0.10542 -0.0146,-0.009 -0.31575,-0.11369 -0.31575,-0.11369 l -0.47955,-0.20774 -0.54932,-0.30127 -0.4005,-0.28939 -0.31884,-0.28628 -0.56121,-0.58188 -0.65784,-0.97359 -0.39481,-0.93534 -0.25683,-0.98805 -0.10542,-0.6811 0.009,-2.1425 0.15502,-1.04387 0.29249,-0.91777 0.31265,-0.72192 0.30385,-0.54105 0.31006,-0.47956 0.33021,-0.35915 0.38034,-0.39171 0.3421,-0.29817 0.49093,-0.32453 0.48214,-0.23668 c 0,0 0.40644,-0.1784697 0.42685,-0.1901697 0.0205,-0.0117 0.57021,-0.16988 0.61701,-0.18448 0.0468,-0.0146 0.48524,-0.093 0.48524,-0.093 0,0 0.45305,-0.0238 0.48525,-0.0238 z"
       id="path4142"
       inkscape:connector-curvature="0" />
    <path
       style="fill:#606060;fill-opacity:1;stroke:none;stroke-width:0.264583px;stroke-linecap:butt;stroke-linejoin:miter;stroke-opacity:1"
       d="m 143.75083,22.536483 0.43822,1.18649 -0.60358,0.26872 -0.42582,0.15089 -0.41341,0.13436 -0.44235,0.11782 -0.44441,0.12196 -0.46096,0.093 -0.50022,0.0599 -0.72554,0.10129 -1.48208,-0.002 -0.52297,-0.0661 -0.1943,-0.0455 c 0,0 -0.71727,-0.13023 -0.72554,-0.13229 -0.008,-0.002 -0.41341,-0.093 -0.41341,-0.093 l -0.40928,-0.1509 -0.41754,-0.16123 -0.38241,-0.17776 -0.57051,-0.31006 -0.24598,-0.16123 -0.20877,-0.14056 -0.41961,-0.31626 -0.34933,-0.31833 -0.38448,-0.37827 -0.51056,-0.63872 -0.42375,-0.65939 -0.37413,-0.78342 -0.29353,-0.82682 -0.21084,-0.8785 -0.0979,-0.71644 -0.0789,-0.58757 v -1.2307 l 0.0731,-0.65188 0.16663,-0.7659 0.19585,-0.64311 0.16663,-0.52912 0.16955,-0.43556 0.2134,-0.42095 0.2894,-0.49988 0.31864,-0.42387 0.35079,-0.4648 0.29524,-0.30986 0.28356,-0.30402 0.35664,-0.31571 0.41218,-0.3361797 0.35956,-0.25432 0.43557,-0.2660197 0.53203,-0.25432 0.57296,-0.2221697 0.56126,-0.18709 0.57589,-0.14324 0.56418,-0.11108 0.56419,-0.0819 0.73959,-0.0175 1.43532,0.0146 0.68112,0.1140097 0.73082,0.13446 0.71035,0.20756 0.47649,0.18708 0.60804,0.27479 -0.5905,1.2628494 -0.57588,-0.27186 -0.73082,-0.28064 -0.66065,-0.1607797 -0.83313,-0.14324 -0.77174,-0.0497 -0.82144,0.0175 -0.89452,0.076 -0.50865,0.10231 -0.26894,0.0643 -0.81559,0.3244797 -0.51157,0.26017 -0.40341,0.23094 -0.29817,0.22217 -0.67527,0.60219 -0.48819,0.58758 -0.36248,0.53495 -0.31571,0.64604 -0.31572,0.7279 -0.12277,0.5408 -0.10816,0.47941 -0.10816,0.8799 0.0146,1.6838 0.14616,0.73374 0.29525,0.98514 0.59927,1.23654 c 0,0 0.4911,0.61388 0.49695,0.6285 0.006,0.0146 0.8916,0.89744 0.8916,0.89744 l 0.48233,0.35956 0.9296,0.48526 0.75128,0.20755 0.95298,0.21048 0.69574,0.0351 1.26869,-0.0117 1.18392,-0.18709 1.09623,-0.31571 0.52326,-0.20463 z"
       id="path4147"
       inkscape:connector-curvature="0" />
    <path
       sodipodi:nodetypes="ccccccccccccccccccccccccccccccccccccccccccccccccccccccccccccccccccccccccccccccccccccccccccccccccccccccccccccccccccccccccccccccccccccccccccccccccccccccccccccccccccccccc"
       inkscape:connector-curvature="0"
       id="path4149-6"
       d="m 20.065171,0.75202453 0.39827,0.67207897 0.506142,1.045473 0.157636,0.605705 -0.05808,0.896105 -1.078647,1.178219 -1.203113,1.128447 -1.676067,1.385654 L 14.149163,9.8210033 11.601888,11.563462 8.6480309,9.3812566 6.8060211,7.8130535 4.9391237,5.9378605 l -1.145035,-1.510116 -0.564227,-0.937602 -0.514432,-1.086939 -0.174236,-0.663794 -0.132763,-0.472938 -0.01649,-0.48956097 -1.2695,-0.0086 V 5.4148145 l 0.531026,1.3939486 0.448063,0.8546284 0.846322,1.1201404 1.510123,1.6760631 1.667765,1.452028 1.1118351,0.987385 1.0952584,0.846333 -1.7092601,1.178219 -1.3026824,1.062063 -1.120144,1.062064 -1.04546,1.08695 -0.83803,1.111846 -0.497839,0.755042 -0.423168,0.987385 -0.207434,0.68869 -0.107867,0.70527 0.05808,1.493526 -0.0165,4.696296 0.572517,1.410541 0.696989,1.128436 1.037151,1.277795 1.651176,1.626271 1.028867,0.879525 0.9458961,0.705281 1.3192814,0.937592 -0.8131447,0.472938 -0.8048434,0.647203 -1.2114044,1.020577 -1.037175,0.962488 -1.319263,1.360758 -0.829746,1.053768 -0.572511,0.854628 -0.580809,1.335862 -0.199144,1.17824 0.04979,0.854618 1.377367,-0.04153 0.788249,-1.053768 1.543311,-1.601375 1.327573,-1.103551 1.3192698,-1.045473 1.4188444,-1.095256 1.4437351,-0.921001 1.319275,-0.838016 2.007957,1.393939 1.410553,0.96251 1.559893,1.211389 1.302688,1.211422 1.070356,1.244592 0.555923,0.721871 0.439761,0.705281 0.09021,0.228693 2.293693,-0.01145 -0.0059,-1.085397 -0.211089,-0.897633 -0.304916,-0.909602 -0.633718,-1.232155 -0.768533,-1.062053 -0.968197,-1.132086 -0.721869,-0.716167 -0.815215,-0.762309 -0.944861,-0.709927 -0.621779,-0.493178 c 0,0 -0.692347,-0.404874 -0.709934,-0.428347 -0.01757,-0.02344 -0.798102,-0.539343 -0.798102,-0.539343 l -0.08199,-0.0471 0.657042,-0.410729 0.798101,-0.580788 0.645114,-0.527944 0.833371,-0.674668 0.979599,-0.909602 0.668975,-0.651335 0.645114,-0.703718 0.381677,-0.422642 0.527934,-0.65704 0.369742,-0.492665 0.328258,-0.580819 0.299227,-0.610362 0.281594,-0.621793 0.117718,-0.522207 -0.02963,-3.244782 -0.09955,-2.235092 -0.04713,-0.968204 -0.17009,-0.680373 -0.293007,-0.721872 -0.534137,-0.815731 -0.651346,-0.84477 -0.575108,-0.657051 -1.273114,-1.167333 -1.085395,-0.891963 -0.932939,-0.721871 -1.032502,-0.744681 -0.839066,-0.587038 1.642873,-1.149694 1.220747,-0.927242 0.914774,-0.82713 0.891963,-0.8509997 0.974927,-1.1471674 0.60263,-0.8606214 0.481246,-0.8668517 0.469825,-1.0266663 0.289777,-1.187103 0.05766,-1.97417 -0.008,-1.96647397 z m -8.374612,14.94350447 0.838031,0.547628 0.954199,0.663794 0.896104,0.589093 0.862926,0.663794 0.622294,0.481244 0.713577,0.547617 0.464651,0.414882 0.555924,0.539322 0.622304,0.79655 0.539318,0.738452 0.730171,1.028871 0.506135,0.937603 0.597408,1.161628 0.157655,0.531027 0.215725,0.696975 -0.008,0.547628 -0.323597,0.522731 -0.614002,0.871229 -0.763347,0.88781 c -2.483675,2.106434 -2.630085,2.207262 -5.408555,4.042114 l -2.216709,1.442426 -0.605704,-0.414849 -1.1450287,-0.721883 -0.8463277,-0.614 -1.0869554,-0.896116 -1.2445961,-1.111846 -1.2114224,-1.169923 -1.111835,-1.219717 -0.846334,-1.136732 -0.630596,-1.045452 -0.381671,-0.755063 -0.232331,-0.796551 -0.141047,-0.871219 0.738461,-0.987374 0.89611,-0.929317 0.904411,-0.912696 1.344167,-1.153333 1.1616281,-0.912706 1.1201374,-0.854628 1.4188501,-0.896115 z"
       style="fill:#10812e;fill-opacity:1;stroke:none;stroke-width:0.264583px;stroke-linecap:butt;stroke-linejoin:miter;stroke-opacity:1" />
    <path
       sodipodi:nodetypes="cccccccccccccccccccccccccccccccccccccccccccccccccccccccccccccccccccsscc"
       inkscape:connector-curvature="0"
       id="path3964"
       d="m 16.334145,12.424854 1.220748,-0.927241 0.914774,-0.827131 0.891963,-0.8509987 0.974927,-1.1471674 0.60263,-0.8606214 0.481245,-0.8668407 0.469826,-1.0266773 0.289777,-1.187092 0.05766,-1.974181 -0.008,-1.96647397 -2.182357,-0.04945 0.39827,0.67206797 0.506142,1.045473 0.09127,0.26638 0.05192,0.406672 0.0042,0.448748 -0.04719,0.304303 -0.101749,0.18635 -0.468164,0.549576 -0.509465,0.518011 -1.203114,1.128447 -1.676067,1.385654 -2.962149,2.1572968 -2.547274,1.7424577 c -3.2832748,2.215997 2.572359,-1.7169517 -3.2690638,2.18243 l -1.7092601,1.17823 -1.3026824,1.062053 -1.120144,1.062075 -1.04546,1.086938 -0.83803,1.111847 -0.49784,0.755052 -0.423167,0.987385 -0.207434,0.68869 -0.107867,0.705271 0.05807,1.493525 -0.01649,4.696286 0.572517,1.410551 0.696989,1.128437 1.037151,1.277784 1.651176,1.626282 1.028867,0.879524 0.9458971,0.705271 1.3192804,0.937591 c 3.3347118,2.154772 -0.7238487,-0.469877 3.2193768,2.041121 l 2.007956,1.39395 1.410554,0.96251 1.559893,1.211389 1.302688,1.211411 1.070355,1.244603 0.555925,0.721872 0.43976,0.70528 0.09021,0.228693 2.293693,-0.01145 -0.0059,-1.085387 L 22.089905,44.253952 21.784989,43.34435 21.151271,42.112206 20.382737,41.050153 19.414541,39.918067 18.692672,39.2019 17.877457,38.43959 16.932596,37.729653 16.310817,37.236485 c 0,0 -0.692347,-0.404874 -0.709934,-0.428347 -0.01756,-0.02344 -0.798101,-0.539343 -0.798101,-0.539343 l -0.08199,-0.0471 C 10.81725,33.809631 1.6418467,27.517044 2.4607167,23.735915 c 0.640537,-2.957702 9.3491713,-7.800894 11.1526083,-9.155551 1.803218,-1.354486 2.72074,-2.155457 2.72074,-2.155457 z"
       style="fill:#66ae29;fill-opacity:1;stroke:none;stroke-width:0.264583px;stroke-linecap:butt;stroke-linejoin:miter;stroke-opacity:1" />
    <g
       style="fill:#b3d5aa;fill-opacity:1;stroke-width:1.69099"
       transform="matrix(0.59137021,0,0,0.59137021,-34.639543,-117.53183)"
       id="g3928">
      <path
         style="fill:#b3d5aa;fill-opacity:1;stroke:none;stroke-width:0.447407px;stroke-linecap:butt;stroke-linejoin:miter;stroke-opacity:1"
         d="m 92.575561,200.02364 1.44779,0.0391 0.23804,0.37174 0.26413,0.33586 0.31303,0.54457 0.25108,0.59997 0.14348,0.41738 0.15326,0.51522 0.14674,0.65543 0.14347,0.68151 0.10761,0.68477 0.0815,0.52499 0.0946,0.54453 0.0522,0.28044 0.1337,0.54782 -0.14022,0.58043 -0.16303,0.66846 -0.18262,0.74998 -0.17282,0.33587 -0.17888,0.43257 -0.23804,0.51194 -0.20869,0.44672 -0.35869,0.61304 -0.2413,0.48857 -0.47608,0.77607 -0.49238,0.69782 -0.5847,0.73366 -0.59785,0.74234 -0.52396,0.61248 -0.72325,0.69894 -0.72716,0.70656 -1.19019,1.10215 -1.43801,1.18367 -3.35863,2.42279 -0.48586,0.33261 2.50755,-2.10323 1.27172,-1.13477 1.13476,-1.13149 0.81194,-0.88694 1.35975,-1.58149 1.23259,-1.73149 0.8902,-1.52606 0.35543,-0.73041 0.35216,-0.825 0.28695,-0.9652 0.17609,-0.71083 0.0783,-0.54782 0.0228,-0.39457 0.01,-0.53803 0.004,-0.70106 0.0163,-0.48262 6e-5,-0.1989 0.0237,-0.2957 0.005,-0.28485 -0.024,-0.30963 -0.0378,-0.32739 -0.0749,-0.35903 -0.0466,-0.23671 -0.0724,-0.20512 -0.10175,-0.31816 -0.18683,-0.57856 -0.29673,-0.63913 -0.34891,-0.67823 -0.38151,-0.74999 -0.21196,-0.29673 -0.0685,-0.1011 z"
         id="path3910"
         inkscape:connector-curvature="0"
         sodipodi:nodetypes="ccccccccccccccccccccccccccccccccccccccccccccccccccccccccccccccccccc" />
      <path
         sodipodi:nodetypes="cccccccccccccccccccccccccccccccccc"
         style="fill:#b3d5aa;fill-opacity:1;stroke:none;stroke-width:0.447407px;stroke-linecap:butt;stroke-linejoin:miter;stroke-opacity:1"
         d="m 60.475151,200.0467 2.16967,0.0121 0.0474,0.82812 0.18913,0.75652 0.15978,0.54129 0.14999,0.61303 0.28695,0.59021 0.32934,0.70107 0.60651,1.15758 0.46304,0.76628 0.8315,1.14782 1.39563,1.78366 2.14235,2.13582 1.25867,1.20976 1.68583,1.43801 1.67932,1.36302 2.73255,2.00539 1.18694,0.87389 -3.72058,-2.43906 -2.78147,-1.94998 -3.44015,-2.79776 -2.22713,-2.06084 -1.15707,-1.25232 -0.83237,-1.00071 -0.48651,-0.62254 -0.33433,-0.47268 -0.66636,-0.9707 -0.4035,-0.68019 -0.4404,-0.84852 -0.29052,-0.64561 -0.25825,-0.74935 -0.11989,-0.48882 -0.1561,-0.40715 z"
         id="path3912"
         inkscape:connector-curvature="0" />
      <path
         style="fill:#b3d5aa;fill-opacity:1;stroke:none;stroke-width:0.447407px;stroke-linecap:butt;stroke-linejoin:miter;stroke-opacity:1"
         d="m 72.612761,221.69063 0.48451,0.2819 -1.33685,1.08504 -0.70433,0.62605 -1.07607,0.98478 -1.61084,1.55213 -1.35649,1.51302 -1.04998,1.25867 -0.99128,1.28477 -0.88694,1.33691 -0.74999,1.38911 -0.29999,0.73041 -0.35869,1.02389 -0.20217,0.73694 -0.10435,0.80217 -0.0261,0.41738 0.007,0.43042 0.005,0.40474 c 0.0168,0.58211 0.0776,0.95878 0.20985,1.63652 l 0.20869,1.03696 0.20217,0.61954 0.23478,0.65218 0.33912,0.74996 0.25435,0.46955 0.61303,0.99783 0.46303,0.7304 0.50217,0.69131 1.18693,1.44126 0.74346,0.84781 1.1152,1.23912 0.79563,0.73041 1.48693,1.37607 2.24996,1.89778 1.0565,0.85434 -3.58689,-2.50431 -1.63692,-1.3239 -1.43476,-1.18041 -1.12171,-1.08257 -1.63041,-1.63692 -0.93259,-1.13477 -0.60651,-0.78259 -1.04997,-1.56519 -0.52173,-1.03693 -0.31304,-0.86085 -0.32608,-0.9652 -0.27391,-1.2391 -0.15622,-0.83859 -0.0478,-0.65312 0.0433,-0.54784 0.14117,-0.77778 0.23477,-0.99129 0.41739,-0.93911 0.44347,-1.10215 0.51521,-0.8087 1.13475,-1.56517 0.82825,-1.01087 1.65649,-1.74125 0.82172,-0.78261 0.73042,-0.69127 1.39563,-1.16737 1.39562,-1.09564 1.03694,-0.78259 z"
         id="path3914"
         inkscape:connector-curvature="0"
         sodipodi:nodetypes="ccccccccccccccccccccccccccccccccccccccccccccccccccccccccccccccc" />
      <path
         sodipodi:nodetypes="ccccccccccccccccccccccccccccccccccccccccccccccccc"
         style="fill:#b3d5aa;fill-opacity:1;stroke:none;stroke-width:0.447407px;stroke-linecap:butt;stroke-linejoin:miter;stroke-opacity:1"
         d="m 83.946071,229.13206 4.03346,3.20086 1.42466,1.2489 1.15638,1.22113 1.2489,1.37841 1.01761,1.23041 1.3044,1.80395 0.87885,1.53569 0.69383,1.64668 0.32226,0.99429 0.19099,0.73005 0.0102,0.59825 0.002,0.9212 -6e-5,0.24324 -0.13876,0.71861 -0.19166,0.47538 -0.61982,1.31366 -0.26953,0.54067 -0.2964,0.49636 -0.21013,0.39251 -0.49531,0.68948 -0.81937,1.09111 -1.46167,1.60966 -2.48854,2.4793 -2.69206,2.21099 -2.07223,1.51718 2.29426,-1.91498 1.58194,-1.40616 1.11938,-1.13786 1.01761,-1.18414 1.07312,-1.38767 0.84185,-1.36914 0.61982,-1.2674 0.50881,-1.34142 0.30528,-1.23962 0.13877,-1.06388 0.0555,-1.58193 -0.0648,-0.51807 0.008,-0.97238 -0.12033,-0.83307 -0.17111,-0.57527 -0.30294,-0.93767 -0.39459,-0.81254 -0.36074,-0.68886 -0.72158,-1.38767 -0.8696,-1.41541 -1.85022,-2.49779 -1.87795,-2.03522 z"
         id="path3916"
         inkscape:connector-curvature="0" />
      <path
         style="fill:#b3d5aa;fill-opacity:1;stroke:none;stroke-width:0.447407px;stroke-linecap:butt;stroke-linejoin:miter;stroke-opacity:1"
         d="m 60.269421,276.99728 2.39342,-0.0652 -0.10434,-1.01737 -0.0783,-1.46085 0.28695,-1.56519 0.59999,-1.51302 0.91302,-1.56517 1.40867,-2.00867 1.09563,-1.27822 1.38258,-1.40867 1.64345,-1.61737 2.08691,-1.82605 1.09707,-0.96951 -0.47346,-0.32083 -2.05836,1.47295 -1.87823,1.59126 -1.48692,1.27826 -1.61736,1.56516 -1.43476,1.46085 -0.83476,1.09564 -0.9652,1.3304 -0.80868,1.40867 -0.52173,1.14782 -0.28969,0.82558 -0.15378,0.60915 -0.1826,1.14781 -0.0261,0.78259 z"
         id="path3918"
         inkscape:connector-curvature="0"
         sodipodi:nodetypes="cccccccccccccccccccccccccccc" />
      <path
         style="fill:#b3d5aa;fill-opacity:1;stroke:none;stroke-width:0.447407px;stroke-linecap:butt;stroke-linejoin:miter;stroke-opacity:1"
         d="m 93.858411,276.9843 -1.42171,-0.005 c 0,0 -0.55099,-1.04044 -0.57707,-1.09262 -0.0261,-0.0522 -0.83621,-1.1739 -0.83621,-1.1739 l -1.03041,-1.26518 -0.88694,-1.01738 -1.12172,-1.09561 -1.17389,-1.13477 -1.40867,-1.0826 -2.03474,-1.53908 3.5608,2.42602 1.83909,1.46084 2.44992,1.99959 1.27277,1.19899 0.8854,1.01451 0.23519,0.41964 0.19829,0.53495 z"
         id="path3920"
         inkscape:connector-curvature="0"
         sodipodi:nodetypes="cccccccccccccccccc" />
    </g>
    <path
       sodipodi:nodetypes="ccccc"
       inkscape:connector-curvature="0"
       id="path3966"
       d="m 8.1915052,13.630753 3.8156438,2.261797 2.904834,-2.163313 -3.59873,-2.374206 z"
       style="fill:#10812e;fill-opacity:1;stroke:none;stroke-width:0.264583px;stroke-linecap:butt;stroke-linejoin:miter;stroke-opacity:1" />
  </g>
</svg>
